<svg xmlns="http://www.w3.org/2000/svg"viewBox="0.5 1 166 175.5"><polygon fill="#B3B3B3" points="83.2,0.9 0.6,30 13.6,138.3 83.3,176.6 153.4,137.8 166.5,29.5"/><polygon fill="#A6120D" points="158.2,35.7 83,10.1 83,167.5 146,132.6"/><polygon fill="#DD1B16" points="9.8,36.2 21,133.1 83,167.5 83,10.1"/><path fill="#F2F2F2" d="M103.74 93.871l-20.69 9.675H61.243l-10.251 25.64l-19.067 0.353L83.05 15.804L103.74 93.871z M101.74 89 L83.187 52.271L67.969 88.368h15.08L101.74 89z"/><polygon fill="#B3B3B3" points="83,15.8 83.2,52.3 100.5,88.4 83.1,88.4 83,103.5 107.1,103.5 118.3,129.5 136.5,129.9"/></svg>
