<svg xmlns="http://www.w3.org/2000/svg"viewBox="76 30 360 450"><g><path fill="#002a41" opacity="1.00" d=" M 76.28 32.99 C 136.12 67.41 196.15 101.54 255.78 136.30 C 235.96 147.84 216.04 159.20 196.16 170.62 C 176.12 159.09 156.10 147.54 136.03 136.08 C 135.98 159.12 135.98 182.16 136.03 205.20 C 116.12 216.60 96.30 228.18 76.29 239.41 C 76.21 170.61 76.24 101.80 76.28 32.99 Z"/><path fill="#002a41" opacity="1.00" d=" M 256.31 136.70 C 276.43 147.50 295.97 159.37 315.87 170.59 C 335.97 182.17 356.10 193.71 376.22 205.25 C 396.07 216.58 415.75 228.20 435.72 239.29 C 435.79 319.22 435.72 399.14 435.76 479.06 C 375.86 444.65 315.90 410.34 256.14 375.72 C 256.35 352.76 256.33 329.80 256.15 306.85 L 256.37 306.87 C 275.95 318.77 296.06 329.80 315.85 341.35 C 335.98 352.88 356.03 364.54 376.21 375.98 C 376.30 352.89 376.25 329.79 376.23 306.70 C 376.16 295.85 376.52 284.99 376.09 274.15 C 365.77 267.79 355.09 262.04 344.63 255.94 C 315.16 238.91 285.60 222.07 256.15 205.03 C 256.46 182.26 256.11 159.48 256.31 136.70 Z"/><path fill="#002a41" opacity="1.00" d=" M 136.12 274.14 C 146.39 267.79 157.05 262.09 167.46 255.98 C 196.80 273.04 226.31 289.80 255.69 306.80 C 236.13 318.78 215.96 329.78 196.15 341.34 C 176.09 329.84 156.04 318.31 136.00 306.77 C 136.10 295.89 135.80 285.01 136.12 274.14 Z"/></g><g><path fill="#0071b5" opacity="1.00" d=" M 255.78 136.30 C 315.83 101.93 375.72 67.31 435.77 32.93 C 435.71 101.72 435.79 170.51 435.72 239.29 C 415.75 228.20 396.07 216.58 376.22 205.25 C 376.26 182.18 376.28 159.10 376.22 136.02 C 356.03 147.42 336.05 159.17 315.87 170.59 C 295.97 159.37 276.43 147.50 256.31 136.70 C 256.11 159.48 256.46 182.26 256.15 205.03 C 226.54 221.94 197.01 238.97 167.46 255.98 C 157.05 262.09 146.39 267.79 136.12 274.14 C 135.80 285.01 136.10 295.89 136.00 306.77 C 136.02 329.81 135.95 352.85 136.04 375.89 C 156.09 364.40 176.12 352.87 196.15 341.34 C 215.96 329.78 236.13 318.78 255.69 306.80 L 256.15 306.85 C 256.33 329.80 256.35 352.76 256.14 375.72 C 196.15 410.14 136.24 444.69 76.23 479.07 C 76.30 399.19 76.19 319.30 76.29 239.41 C 96.30 228.18 116.12 216.60 136.03 205.20 C 156.08 193.68 176.12 182.16 196.16 170.62 C 216.04 159.20 235.96 147.84 255.78 136.30 Z"/><path fill="#0071b5" opacity="1.00" d=" M 344.63 255.94 C 355.09 262.04 365.77 267.79 376.09 274.15 C 376.52 284.99 376.16 295.85 376.23 306.70 C 356.07 318.19 335.99 329.82 315.85 341.35 C 296.06 329.80 275.95 318.77 256.37 306.87 C 285.66 289.69 315.28 273.04 344.63 255.94 Z"/></g></svg>
