<svg xmlns="http://www.w3.org/2000/svg"viewBox="0 0 500 220"><g><path fill="#4a4a4a" opacity="1.00" d=" M 68.19 21.15 C 93.90 15.59 122.38 30.46 132.11 54.96 C 139.91 72.54 137.45 94.19 125.43 109.28 C 155.82 125.83 166.23 169.56 146.64 198.04 C 141.15 199.11 135.44 198.20 129.87 198.47 C 142.29 183.22 145.99 161.16 137.95 143.04 C 131.03 127.19 115.93 116.13 99.61 111.41 C 90.03 108.95 80.42 106.61 70.85 104.14 C 58.64 100.92 49.42 88.65 50.12 75.97 C 50.09 64.18 58.47 53.24 69.60 49.63 C 83.33 44.62 99.85 52.30 105.17 65.84 C 109.57 75.30 107.15 86.48 101.16 94.66 C 99.20 93.19 97.25 91.72 95.27 90.29 C 96.68 96.35 98.41 102.34 100.01 108.36 C 106.28 108.34 112.55 108.28 118.83 108.20 C 117.26 106.87 115.69 105.55 114.13 104.22 C 123.22 92.10 126.04 75.57 120.75 61.29 C 113.94 41.98 92.81 29.48 72.60 32.58 C 53.10 34.89 36.23 51.51 34.35 71.17 C 31.52 90.00 42.62 109.72 60.11 117.19 C 36.42 130.87 26.65 163.01 38.95 187.49 C 36.25 188.99 33.56 190.51 30.88 192.04 C 39.04 193.35 47.23 194.52 55.39 195.87 C 58.88 188.32 61.98 180.61 65.31 173.00 C 62.08 174.68 58.93 176.52 55.69 178.20 C 49.91 164.72 53.04 147.94 64.09 138.10 C 73.55 129.36 87.95 126.31 100.03 131.01 C 113.48 135.81 123.56 149.55 122.79 164.02 C 123.69 182.49 106.50 199.64 88.00 198.51 C 65.90 198.44 43.80 198.51 21.69 198.48 C 21.70 157.65 21.65 116.83 21.72 76.01 C 21.94 49.86 42.40 25.61 68.19 21.15 Z"/><path fill="#4a4a4a" opacity="1.00" d=" M 166.61 67.91 C 166.98 61.53 177.56 60.67 178.46 67.18 C 178.98 77.33 178.48 87.51 178.66 97.67 C 190.28 88.53 207.97 88.01 219.49 97.57 C 230.31 105.67 234.58 120.69 230.47 133.44 C 225.73 148.90 208.58 158.77 192.81 155.25 C 177.83 152.64 166.19 138.15 166.49 123.00 C 166.58 104.64 166.32 86.26 166.61 67.91 M 194.35 103.47 C 183.47 105.96 175.77 118.65 179.73 129.35 C 182.45 137.88 191.00 144.19 200.03 143.66 C 211.72 143.54 221.62 131.90 219.62 120.32 C 218.13 108.79 205.62 100.23 194.35 103.47 Z"/><path fill="#4a4a4a" opacity="1.00" d=" M 305.50 68.14 C 305.82 61.90 315.28 60.59 317.20 66.65 C 318.12 76.59 317.32 86.65 317.56 96.64 C 322.74 93.21 328.67 90.58 335.00 90.70 C 350.67 90.00 365.49 103.25 366.30 118.97 C 366.59 127.97 366.28 136.99 366.45 146.00 C 366.39 149.04 366.78 152.99 363.75 154.82 C 360.45 157.25 354.68 155.18 354.40 150.90 C 353.93 140.59 354.61 130.25 354.13 119.94 C 353.64 110.81 345.26 102.70 336.00 103.12 C 326.62 102.58 318.27 110.81 317.68 119.97 C 317.27 130.26 317.92 140.57 317.43 150.85 C 317.09 155.44 310.81 157.45 307.55 154.44 C 305.28 152.71 305.40 149.60 305.37 147.04 C 305.52 120.74 305.26 94.43 305.50 68.14 Z"/><path fill="#4a4a4a" opacity="1.00" d=" M 448.46 67.16 C 449.57 61.32 458.88 61.13 460.09 67.05 C 460.80 74.87 460.16 82.77 460.37 90.62 C 463.54 90.66 466.75 90.37 469.89 90.97 C 474.63 92.79 474.87 100.11 470.34 102.33 C 467.09 103.10 463.70 102.71 460.39 102.78 C 460.37 112.21 460.36 121.63 460.36 131.06 C 460.35 134.65 460.87 138.75 463.84 141.17 C 467.18 144.20 472.28 142.83 475.93 145.11 C 479.81 147.88 478.39 154.66 473.71 155.60 C 467.08 156.29 459.68 154.99 454.60 150.38 C 449.95 145.95 448.21 139.30 448.26 133.05 C 448.21 123.05 448.30 113.05 448.23 103.05 C 444.37 103.20 439.40 101.75 439.51 97.01 C 438.93 92.04 444.21 90.16 448.25 90.35 C 448.43 82.63 447.91 74.87 448.46 67.16 Z"/><path fill="#4a4a4a" opacity="1.00" d=" M 236.16 123.01 C 235.62 105.64 251.63 89.83 269.00 90.62 C 286.48 90.16 302.24 106.18 301.51 123.64 C 301.41 126.93 298.32 129.55 295.07 129.28 C 279.69 129.46 264.30 129.16 248.92 129.42 C 252.21 138.76 262.10 145.15 272.01 143.43 C 276.94 142.98 280.61 139.40 284.99 137.57 C 290.45 136.41 293.83 143.56 290.53 147.52 C 281.92 156.03 268.25 157.76 257.10 153.88 C 244.73 149.17 235.57 136.39 236.16 123.01 M 248.97 117.20 C 262.14 117.27 275.31 117.33 288.48 117.17 C 286.21 111.08 281.42 105.68 275.04 103.87 C 264.53 100.21 252.24 106.62 248.97 117.20 Z"/><path fill="#4a4a4a" opacity="1.00" d=" M 371.31 115.35 C 374.55 100.83 389.08 89.69 403.99 90.63 C 420.55 90.63 435.52 105.32 435.64 121.93 C 435.46 132.03 436.31 142.26 435.22 152.30 C 432.47 158.60 423.00 155.63 423.08 149.10 C 411.71 157.95 394.19 158.30 382.95 149.06 C 372.73 141.44 368.17 127.64 371.31 115.35 M 398.34 103.38 C 387.06 105.66 379.69 118.58 383.51 129.46 C 386.49 139.80 398.60 146.18 408.83 142.81 C 418.70 140.05 425.50 129.13 423.03 119.06 C 420.93 108.27 409.07 100.49 398.34 103.38 Z"/></g></svg>
