<svg xmlns="http://www.w3.org/2000/svg"viewBox="14 12.5 368 413"><g><path fill="#ffffff" opacity="1.00" d=" M 131.98 115.95 C 160.41 97.52 196.67 91.97 229.38 100.72 C 260.58 108.86 288.39 129.77 304.31 157.88 C 286.73 168.20 269.06 178.37 251.36 188.48 C 242.37 174.24 228.19 163.15 211.58 159.54 C 188.69 153.98 163.26 163.50 149.31 182.39 C 134.50 201.35 132.95 229.24 145.38 249.81 C 154.63 265.53 171.13 276.77 189.22 279.33 C 213.43 283.22 238.99 270.63 251.12 249.41 C 268.94 259.52 286.68 269.78 304.36 280.13 C 288.47 307.94 261.10 328.80 230.19 337.06 C 199.15 345.57 164.80 341.24 136.94 325.08 C 118.42 314.43 102.74 298.88 92.02 280.39 C 76.21 253.66 71.54 220.77 78.77 190.61 C 85.95 160.08 105.51 132.75 131.98 115.95 Z"/><path fill="#ffffff" opacity="1.00" d=" M 293.25 198.51 C 297.83 198.49 302.41 198.50 307.00 198.51 C 307.00 203.00 307.00 207.50 307.00 212.00 C 311.58 212.00 316.17 212.00 320.75 212.00 C 320.74 216.67 320.74 221.33 320.75 226.00 C 316.17 226.00 311.58 226.00 307.00 226.00 C 307.00 230.50 307.00 234.99 307.00 239.49 C 302.41 239.50 297.83 239.50 293.25 239.49 C 293.25 234.99 293.25 230.50 293.25 226.00 C 288.75 226.00 284.25 226.00 279.76 226.00 C 279.75 221.33 279.75 216.67 279.76 212.00 C 284.25 212.00 288.75 212.00 293.25 212.00 C 293.25 207.50 293.25 203.01 293.25 198.51 Z"/><path fill="#ffffff" opacity="1.00" d=" M 344.25 198.51 C 348.91 198.50 353.58 198.50 358.24 198.51 C 358.25 203.00 358.25 207.50 358.24 212.00 C 362.74 212.00 367.25 212.00 371.75 212.00 C 371.74 216.67 371.74 221.33 371.75 226.00 C 367.25 226.00 362.74 226.00 358.24 226.00 C 358.25 230.50 358.25 234.99 358.24 239.49 C 353.58 239.50 348.91 239.50 344.25 239.49 C 344.25 234.99 344.25 230.50 344.25 226.00 C 339.75 226.00 335.25 226.00 330.76 226.00 C 330.75 221.33 330.75 216.67 330.76 212.00 C 335.25 212.00 339.75 212.00 344.25 212.00 C 344.25 207.50 344.25 203.01 344.25 198.51 Z"/></g><g><path fill="#659ad2" opacity="1.00" d=" M 182.26 16.24 C 193.02 10.68 206.87 11.33 217.01 17.99 C 266.71 46.66 316.44 75.28 366.17 103.91 C 370.85 106.70 374.45 110.96 377.29 115.56 C 353.01 129.75 328.39 143.38 304.31 157.88 C 288.39 129.77 260.58 108.86 229.38 100.72 C 196.67 91.97 160.41 97.52 131.98 115.95 C 105.51 132.75 85.95 160.08 78.77 190.61 C 71.54 220.77 76.21 253.66 92.02 280.39 C 67.56 294.25 43.29 308.44 18.89 322.40 C 16.33 317.66 14.29 312.48 14.25 307.03 C 14.23 249.35 14.28 191.68 14.23 134.00 C 13.64 122.16 20.07 110.29 30.01 103.94 C 80.76 74.70 131.52 45.48 182.26 16.24 Z"/><path fill="#659ad2" opacity="1.00" d=" M 149.31 182.39 C 163.26 163.50 188.69 153.98 211.58 159.54 C 228.19 163.15 242.37 174.24 251.36 188.48 C 233.42 198.12 215.85 208.49 198.33 218.88 C 180.88 229.52 162.77 239.08 145.38 249.81 C 132.95 229.24 134.50 201.35 149.31 182.39 Z"/></g><g><path fill="#03599c" opacity="1.00" d=" M 304.31 157.88 C 328.39 143.38 353.01 129.75 377.29 115.56 C 379.82 120.32 381.89 125.51 382.00 130.97 C 382.00 189.66 382.00 248.35 381.99 307.04 C 381.89 312.48 379.84 317.65 377.31 322.38 C 353.00 308.29 328.44 294.60 304.36 280.13 C 286.68 269.78 268.94 259.52 251.12 249.41 C 233.35 239.57 215.60 229.56 198.33 218.88 C 215.85 208.49 233.42 198.12 251.36 188.48 C 269.06 178.37 286.73 168.20 304.31 157.88 M 293.25 198.51 C 293.25 203.01 293.25 207.50 293.25 212.00 C 288.75 212.00 284.25 212.00 279.76 212.00 C 279.75 216.67 279.75 221.33 279.76 226.00 C 284.25 226.00 288.75 226.00 293.25 226.00 C 293.25 230.50 293.25 234.99 293.25 239.49 C 297.83 239.50 302.41 239.50 307.00 239.49 C 307.00 234.99 307.00 230.50 307.00 226.00 C 311.58 226.00 316.17 226.00 320.75 226.00 C 320.74 221.33 320.74 216.67 320.75 212.00 C 316.17 212.00 311.58 212.00 307.00 212.00 C 307.00 207.50 307.00 203.00 307.00 198.51 C 302.41 198.50 297.83 198.49 293.25 198.51 M 344.25 198.51 C 344.25 203.01 344.25 207.50 344.25 212.00 C 339.75 212.00 335.25 212.00 330.76 212.00 C 330.75 216.67 330.75 221.33 330.76 226.00 C 335.25 226.00 339.75 226.00 344.25 226.00 C 344.25 230.50 344.25 234.99 344.25 239.49 C 348.91 239.50 353.58 239.50 358.24 239.49 C 358.25 234.99 358.25 230.50 358.24 226.00 C 362.74 226.00 367.25 226.00 371.75 226.00 C 371.74 221.33 371.74 216.67 371.75 212.00 C 367.25 212.00 362.74 212.00 358.24 212.00 C 358.25 207.50 358.25 203.00 358.24 198.51 C 353.58 198.50 348.91 198.50 344.25 198.51 Z"/></g><g><path fill="#034482" opacity="1.00" d=" M 145.38 249.81 C 162.77 239.08 180.88 229.52 198.33 218.88 C 215.60 229.56 233.35 239.57 251.12 249.41 C 238.99 270.63 213.43 283.22 189.22 279.33 C 171.13 276.77 154.63 265.53 145.38 249.81 Z"/><path fill="#034482" opacity="1.00" d=" M 18.89 322.40 C 43.29 308.44 67.56 294.25 92.02 280.39 C 102.74 298.88 118.42 314.43 136.94 325.08 C 164.80 341.24 199.15 345.57 230.19 337.06 C 261.10 328.80 288.47 307.94 304.36 280.13 C 328.44 294.60 353.00 308.29 377.31 322.38 C 374.45 326.98 370.89 331.31 366.17 334.09 C 316.45 362.73 266.72 391.34 217.01 420.01 C 205.82 427.38 190.20 427.32 179.04 419.91 C 129.36 391.28 79.67 362.67 29.98 334.05 C 25.31 331.26 21.72 326.98 18.89 322.40 Z"/></g></svg>
