<svg xmlns="http://www.w3.org/2000/svg"viewBox="74 110.5 352 279"><path d="M259.176 113.806c-6.245 1.837-20.203 8.079-31.222 14.325-25.347 14.326-42.978 17.63-52.896 10.284-6.246-5.14-6.611-6.242-1.836-9.548 2.938-2.203 11.754-3.308 19.101-2.938 7.712 0.365 13.957-0.735 13.957-2.572 0.365-6.611-35.263-6.611-41.874 0-13.591 13.957-0.367 27.914 28.649 30.486 16.896 1.471 23.878-0.366 49.22-11.755 33.059-15.059 58.035-19.832 70.16-13.588 9.181 5.14 10.283 13.222 1.836 16.529-10.652 4.039-29.754 2.202-34.527-2.941-4.776-6.241-14.693-3.673-14.693 3.673 0 15.063 55.833 17.265 70.155 2.572 23.144-22.775-27.915-45.915-76.030-34.528z" fill="#000000"></path><path d="M94.205 138.049c-30.118 16.163-1.101 38.202 64.647 49.222 83.38 13.957 214.513 3.673 249.772-19.471 11.387-7.346 12.12-22.404 1.837-27.914-6.246-3.307-7.346-2.938-7.346 3.308 0 20.203-58.404 33.425-149.128 33.425-99.91 0-157.21-14.327-149.864-37.833 2.203-7.347 2.203-7.347-9.919-0.736z" fill="#000000"></path><path d="M94.363 193.882c1.469 5.51 4.774 17.63 7.346 26.447 4.774 15.794 4.407 16.16-8.081 29.015-28.282 29.386-25.712 69.789 6.612 93.666 11.020 8.081 41.139 9.918 48.117 2.938 2.938-2.938 1.836-4.039-4.040-4.039-9.55 0-31.956-19.102-39.671-33.425-7.346-14.694-6.611-37.466 1.836-47.75l6.979-8.816 3.674 9.184c2.204 5.143 13.224 23.509 24.978 40.401 11.753 17.267 23.875 38.571 27.181 47.751 5.51 14.329 9.183 18 27.549 27.551 18 8.816 26.813 11.020 54.732 12.12 54.36 2.57 93.663-13.592 99.541-40.034 1.47-6.247 12.854-26.447 25.344-44.814 23.507-34.895 34.159-56.198 44.079-90.36 8.813-30.117 8.446-30.486-13.592-20.568-33.059 15.058-85.953 21.304-163.824 19.102-79.706-2.206-109.091-7.716-148.393-27.549-1.469-0.736-1.835 3.303-0.366 9.183z" fill="#000000"></path></svg>
