<svg xmlns="http://www.w3.org/2000/svg"viewBox="21 21 174.5 174.5"><path fill="#d6180a" opacity="1.00" d=" M 63.39 48.46 C 105.02 30.35 150.58 23.66 195.55 20.51 C 192.89 64.79 185.77 109.47 168.50 150.58 C 155.77 180.52 122.10 198.92 90.03 195.12 C 57.28 192.25 28.34 166.19 22.09 133.92 C 14.58 100.46 31.88 62.81 63.39 48.46 M 93.44 107.75 C 85.07 100.62 77.59 91.92 67.46 87.24 C 71.91 97.55 80.82 105.02 87.97 113.43 C 75.63 114.12 62.86 113.54 50.99 117.47 C 62.39 122.67 75.69 121.07 87.95 122.11 C 80.72 130.45 71.95 138.03 67.43 148.29 C 77.48 143.45 85.16 135.03 93.39 127.70 C 94.50 140.03 93.19 153.10 97.94 164.76 C 102.31 153.03 101.35 140.13 102.24 127.82 C 110.66 134.92 118.17 143.63 128.34 148.27 C 123.77 138.04 115.03 130.46 107.79 122.12 C 120.06 121.05 133.34 122.64 144.77 117.48 C 132.89 113.51 120.10 114.12 107.75 113.44 C 114.95 105.01 123.71 97.44 128.41 87.22 C 118.17 91.84 110.64 100.62 102.22 107.80 C 101.31 95.45 102.32 82.51 97.94 70.73 C 93.18 82.38 94.56 95.44 93.44 107.75 Z"/></svg>
