<svg xmlns="http://www.w3.org/2000/svg"viewBox="29.5 11.5 94 123"><g><path fill="#fd8439" opacity="1.00" d=" M 49.68 25.98 C 46.83 15.96 59.95 7.35 67.98 13.91 C 82.48 27.76 96.43 42.21 110.77 56.23 C 125.86 71.78 127.39 98.06 114.28 115.29 C 103.35 130.53 82.82 137.89 64.71 132.90 C 45.41 128.16 30.51 109.94 29.86 90.05 C 28.48 68.85 43.61 48.29 64.10 42.94 C 59.41 37.24 52.06 33.25 49.68 25.98 M 63.41 65.67 C 67.01 71.32 72.76 75.27 77.13 80.33 C 69.09 80.44 61.05 80.28 53.02 80.38 C 48.42 80.21 44.11 84.35 44.38 89.00 C 44.29 93.53 48.43 97.55 52.95 97.36 C 61.02 97.48 69.10 97.29 77.18 97.42 C 72.82 102.29 67.46 106.29 63.64 111.60 C 59.56 119.00 69.61 127.39 76.18 122.24 C 85.53 113.59 94.29 104.28 103.42 95.38 C 107.25 92.14 107.36 85.79 103.53 82.51 C 94.42 73.59 85.61 64.35 76.33 55.62 C 69.98 50.44 59.91 58.19 63.41 65.67 Z"/></g><g><path fill="#ffffff" opacity="1.00" d=" M 63.41 65.67 C 59.91 58.19 69.98 50.44 76.33 55.62 C 85.61 64.35 94.42 73.59 103.53 82.51 C 107.36 85.79 107.25 92.14 103.42 95.38 C 94.29 104.28 85.53 113.59 76.18 122.24 C 69.61 127.39 59.56 119.00 63.64 111.60 C 67.46 106.29 72.82 102.29 77.18 97.42 C 69.10 97.29 61.02 97.48 52.95 97.36 C 48.43 97.55 44.29 93.53 44.38 89.00 C 44.11 84.35 48.42 80.21 53.02 80.38 C 61.05 80.28 69.09 80.44 77.13 80.33 C 72.76 75.27 67.01 71.32 63.41 65.67 Z"/></g></svg>
