<svg xmlns="http://www.w3.org/2000/svg"viewBox="0 4 108.5 102.5" xmlns:inkscape="http://www.inkscape.org/namespaces/inkscape"><path d="M 30.054,69.273005 H 13.31 c 2.217,7.605 6.331,14.421 12.354,20.445 9.602,9.603004 21.148,14.398005 34.65,14.398005 2.699,0 5.314,-0.201 7.854,-0.584 10.17,-1.535 19.074,-6.133005 26.703,-13.814005 6.062,-6.022 10.205,-12.84 12.439,-20.445 h -6.795 -9.936 -60.525 z" inkscape:connector-curvature="0" style="fill:#2c2255"/><g transform="translate(-71.07,-323.66299)"><path d="m 91.891,370.194 h -8.747 c -0.32,1.922 -0.538,3.884 -0.637,5.896 h 10.396 5.215 75.275 6.871 c -0.1,-2.012 -0.318,-3.974 -0.641,-5.896" inkscape:connector-curvature="0" style="fill:#2c2255"/><path d="m 82.507,381.565 c 0.099,2.013 0.316,3.975 0.637,5.896 h 9.094 6.893 73.648 6.846 c 0.322,-1.921 0.542,-3.883 0.642,-5.896" inkscape:connector-curvature="0" style="fill:#2c2255"/></g><path d="m 107.312,41.055005 c -2.232,-7.626 -6.376,-14.474 -12.441,-20.54 -7.609,-7.609 -16.488,-12.1739999 -26.625,-13.7099999 -2.564,-0.389 -5.205,-0.593 -7.932,-0.593 -13.502,0 -25.049,4.7689999 -34.65,14.3029999 -6.025,6.066 -10.141,12.914 -12.357,20.54" inkscape:connector-curvature="0" style="fill:#2c2255"/><g transform="translate(-71.07,-323.66299)"><path d="m 79.6,378.829 c 0,-25.824 19.395,-47.281 44.626,-51.055 -0.626,-0.023 -1.255,-0.048 -1.887,-0.048 -28.314,0 -51.269,22.88 -51.269,51.103 0,28.224 22.954,51.103 51.269,51.103 0.634,0 1.263,-0.024 1.891,-0.047 C 98.995,426.111 79.6,404.654 79.6,378.829 z" inkscape:connector-curvature="0" style="fill:#f7941e"/></g></svg>