<svg xmlns="http://www.w3.org/2000/svg"viewBox="30 0 383 141"><g><path fill="#3b4854" opacity="1.00" d=" M 43.02 42.01 C 52.96 34.35 68.67 35.51 77.11 44.90 C 83.26 51.52 85.03 60.88 85.08 69.64 C 67.84 69.65 50.60 69.62 33.35 69.66 C 33.73 79.34 36.13 90.58 45.17 95.87 C 55.92 101.74 71.98 99.58 78.53 88.46 C 80.84 85.08 80.41 80.09 84.22 77.78 C 83.77 83.81 81.54 89.87 77.09 94.09 C 69.05 101.89 56.18 103.07 46.07 99.08 C 36.35 94.95 31.98 84.02 31.27 74.11 C 30.05 62.46 33.34 49.39 43.02 42.01 M 42.49 45.52 C 36.51 51.09 34.09 59.31 33.34 67.22 C 49.78 67.24 66.23 67.25 82.67 67.22 C 82.33 59.86 80.58 52.13 75.45 46.56 C 67.23 37.33 51.31 36.92 42.49 45.52 Z"/><path fill="#3b4854" opacity="1.00" d=" M 159.76 41.73 C 170.54 33.58 187.99 35.98 195.32 47.65 C 203.42 60.46 203.19 78.28 194.91 90.96 C 186.63 103.62 166.31 104.75 156.19 93.79 C 153.18 90.67 151.55 86.58 150.00 82.61 C 150.00 95.45 150.00 108.29 150.00 121.13 C 149.40 121.11 148.20 121.09 147.60 121.08 C 147.59 93.53 147.61 65.98 147.58 38.43 C 148.17 38.36 149.35 38.23 149.94 38.17 C 150.04 44.06 149.99 49.95 150.00 55.84 C 152.05 50.45 154.98 45.16 159.76 41.73 M 168.34 40.27 C 148.24 46.64 145.08 75.24 156.38 90.60 C 165.08 101.84 184.83 101.95 192.80 89.80 C 201.15 77.10 201.07 58.53 191.44 46.53 C 185.93 39.97 176.38 37.99 168.34 40.27 Z"/><path fill="#3b4854" opacity="1.00" d=" M 215.99 53.79 C 218.45 42.71 229.58 36.20 240.47 36.79 C 240.47 37.39 240.48 38.59 240.48 39.19 C 228.58 38.11 217.80 47.48 216.57 59.22 C 215.33 72.76 216.31 86.41 216.00 100.00 C 215.40 100.00 214.20 100.00 213.60 100.00 C 213.59 79.47 213.61 58.95 213.58 38.43 C 214.17 38.36 215.35 38.23 215.94 38.17 C 216.03 43.37 216.00 48.58 215.99 53.79 Z"/><path fill="#3b4854" opacity="1.00" d=" M 255.02 42.01 C 264.96 34.35 280.67 35.51 289.11 44.90 C 295.26 51.52 297.03 60.88 297.08 69.64 C 279.84 69.65 262.60 69.62 245.35 69.66 C 245.73 79.33 248.13 90.58 257.16 95.86 C 267.91 101.74 283.98 99.59 290.52 88.46 C 292.84 85.07 292.41 80.09 296.22 77.78 C 295.77 84.04 293.33 90.34 288.58 94.58 C 280.69 101.79 268.57 102.87 258.78 99.38 C 248.96 95.64 244.22 84.91 243.36 75.06 C 241.91 63.13 245.07 49.60 255.02 42.01 M 254.49 45.52 C 248.51 51.09 246.09 59.32 245.34 67.22 C 261.78 67.24 278.23 67.25 294.67 67.22 C 294.33 59.86 292.58 52.13 287.45 46.56 C 279.23 37.33 263.30 36.92 254.49 45.52 Z"/><path fill="#3b4854" opacity="1.00" d=" M 314.01 41.04 C 321.80 35.78 332.35 35.87 340.91 39.12 C 348.26 41.80 352.21 50.21 350.62 57.70 C 347.43 53.60 348.44 47.37 344.00 44.00 C 336.79 38.14 325.92 38.09 317.64 41.60 C 309.72 44.73 307.65 57.13 315.04 61.89 C 325.26 67.35 337.75 67.00 347.59 73.33 C 355.95 79.26 353.81 93.50 344.94 97.90 C 335.81 102.63 324.23 102.36 315.03 97.99 C 307.79 94.32 305.29 85.61 305.73 78.02 C 309.01 79.72 308.02 83.90 309.21 86.86 C 311.02 93.90 318.21 97.90 325.03 98.64 C 332.61 99.47 341.46 98.87 347.09 93.08 C 352.29 87.86 351.33 77.88 344.65 74.33 C 334.69 68.79 322.32 69.53 312.62 63.34 C 305.75 57.90 306.79 45.79 314.01 41.04 Z"/><path fill="#3b4854" opacity="1.00" d=" M 372.01 41.04 C 379.80 35.78 390.36 35.87 398.92 39.12 C 406.26 41.80 410.21 50.21 408.62 57.70 C 405.43 53.60 406.44 47.37 402.00 44.00 C 394.78 38.13 383.91 38.10 375.63 41.60 C 367.72 44.75 365.66 57.13 373.04 61.89 C 383.25 67.35 395.75 67.00 405.59 73.33 C 413.96 79.26 411.80 93.50 402.93 97.91 C 393.81 102.62 382.24 102.36 373.04 97.99 C 365.79 94.32 363.29 85.61 363.73 78.02 C 367.01 79.72 366.02 83.90 367.21 86.86 C 369.02 93.90 376.20 97.90 383.03 98.64 C 390.61 99.47 399.46 98.87 405.09 93.08 C 410.29 87.87 409.33 77.89 402.65 74.34 C 392.69 68.79 380.31 69.53 370.62 63.34 C 363.75 57.90 364.79 45.78 372.01 41.04 Z"/><path fill="#3b4854" opacity="1.00" d=" M 90.48 38.32 C 91.27 38.33 92.85 38.34 93.65 38.35 C 100.51 47.67 107.44 56.96 114.36 66.25 C 121.43 56.99 128.50 47.72 135.49 38.40 C 136.24 38.37 137.74 38.30 138.49 38.27 C 131.02 48.24 123.43 58.12 115.93 68.07 C 124.15 78.75 132.44 89.36 140.65 100.05 C 139.85 100.00 138.25 99.91 137.45 99.86 C 129.85 89.80 122.04 79.89 114.37 69.89 C 107.16 79.19 100.03 88.55 92.86 97.89 C 91.83 99.50 89.92 99.95 88.25 100.57 C 96.02 89.41 104.75 78.96 112.91 68.08 C 105.44 58.16 97.95 48.25 90.48 38.32 Z"/></g></svg>
