<svg xmlns="http://www.w3.org/2000/svg"viewBox="74 0 365 512"><polygon fill="#E44D26" points="107.6,470.9 74.6,100.6 437.4,100.6 404.3,470.8 255.8,512"/><polygon fill="#F16529" points="256,480.5 376,447.2 404.3,130.9 256,130.9"/><polygon fill="#EBEBEB" points="256,268.2 195.9,268.2 191.8,221.7 256,221.7 256,176.3 255.8,176.3 142.1,176.3 143.2,188.5 154.4,313.6 256,313.6"/><polygon fill="#EBEBEB" points="256,386.2 255.8,386.2 205.2,372.6 202,336.3 177.4,336.3 156.4,336.3 162.8,407.6 255.8,433.5 256,433.4"/><path d="M108.382 0h23.077v22.8h21.11V0h23.078v69.044H152.57v-23.12h-21.11v23.12h-23.077V0z"/><path d="M205.994 22.896h-20.316V0h63.72v22.896h-20.325v46.148h-23.078V22.896z"/><path d="M259.511 0h24.063l14.802 24.26L313.163 0h24.072v69.044h-22.982V34.822l-15.877 24.549h-0.397l-15.888-24.549v34.222h-22.58V0z"/><path d="M348.72 0h23.084v46.222h32.453v22.822H348.72V0z"/><polygon fill="#FFFFFF" points="255.8,268.2 255.8,313.6 311.8,313.6 306.5,372.5 255.8,386.2 255.8,433.4 348.9,407.6 349.6,400 360.3,280.4 361.4,268.2 349.2,268.2"/><polygon fill="#FFFFFF" points="255.8,176.3 255.8,204.5 255.8,221.6 255.8,221.7 365.4,221.7 365.4,221.7 365.5,221.7 366.4,211.5 368.5,188.5 369.6,176.3"/></svg>
