<svg xmlns="http://www.w3.org/2000/svg"viewBox="10 0 195 110">
<g><path fill="#000000" opacity="1.00" d=" M 131.54 10.00 C 136.60 10.00 141.67 10.00 146.73 10.01 C 146.72 33.34 146.72 56.66 146.73 79.99 C 141.64 80.00 136.55 80.01 131.47 79.99 C 131.54 78.40 131.63 76.81 131.73 75.22 C 124.07 83.54 109.99 82.45 102.42 74.59 C 94.09 66.73 93.46 52.36 100.43 43.44 C 107.56 33.80 122.95 31.99 131.64 40.56 C 131.42 30.38 131.58 20.19 131.54 10.00 M 119.28 48.26 C 114.60 49.38 111.08 54.17 111.71 59.00 C 112.10 64.45 117.58 68.74 122.96 67.99 C 128.32 67.63 132.62 62.39 131.94 57.06 C 131.62 51.01 125.04 46.57 119.28 48.26 Z" />
<path fill="#000000" opacity="1.00" d=" M 17.35 11.38 C 23.34 9.17 30.15 15.14 28.45 21.35 C 27.40 27.34 19.44 30.06 14.79 26.28 C 9.35 22.61 10.91 12.97 17.35 11.38 Z" />
<path fill="#000000" opacity="1.00" d=" M 42.19 42.25 C 49.54 33.66 63.79 32.41 72.02 40.47 C 72.01 38.98 72.00 37.48 72.00 35.99 C 77.08 36.00 82.15 36.00 87.23 36.00 C 87.24 50.67 87.24 65.33 87.23 80.00 C 82.15 80.00 77.07 80.00 71.98 80.00 C 72.00 78.42 72.02 76.84 72.05 75.26 C 65.15 83.00 52.49 82.56 44.89 76.12 C 34.69 68.30 33.70 51.65 42.19 42.25 M 59.31 49.39 C 53.70 50.73 50.21 58.14 54.08 62.89 C 58.40 69.46 70.26 67.95 72.19 60.11 C 74.24 52.98 65.80 47.03 59.31 49.39 Z"/><path fill="#000000" opacity="1.00" d=" M 166.17 38.14 C 174.90 33.68 186.46 33.60 194.58 39.45 C 201.51 44.65 203.57 53.74 203.63 61.96 C 192.59 62.10 181.55 61.85 170.52 62.11 C 170.83 71.52 183.18 73.91 188.52 67.06 C 193.36 66.97 198.21 66.95 203.05 67.12 C 197.94 82.07 177.91 84.30 165.65 77.31 C 151.85 69.14 152.18 45.94 166.17 38.14 M 171.05 53.86 C 177.17 54.08 183.30 54.03 189.43 53.93 C 188.07 49.96 185.95 44.90 180.95 44.98 C 175.52 44.26 172.37 49.36 171.05 53.86 Z"/><path fill="#000000" opacity="1.00" d=" M 12.27 36.01 C 17.33 36.00 22.40 36.00 27.46 36.00 C 27.47 58.00 27.47 80.00 27.46 102.00 C 22.40 102.00 17.33 102.00 12.27 101.99 C 12.28 80.00 12.28 58.00 12.27 36.01 Z"/>
</g>
</svg>
