<svg viewBox="190 202 640 620" xmlns="http://www.w3.org/2000/svg"><path fill="#28536C" opacity="1.00" d=" M 553.39 233.40 C 559.96 223.26 567.45 213.74 574.45 203.90 C 563.52 223.62 559.10 246.69 561.38 269.08 C 564.44 300.41 578.82 329.95 599.25 353.64 C 620.91 378.89 650.48 397.10 682.61 405.61 C 702.62 410.51 723.42 413.18 743.99 411.02 C 760.27 409.32 776.37 404.21 789.98 394.99 C 799.43 388.69 807.47 380.45 814.16 371.31 C 807.00 384.31 799.26 397.16 789.01 408.00 C 775.23 422.95 757.49 434.22 738.02 440.15 C 711.82 448.24 683.65 447.35 657.00 442.01 C 623.17 432.87 592.32 413.02 570.05 385.96 C 550.58 362.32 537.48 332.81 536.04 302.00 C 534.79 278.09 540.80 253.80 553.39 233.40 Z"/><path fill="#28536C" opacity="1.00" d=" M 412.86 273.80 C 422.52 260.17 432.16 246.53 441.81 232.90 C 424.17 262.94 416.32 298.25 417.85 332.95 C 419.35 370.90 431.93 407.97 451.81 440.18 C 485.53 494.74 539.59 536.34 600.96 555.00 C 642.73 567.94 688.27 570.16 730.58 558.38 C 771.09 547.31 808.21 522.63 832.11 487.86 C 822.74 514.60 806.84 538.88 787.17 559.18 C 763.13 583.96 732.36 601.93 699.20 611.39 C 657.35 623.45 612.79 622.94 570.14 615.60 C 535.71 606.17 503.02 590.14 474.89 568.09 C 462.68 558.74 451.50 548.14 441.00 536.92 C 433.25 529.90 427.31 521.23 421.41 512.68 C 403.39 487.25 389.59 458.59 382.90 428.06 C 373.43 386.09 376.64 340.59 395.75 301.70 C 400.49 291.84 406.42 282.62 412.86 273.80 Z"/><path fill="#28536C" opacity="1.00" d=" M 232.64 348.59 C 247.34 329.85 262.11 311.16 276.89 292.49 C 259.97 325.01 250.96 361.45 249.73 398.05 C 248.10 445.29 258.87 492.58 278.72 535.35 C 305.38 592.63 348.46 641.67 400.10 677.78 C 430.91 699.27 464.97 716.12 500.80 727.41 C 514.23 731.89 528.08 734.85 542.03 737.14 C 583.84 744.06 626.96 744.46 668.61 736.19 C 701.63 729.64 733.71 717.41 761.87 698.83 C 782.79 685.08 801.37 667.81 816.63 647.97 C 805.13 675.43 788.40 700.53 768.81 722.88 C 746.77 747.89 720.36 769.09 690.99 784.90 C 662.07 800.52 630.38 810.80 597.95 815.96 C 552.71 823.17 506.33 820.81 461.43 812.39 C 424.01 802.30 388.10 786.50 355.56 765.41 C 300.82 730.07 255.08 680.39 226.06 621.93 C 209.41 588.49 198.14 552.26 193.85 515.12 C 190.57 486.50 191.53 457.30 197.69 429.12 C 203.95 400.35 215.72 372.71 232.64 348.59 Z"/></svg>
