<svg xmlns="http://www.w3.org/2000/svg"viewBox="12 12 625 625"><g><path fill="#ffffff" opacity="1.00" d=" M 260.38 95.29 C 281.88 73.69 303.65 52.34 324.93 30.52 C 422.97 128.66 521.06 226.75 619.19 324.79 C 617.72 326.79 615.95 328.53 614.22 330.30 C 517.71 426.55 421.63 523.23 324.94 619.29 C 324.10 618.43 323.26 617.59 322.43 616.75 C 225.05 519.56 127.97 422.07 30.47 324.99 C 58.45 297.53 85.96 269.59 113.74 241.93 C 162.64 193.07 211.52 144.19 260.38 95.29 M 291.05 213.16 C 273.76 216.96 258.29 229.47 252.59 246.46 C 247.33 262.71 248.27 281.82 257.69 296.41 C 268.78 312.72 288.24 319.29 305.19 327.59 C 313.67 331.54 322.31 336.84 326.68 345.45 C 331.33 355.13 330.18 367.71 322.61 375.60 C 315.56 382.30 305.41 384.58 295.93 384.00 C 291.30 384.13 286.91 381.57 282.29 382.64 C 282.61 382.35 283.25 381.76 283.57 381.47 C 272.19 376.94 263.31 366.69 261.26 354.50 C 259.63 354.52 258.00 354.54 256.38 354.56 C 253.84 366.04 250.59 377.35 248.23 388.87 C 267.09 400.64 290.53 402.67 311.99 398.40 C 327.84 395.24 343.24 387.11 352.83 373.80 C 368.04 352.93 365.32 320.58 345.51 303.52 C 329.40 288.30 306.81 283.11 289.90 269.12 C 279.08 260.72 278.17 242.61 288.46 233.47 C 305.64 220.23 335.96 227.69 340.94 250.14 C 342.35 250.18 343.75 250.23 345.16 250.28 C 347.97 241.21 351.15 232.26 353.68 223.10 C 335.78 210.23 312.04 208.35 291.05 213.16 M 196.13 218.98 C 195.85 271.98 196.09 325.00 196.01 378.00 C 195.97 393.33 196.33 410.28 186.76 423.19 C 186.37 422.69 185.59 421.70 185.19 421.20 C 185.57 422.06 185.95 422.92 186.32 423.78 C 182.15 427.08 177.50 429.70 172.77 432.09 C 173.94 436.27 175.29 440.40 176.46 444.58 C 181.71 443.71 186.89 442.46 191.99 440.95 L 191.34 441.73 C 202.02 437.42 213.19 432.76 220.76 423.66 C 232.99 409.88 236.14 390.72 236.69 372.91 C 236.78 321.62 236.66 270.32 236.75 219.02 C 223.21 218.94 209.67 219.02 196.13 218.98 M 373.49 219.02 C 373.59 279.82 373.52 340.62 373.51 401.43 C 386.87 401.49 400.23 401.44 413.59 401.45 C 413.89 375.50 413.71 349.54 413.68 323.58 C 436.25 323.26 461.03 322.10 479.63 307.69 C 494.80 295.42 498.44 274.20 496.18 255.78 C 495.00 244.83 489.04 234.28 479.59 228.42 C 467.24 220.65 452.23 219.44 438.02 219.01 C 416.51 218.98 395.00 218.97 373.49 219.02 M 248.52 415.87 C 248.39 417.24 248.26 418.62 248.14 420.00 C 244.11 420.00 240.09 419.97 236.07 420.01 C 237.63 422.25 239.75 424.20 240.72 426.80 C 239.42 429.02 237.67 430.92 236.02 432.88 C 240.72 433.06 245.43 433.04 250.13 432.93 C 250.44 432.51 251.04 431.65 251.34 431.23 C 303.94 431.09 356.54 431.29 409.14 431.13 C 409.73 431.75 410.32 432.37 410.91 433.00 C 415.46 433.02 420.01 433.01 424.56 433.01 C 423.00 431.03 421.30 429.14 420.09 426.93 C 421.04 424.36 423.03 422.35 424.52 420.09 C 420.57 419.94 416.62 419.99 412.68 419.99 C 412.62 418.61 412.58 417.24 412.54 415.88 C 407.74 414.92 402.85 415.33 398.00 415.29 C 353.00 415.28 308.00 415.28 263.00 415.29 C 258.17 415.33 253.29 414.91 248.52 415.87 Z"/><path fill="#ffffff" opacity="1.00" d=" M 413.63 235.21 C 426.27 234.15 441.81 234.45 449.43 246.45 C 457.17 259.97 457.29 278.08 449.85 291.75 C 442.48 303.99 427.08 307.43 413.76 307.42 C 413.63 283.35 413.88 259.28 413.63 235.21 Z"/></g><g><path fill="#212026" opacity="1.00" d=" M 258.44 81.01 C 280.05 58.22 302.82 36.32 325.00 14.01 C 357.29 46.21 389.65 78.34 421.67 110.80 C 424.99 114.85 428.60 118.63 432.43 122.20 C 437.10 127.93 442.04 133.46 447.66 138.28 C 467.81 158.83 488.85 178.51 509.05 199.02 C 518.19 209.63 528.32 219.44 539.09 228.35 C 568.64 257.13 597.56 286.62 626.79 315.76 C 625.98 316.72 625.17 317.68 624.37 318.64 C 620.69 316.62 616.82 314.97 612.75 313.93 C 615.55 316.22 618.54 318.26 621.60 320.18 C 620.82 321.73 620.03 323.28 619.19 324.79 C 521.06 226.75 422.97 128.66 324.93 30.52 C 303.65 52.34 281.88 73.69 260.38 95.29 C 259.50 94.11 258.63 92.93 257.75 91.76 C 258.64 90.52 259.53 89.28 260.42 88.04 C 258.89 87.73 257.36 87.41 255.84 87.11 C 256.68 85.06 257.51 83.01 258.44 81.01 Z"/><path fill="#212026" opacity="1.00" d=" M 291.05 213.16 C 312.04 208.35 335.78 210.23 353.68 223.10 C 351.15 232.26 347.97 241.21 345.16 250.28 C 343.75 250.23 342.35 250.18 340.94 250.14 C 335.96 227.69 305.64 220.23 288.46 233.47 C 278.17 242.61 279.08 260.72 289.90 269.12 C 306.81 283.11 329.40 288.30 345.51 303.52 C 365.32 320.58 368.04 352.93 352.83 373.80 C 343.24 387.11 327.84 395.24 311.99 398.40 C 290.53 402.67 267.09 400.64 248.23 388.87 C 250.59 377.35 253.84 366.04 256.38 354.56 C 258.00 354.54 259.63 354.52 261.26 354.50 C 263.31 366.69 272.19 376.94 283.57 381.47 C 283.25 381.76 282.61 382.35 282.29 382.64 C 286.91 381.57 291.30 384.13 295.93 384.00 C 305.41 384.58 315.56 382.30 322.61 375.60 C 330.18 367.71 331.33 355.13 326.68 345.45 C 322.31 336.84 313.67 331.54 305.19 327.59 C 288.24 319.29 268.78 312.72 257.69 296.41 C 248.27 281.82 247.33 262.71 252.59 246.46 C 258.29 229.47 273.76 216.96 291.05 213.16 Z"/><path fill="#212026" opacity="1.00" d=" M 196.13 218.98 C 209.67 219.02 223.21 218.94 236.75 219.02 C 236.66 270.32 236.78 321.62 236.69 372.91 C 236.14 390.72 232.99 409.88 220.76 423.66 C 213.19 432.76 202.02 437.42 191.34 441.73 L 191.99 440.95 C 186.89 442.46 181.71 443.71 176.46 444.58 C 175.29 440.40 173.94 436.27 172.77 432.09 C 177.50 429.70 182.15 427.08 186.32 423.78 C 185.95 422.92 185.57 422.06 185.19 421.20 C 185.59 421.70 186.37 422.69 186.76 423.19 C 196.33 410.28 195.97 393.33 196.01 378.00 C 196.09 325.00 195.85 271.98 196.13 218.98 Z"/><path fill="#212026" opacity="1.00" d=" M 373.49 219.02 C 395.00 218.97 416.51 218.98 438.02 219.01 C 452.23 219.44 467.24 220.65 479.59 228.42 C 489.04 234.28 495.00 244.83 496.18 255.78 C 498.44 274.20 494.80 295.42 479.63 307.69 C 461.03 322.10 436.25 323.26 413.68 323.58 C 413.71 349.54 413.89 375.50 413.59 401.45 C 400.23 401.44 386.87 401.49 373.51 401.43 C 373.52 340.62 373.59 279.82 373.49 219.02 M 413.63 235.21 C 413.88 259.28 413.63 283.35 413.76 307.42 C 427.08 307.43 442.48 303.99 449.85 291.75 C 457.29 278.08 457.17 259.97 449.43 246.45 C 441.81 234.45 426.27 234.15 413.63 235.21 Z"/><path fill="#212026" opacity="1.00" d=" M 98.89 240.27 C 103.89 240.20 109.32 238.76 113.74 241.93 C 85.96 269.59 58.45 297.53 30.47 324.99 C 127.97 422.07 225.05 519.56 322.43 616.75 C 321.19 617.38 319.96 618.00 318.71 618.61 C 316.79 617.47 314.89 616.30 312.97 615.18 C 312.36 615.54 311.74 615.90 311.13 616.27 C 314.04 618.20 316.72 620.44 319.32 622.77 C 318.30 624.28 317.29 625.79 316.27 627.31 C 287.06 597.90 257.27 568.96 228.53 539.14 C 220.90 529.37 211.15 521.37 202.48 512.49 C 174.40 483.94 145.85 455.83 118.03 427.00 C 115.79 424.95 113.25 423.28 110.78 421.52 C 78.21 389.70 46.22 357.21 14.01 325.00 C 42.07 296.65 70.47 268.63 98.54 240.28 L 98.89 240.27 Z"/><path fill="#212026" opacity="1.00" d=" M 248.52 415.87 C 253.29 414.91 258.17 415.33 263.00 415.29 C 308.00 415.28 353.00 415.28 398.00 415.29 C 402.85 415.33 407.74 414.92 412.54 415.88 C 412.58 417.24 412.62 418.61 412.68 419.99 C 416.62 419.99 420.57 419.94 424.52 420.09 C 423.03 422.35 421.04 424.36 420.09 426.93 C 421.30 429.14 423.00 431.03 424.56 433.01 C 420.01 433.01 415.46 433.02 410.91 433.00 C 410.32 432.37 409.73 431.75 409.14 431.13 C 356.54 431.29 303.94 431.09 251.34 431.23 C 251.04 431.65 250.44 432.51 250.13 432.93 C 245.43 433.04 240.72 433.06 236.02 432.88 C 237.67 430.92 239.42 429.02 240.72 426.80 C 239.75 424.20 237.63 422.25 236.07 420.01 C 240.09 419.97 244.11 420.00 248.14 420.00 C 248.26 418.62 248.39 417.24 248.52 415.87 Z"/></g><g><path fill="#212122" opacity="1.00" d=" M 228.26 110.84 C 238.20 100.78 247.92 90.44 258.44 81.01 C 257.51 83.01 256.68 85.06 255.84 87.11 C 257.36 87.41 258.89 87.73 260.42 88.04 C 259.53 89.28 258.64 90.52 257.75 91.76 C 258.63 92.93 259.50 94.11 260.38 95.29 C 211.52 144.19 162.64 193.07 113.74 241.93 C 109.32 238.76 103.89 240.20 98.89 240.27 C 102.65 236.08 106.67 232.13 110.78 228.31 C 147.67 192.71 183.33 155.83 219.84 119.83 C 222.78 116.96 225.54 113.91 228.26 110.84 Z"/><path fill="#212122" opacity="1.00" d=" M 612.75 313.93 C 616.82 314.97 620.69 316.62 624.37 318.64 C 625.17 317.68 625.98 316.72 626.79 315.76 C 629.53 319.06 634.04 321.46 635.53 325.46 C 603.25 357.88 570.80 390.17 538.50 422.58 C 536.24 424.46 533.94 426.30 531.84 428.36 C 516.49 441.43 503.42 456.91 488.48 470.43 C 485.26 473.19 482.76 476.64 480.63 480.29 C 480.54 480.42 480.36 480.68 480.27 480.81 C 470.41 487.66 462.89 497.12 453.95 505.03 C 444.05 517.29 431.02 526.60 421.52 539.22 C 389.69 571.67 357.34 603.67 325.15 635.78 C 321.81 633.38 319.19 630.17 316.27 627.31 C 317.29 625.79 318.30 624.28 319.32 622.77 C 316.72 620.44 314.04 618.20 311.13 616.27 C 311.74 615.90 312.36 615.54 312.97 615.18 C 314.89 616.30 316.79 617.47 318.71 618.61 C 319.96 618.00 321.19 617.38 322.43 616.75 C 323.26 617.59 324.10 618.43 324.94 619.29 C 421.63 523.23 517.71 426.55 614.22 330.30 C 615.95 328.53 617.72 326.79 619.19 324.79 C 620.03 323.28 620.82 321.73 621.60 320.18 C 618.54 318.26 615.55 316.22 612.75 313.93 Z"/></g><g><path fill="#991c22" opacity="1.00" d=" M 110.71 110.69 C 149.89 110.86 189.08 110.57 228.26 110.84 C 225.54 113.91 222.78 116.96 219.84 119.83 C 183.33 155.83 147.67 192.71 110.78 228.31 C 110.67 189.10 110.82 149.90 110.71 110.69 M 112.45 112.44 C 112.14 149.71 112.09 187.01 112.51 224.26 C 149.87 187.15 187.15 149.91 224.24 112.52 C 186.99 112.07 149.70 112.14 112.45 112.44 Z"/><path fill="#991c22" opacity="1.00" d=" M 421.67 110.80 C 460.88 110.61 500.09 110.84 539.30 110.69 C 539.31 148.72 539.32 186.76 539.30 224.79 C 534.05 224.41 531.47 219.87 528.86 215.99 C 531.30 218.35 534.31 219.97 537.21 221.69 C 537.77 214.76 535.47 207.89 537.27 201.00 C 537.72 175.02 537.16 149.00 537.52 123.01 C 537.51 119.80 537.65 116.48 536.53 113.42 C 532.24 111.68 527.51 112.27 523.00 112.20 C 491.24 112.35 459.47 112.14 427.71 112.31 C 429.20 114.68 430.71 117.06 432.10 119.50 C 432.18 120.17 432.35 121.52 432.43 122.20 C 428.60 118.63 424.99 114.85 421.67 110.80 Z"/><path fill="#991c22" opacity="1.00" d=" M 531.84 428.36 C 533.94 426.30 536.24 424.46 538.50 422.58 C 539.72 427.29 539.26 432.19 539.30 437.00 C 539.33 471.12 539.28 505.23 539.33 539.34 C 501.96 539.22 464.59 539.33 427.22 539.29 C 425.79 535.34 428.57 532.59 431.59 530.57 C 430.70 532.44 427.00 537.05 430.93 537.39 C 464.28 537.36 497.67 537.43 531.03 537.45 C 533.99 537.63 537.82 536.61 537.49 532.92 C 537.34 498.45 537.50 463.92 537.30 429.47 C 535.22 428.68 533.14 430.01 531.20 430.63 C 531.36 430.06 531.68 428.93 531.84 428.36 Z"/></g><g><path fill="#c5020a" opacity="1.00" d=" M 112.45 112.44 C 149.70 112.14 186.99 112.07 224.24 112.52 C 187.15 149.91 149.87 187.15 112.51 224.26 C 112.09 187.01 112.14 149.71 112.45 112.44 Z"/><path fill="#c5020a" opacity="1.00" d=" M 427.71 112.31 C 459.47 112.14 491.24 112.35 523.00 112.20 C 527.51 112.27 532.24 111.68 536.53 113.42 C 537.65 116.48 537.51 119.80 537.52 123.01 C 537.16 149.00 537.72 175.02 537.27 201.00 C 535.47 207.89 537.77 214.76 537.21 221.69 C 534.31 219.97 531.30 218.35 528.86 215.99 C 496.76 183.69 464.77 151.23 432.10 119.50 C 430.71 117.06 429.20 114.68 427.71 112.31 Z"/><path fill="#c5020a" opacity="1.00" d=" M 111.66 457.00 C 112.01 446.98 110.90 436.88 112.47 426.93 C 121.94 433.20 128.46 442.68 137.06 449.95 C 163.57 476.73 190.13 503.44 216.99 529.87 C 218.40 532.01 219.65 534.26 220.91 536.50 C 184.68 536.61 148.38 537.40 112.17 536.28 C 111.01 509.89 112.01 483.42 111.66 457.00 Z"/><path fill="#c5020a" opacity="1.00" d=" M 531.20 430.63 C 533.14 430.01 535.22 428.68 537.30 429.47 C 537.50 463.92 537.34 498.45 537.49 532.92 C 537.82 536.61 533.99 537.63 531.03 537.45 C 497.67 537.43 464.28 537.36 430.93 537.39 C 427.00 537.05 430.70 532.44 431.59 530.57 C 442.00 521.69 450.88 511.18 460.95 501.92 C 466.65 494.15 477.24 490.49 480.27 480.81 C 480.36 480.68 480.54 480.42 480.63 480.29 C 490.08 477.93 493.10 467.42 500.80 462.52 C 506.82 458.56 509.97 451.73 515.70 447.46 C 521.91 442.91 526.61 436.71 531.20 430.63 Z"/></g><g><path fill="#702326" opacity="1.00" d=" M 432.10 119.50 C 464.77 151.23 496.76 183.69 528.86 215.99 C 531.47 219.87 534.05 224.41 539.30 224.79 C 539.23 225.97 539.16 227.16 539.09 228.35 C 528.32 219.44 518.19 209.63 509.05 199.02 C 488.85 178.51 467.81 158.83 447.66 138.28 C 442.04 133.46 437.10 127.93 432.43 122.20 C 432.35 121.52 432.18 120.17 432.10 119.50 Z"/><path fill="#702326" opacity="1.00" d=" M 110.78 421.52 C 113.25 423.28 115.79 424.95 118.03 427.00 C 145.85 455.83 174.40 483.94 202.48 512.49 C 211.15 521.37 220.90 529.37 228.53 539.14 C 227.21 539.19 225.89 539.24 224.58 539.29 C 223.56 535.09 220.43 532.18 216.99 529.87 C 190.13 503.44 163.57 476.73 137.06 449.95 C 128.46 442.68 121.94 433.20 112.47 426.93 C 110.90 436.88 112.01 446.98 111.66 457.00 C 112.01 483.42 111.01 509.89 112.17 536.28 C 112.28 537.28 112.39 538.27 112.52 539.28 C 112.08 539.30 111.19 539.34 110.75 539.36 C 110.79 500.08 110.72 460.80 110.78 421.52 Z"/><path fill="#702326" opacity="1.00" d=" M 488.48 470.43 C 503.42 456.91 516.49 441.43 531.84 428.36 C 531.68 428.93 531.36 430.06 531.20 430.63 C 526.61 436.71 521.91 442.91 515.70 447.46 C 509.97 451.73 506.82 458.56 500.80 462.52 C 493.10 467.42 490.08 477.93 480.63 480.29 C 482.76 476.64 485.26 473.19 488.48 470.43 Z"/><path fill="#702326" opacity="1.00" d=" M 453.95 505.03 C 462.89 497.12 470.41 487.66 480.27 480.81 C 477.24 490.49 466.65 494.15 460.95 501.92 C 450.88 511.18 442.00 521.69 431.59 530.57 C 428.57 532.59 425.79 535.34 427.22 539.29 C 425.31 539.26 423.42 539.25 421.52 539.22 C 431.02 526.60 444.05 517.29 453.95 505.03 Z"/></g><g><path fill="#bb0611" opacity="1.00" d=" M 216.99 529.87 C 220.43 532.18 223.56 535.09 224.58 539.29 C 187.23 539.26 149.87 539.30 112.52 539.28 C 112.39 538.27 112.28 537.28 112.17 536.28 C 148.38 537.40 184.68 536.61 220.91 536.50 C 219.65 534.26 218.40 532.01 216.99 529.87 Z"/></g></svg>
