<svg viewBox="0 0 512 117" version="1.1" xmlns="http://www.w3.org/2000/svg"><path fill="#000000" opacity="1.00" d=" M 121.40 36.17 C 126.37 30.58 133.08 25.38 141.00 26.05 C 147.63 26.08 152.88 31.31 154.57 37.45 C 160.64 29.30 171.50 23.14 181.67 27.27 C 189.70 30.47 190.88 40.46 189.80 47.95 C 187.66 61.66 184.97 75.29 182.61 88.97 C 176.73 89.03 170.85 89.00 164.97 89.00 C 167.20 76.30 169.55 63.62 171.79 50.93 C 172.20 47.60 172.60 42.66 168.75 41.21 C 162.20 39.27 156.83 45.22 154.90 50.85 C 150.98 63.23 149.96 76.32 147.26 88.99 C 141.40 89.01 135.54 89.02 129.68 88.97 C 131.79 74.66 135.63 60.54 136.52 46.09 C 136.96 41.63 131.87 39.85 128.31 41.23 C 122.06 43.26 119.42 50.14 117.97 55.97 C 115.74 66.94 114.05 78.01 111.93 89.00 C 106.06 89.01 100.20 89.01 94.34 88.99 C 97.99 68.49 101.63 47.99 105.33 27.50 C 111.20 27.46 117.06 27.48 122.92 27.49 C 122.43 30.38 121.90 33.27 121.40 36.17 Z"/><path fill="#000000" opacity="1.00" d=" M 337.61 39.58 C 346.88 36.64 358.99 36.12 366.11 43.89 C 371.97 50.37 370.85 59.82 368.92 67.64 C 356.79 67.69 344.65 67.56 332.51 67.70 C 332.34 71.84 333.83 76.66 338.31 77.83 C 347.61 80.21 357.11 76.62 365.54 72.87 C 364.81 76.86 364.00 80.84 363.16 84.81 C 352.71 88.29 341.23 90.60 330.37 87.72 C 324.11 86.14 318.71 81.11 317.52 74.64 C 315.07 60.27 323.37 44.18 337.61 39.58 M 334.68 57.95 C 341.50 58.05 348.33 58.01 355.16 57.97 C 355.46 54.33 354.71 49.69 350.66 48.48 C 343.69 46.24 336.83 51.47 334.68 57.95 Z"/><path fill="#000000" opacity="1.00" d=" M 400.36 46.09 C 406.85 39.79 416.75 35.54 425.56 39.46 C 431.59 42.21 432.59 49.78 431.58 55.62 C 429.64 66.44 427.32 77.19 425.17 87.98 C 419.99 88.02 414.81 88.02 409.64 87.97 C 411.48 77.79 413.94 67.72 415.53 57.49 C 416.19 54.55 415.30 50.67 411.87 50.05 C 405.06 48.50 399.34 54.52 397.69 60.60 C 395.29 69.62 393.96 78.89 391.90 88.00 C 386.75 88.01 381.61 88.02 376.47 87.98 C 379.73 71.71 382.98 55.45 386.27 39.19 C 391.42 39.15 396.57 39.15 401.72 39.19 C 401.27 41.49 400.80 43.79 400.36 46.09 Z"/><path fill="#000000" opacity="1.00" d=" M 263.20 39.01 C 268.37 38.98 273.54 38.97 278.70 39.04 C 280.47 50.27 282.12 61.51 284.01 72.72 C 290.35 61.53 296.48 50.21 302.82 39.02 C 307.97 38.99 313.12 38.98 318.27 39.02 C 308.76 55.38 299.01 71.60 289.46 87.94 C 283.76 88.05 278.06 88.03 272.36 87.96 C 269.35 71.63 266.22 55.33 263.20 39.01 Z"/><path fill="#ff6804" opacity="1.00" d=" M 209.63 40.16 C 218.56 38.12 227.82 36.99 236.96 38.06 C 241.64 38.69 246.83 40.30 249.37 44.62 C 251.98 49.16 251.41 54.67 250.55 59.62 C 248.69 69.00 246.80 78.37 244.89 87.74 C 239.69 87.74 234.49 87.74 229.29 87.73 C 229.76 85.39 230.23 83.04 230.71 80.69 C 223.79 88.78 209.61 92.73 201.28 84.70 C 195.34 77.37 199.33 65.48 206.93 60.86 C 215.63 55.78 226.09 56.89 235.75 56.68 C 236.12 53.89 236.03 50.23 232.81 49.17 C 224.38 46.51 215.15 48.57 207.25 52.05 C 208.06 48.09 208.85 44.12 209.63 40.16 M 217.79 67.75 C 213.81 69.76 212.82 77.23 218.05 78.30 C 225.82 80.27 232.80 73.41 233.78 66.06 C 228.47 66.19 222.67 65.10 217.79 67.75 Z"/></svg>
