<svg xmlns="http://www.w3.org/2000/svg" viewBox="3 3 296 296"><path fill="#866858" d=" M 42.37 3.50 C 112.58 3.07 182.82 3.53 253.03 3.28 C 264.41 2.82 276.02 6.87 284.36 14.68 C 293.98 23.16 299.23 36.19 298.69 48.95 C 298.64 118.64 298.68 188.32 298.66 258.01 C 297.79 268.61 293.26 279.04 285.43 286.36 C 278.15 293.61 268.16 297.83 257.98 298.67 C 186.97 298.63 115.95 298.71 44.94 298.63 C 32.99 298.19 21.43 292.36 13.69 283.29 C 7.36 276.09 3.92 266.61 3.32 257.10 C 3.37 186.38 3.31 115.66 3.34 44.94 C 3.89 34.47 8.13 24.08 15.62 16.65 C 22.63 9.28 32.29 4.65 42.37 3.50 Z" /><path fill="#36a440" d=" M 143.35 22.59 C 144.44 24.01 145.32 25.57 145.96 27.24 C 143.94 29.36 144.74 32.47 144.61 35.11 C 145.36 49.07 144.89 63.07 146.01 77.00 C 145.98 113.00 146.04 149.01 145.91 185.02 C 146.00 191.01 145.08 196.99 145.67 202.98 C 145.33 202.81 144.66 202.46 144.32 202.29 C 143.30 206.99 142.96 211.80 143.07 216.60 C 142.25 220.33 141.35 224.04 139.91 227.59 C 135.76 225.00 132.14 221.71 128.72 218.23 C 117.37 207.71 108.11 194.98 101.36 181.06 C 96.15 170.04 93.04 158.18 91.77 146.07 C 90.77 126.43 92.86 106.49 99.62 87.95 C 103.78 76.70 109.26 65.92 116.13 56.08 C 122.34 47.13 130.34 39.66 138.34 32.34 C 141.18 29.82 142.32 26.11 143.35 22.59 Z" /><path fill="#008f3f" d=" M 144.61 35.11 C 144.74 32.47 143.94 29.36 145.96 27.24 C 148.50 34.02 153.10 39.79 158.37 44.67 C 165.13 51.12 170.37 58.87 176.02 66.24 C 180.48 75.46 186.20 84.17 189.08 94.09 C 193.52 106.26 197.22 118.99 196.71 132.08 C 196.59 137.07 196.73 142.06 196.66 147.05 C 196.05 159.49 192.29 171.50 187.72 183.00 C 187.00 183.85 186.32 184.75 185.79 185.73 C 178.79 201.51 167.28 215.21 153.44 225.44 C 151.81 223.49 149.85 221.77 148.59 219.53 C 147.85 217.55 147.51 215.45 147.15 213.38 C 146.54 209.93 145.99 206.47 145.67 202.98 C 145.08 196.99 146.00 191.01 145.91 185.02 C 146.04 149.01 145.98 113.00 146.01 77.00 C 144.89 63.07 145.36 49.07 144.61 35.11 Z" /><path fill="#3f2e2a" d=" M 7.31 153.00 L 7.78 153.29 C 10.88 155.23 14.01 157.14 17.36 158.63 C 39.82 168.67 63.68 175.36 87.93 179.31 C 92.39 180.05 96.82 181.03 101.36 181.06 C 108.11 194.98 117.37 207.71 128.72 218.23 C 132.14 221.71 135.76 225.00 139.91 227.59 C 139.79 229.29 140.31 230.93 140.72 232.56 C 142.76 239.62 142.15 247.06 143.37 254.25 C 145.29 255.41 147.49 255.85 149.70 255.99 C 149.70 250.95 149.67 245.90 149.80 240.85 C 150.13 236.10 150.44 231.30 152.29 226.84 C 152.58 226.49 153.15 225.79 153.44 225.44 C 167.28 215.21 178.79 201.51 185.79 185.73 C 186.32 184.75 187.00 183.85 187.72 183.00 C 222.16 180.16 256.90 173.49 288.15 158.23 C 290.21 157.17 292.17 155.93 294.19 154.77 C 294.55 191.19 294.20 227.62 294.37 264.05 C 294.69 270.18 290.81 275.48 287.16 280.04 C 280.02 288.67 269.11 293.77 258.04 294.65 C 186.34 294.65 114.64 294.67 42.94 294.68 C 23.61 292.59 6.50 274.79 7.32 254.95 C 7.35 220.97 7.37 186.99 7.31 153.00 Z" /><path fill="#a2a27e" d=" M 144.32 202.29 C 144.66 202.46 145.33 202.81 145.67 202.98 C 145.99 206.47 146.54 209.93 147.15 213.38 C 146.44 212.60 145.75 211.83 145.06 211.04 C 144.43 212.90 143.78 214.76 143.07 216.60 C 142.96 211.80 143.30 206.99 144.32 202.29 Z" /><path fill="#aeae8e" d=" M 145.06 211.04 C 145.75 211.83 146.44 212.60 147.15 213.38 C 147.51 215.45 147.85 217.55 148.59 219.53 C 149.85 221.77 151.81 223.49 153.44 225.44 C 153.15 225.79 152.58 226.49 152.29 226.84 C 150.80 225.58 149.11 226.94 147.87 227.85 C 145.64 229.64 143.30 231.31 140.72 232.56 C 140.31 230.93 139.79 229.29 139.91 227.59 C 141.35 224.04 142.25 220.33 143.07 216.60 C 143.78 214.76 144.43 212.90 145.06 211.04 Z" /><path fill="#baba9d" d=" M 147.87 227.85 C 149.11 226.94 150.80 225.58 152.29 226.84 C 150.44 231.30 150.13 236.10 149.80 240.85 C 149.48 242.80 149.20 244.76 148.59 246.65 C 146.07 248.65 143.23 250.59 143.37 254.25 C 142.15 247.06 142.76 239.62 140.72 232.56 C 143.30 231.31 145.64 229.64 147.87 227.85 Z" /><path fill="#d9d8c2" d=" M 148.59 246.65 C 149.20 244.76 149.48 242.80 149.80 240.85 C 149.67 245.90 149.70 250.95 149.70 255.99 C 147.49 255.85 145.29 255.41 143.37 254.25 C 143.23 250.59 146.07 248.65 148.59 246.65 Z" /></svg>
