<svg xmlns="http://www.w3.org/2000/svg"viewBox="16 21 304 305"><g><path fill="#fefefe" opacity="1.00" d=" M 193.49 59.37 L 193.79 59.38 C 230.18 59.73 266.59 59.31 302.97 59.59 C 306.83 59.38 307.69 63.98 307.56 66.95 C 307.51 138.31 307.55 209.68 307.54 281.05 C 307.58 283.98 306.90 288.28 303.01 287.63 C 266.54 287.82 230.06 287.64 193.59 287.72 C 193.50 279.68 193.60 271.64 193.54 263.60 L 194.41 263.58 C 198.39 267.28 202.06 271.30 206.01 275.02 C 218.84 262.52 231.40 249.74 244.02 237.03 C 242.78 235.76 241.54 234.51 240.30 233.25 C 228.96 221.75 217.61 210.26 206.03 199.00 C 201.92 203.10 197.83 207.22 193.60 211.20 C 193.51 177.59 193.62 143.98 193.56 110.38 C 210.29 110.29 227.02 110.33 243.75 110.34 C 243.74 127.13 243.78 143.93 243.74 160.72 C 238.81 160.98 233.10 159.54 228.91 162.87 C 225.74 165.26 222.90 168.05 219.99 170.75 C 232.32 184.45 244.53 198.27 256.92 211.92 C 259.25 209.31 261.58 206.70 263.85 204.02 C 270.33 197.43 276.39 190.44 282.78 183.75 C 286.89 179.43 290.90 175.02 295.05 170.73 C 290.23 167.19 286.01 161.83 279.71 161.18 C 276.42 161.08 273.14 161.38 269.85 161.43 C 274.26 160.91 278.70 160.80 283.12 160.41 C 278.62 160.47 274.12 160.77 269.62 160.75 C 269.35 138.72 270.05 116.65 269.28 94.65 C 269.02 90.07 265.50 86.14 261.04 85.20 C 252.84 83.16 244.34 84.38 236.00 84.13 C 223.22 84.36 210.41 83.83 197.65 84.82 C 196.37 84.87 195.09 84.94 193.81 85.02 L 193.48 85.04 C 193.55 76.48 193.54 67.92 193.49 59.37 Z"/><path fill="#fefefe" opacity="1.00" d=" M 68.29 112.43 C 81.18 111.39 94.10 110.90 107.00 110.11 C 119.27 108.85 132.73 110.37 142.81 118.07 C 151.33 124.69 155.04 135.61 156.09 146.01 C 158.20 162.58 152.99 180.87 139.48 191.45 C 126.97 201.94 109.87 202.06 94.43 201.30 C 94.35 217.03 94.42 232.76 94.39 248.49 C 85.69 248.37 77.04 247.37 68.33 247.20 C 68.22 202.28 68.30 157.35 68.29 112.43 M 94.48 134.65 C 94.27 148.90 94.27 163.15 94.50 177.40 C 100.48 177.31 106.56 177.94 112.42 176.39 C 118.37 175.10 123.62 170.19 124.99 164.21 C 127.48 155.42 126.98 143.90 119.10 137.94 C 111.91 132.83 102.69 134.84 94.48 134.65 Z"/></g><g><path fill="#1f945b" opacity="1.00" d=" M 16.14 52.95 C 75.28 42.51 134.39 31.87 193.50 21.26 C 193.64 29.67 193.50 38.08 193.58 46.50 C 192.87 46.45 192.16 46.40 191.45 46.35 C 191.10 39.03 191.23 31.70 191.08 24.37 C 177.19 25.14 164.09 30.45 150.19 31.28 C 108.89 39.47 67.25 45.78 25.90 53.69 C 20.04 54.10 17.39 59.65 17.76 64.95 C 17.66 135.30 17.84 205.65 17.65 276.00 C 17.87 280.57 16.82 285.69 19.16 289.84 C 24.78 294.74 32.81 294.41 39.71 295.91 C 67.54 302.08 95.89 305.45 123.78 311.25 C 146.14 315.34 168.48 319.53 190.92 323.06 C 191.55 316.27 190.58 309.37 191.84 302.66 C 192.58 298.91 196.69 297.98 199.96 298.13 C 232.63 298.45 265.32 298.14 298.00 298.29 C 303.25 298.29 309.13 298.03 313.15 294.17 C 318.05 289.96 318.64 283.03 318.75 277.00 C 318.61 209.34 318.70 141.67 318.68 74.00 C 318.66 69.50 319.15 65.02 319.50 60.53 C 320.68 65.95 320.25 71.51 320.29 77.00 C 320.26 145.34 320.31 213.68 320.26 282.01 C 320.52 291.02 313.42 300.33 304.04 300.51 C 267.22 300.57 230.40 300.45 193.58 300.57 C 193.51 308.98 193.62 317.39 193.50 325.80 C 134.27 315.59 75.15 304.74 15.97 294.25 C 15.60 222.17 15.92 150.08 15.81 78.00 C 15.96 69.65 15.47 61.28 16.14 52.95 Z"/><path fill="#1f945b" opacity="1.00" d=" M 193.79 59.38 C 195.42 57.98 197.38 57.11 199.56 57.26 C 232.37 57.19 265.19 57.40 298.01 57.15 C 301.60 57.31 305.58 57.20 308.68 59.31 C 311.15 63.61 310.52 68.81 310.32 73.55 C 310.99 136.01 310.38 198.52 310.65 261.00 C 310.61 268.34 310.04 275.66 309.72 282.99 C 309.67 286.52 306.81 290.10 303.06 289.83 C 267.38 289.63 231.68 289.87 196.00 289.65 C 193.40 289.87 191.29 287.51 191.30 285.01 C 190.97 277.29 190.78 269.48 192.04 261.82 C 193.81 262.30 195.59 262.78 197.36 263.30 C 196.62 263.37 195.15 263.51 194.41 263.58 L 193.54 263.60 C 193.60 271.64 193.50 279.68 193.59 287.72 C 230.06 287.64 266.54 287.82 303.01 287.63 C 306.90 288.28 307.58 283.98 307.54 281.05 C 307.55 209.68 307.51 138.31 307.56 66.95 C 307.69 63.98 306.83 59.38 302.97 59.59 C 266.59 59.31 230.18 59.73 193.79 59.38 Z"/><path fill="#1f945b" opacity="1.00" d=" M 191.96 109.97 C 194.79 107.78 198.63 108.19 202.00 108.08 C 214.67 108.45 227.36 108.02 240.03 108.23 C 242.90 108.07 246.53 109.42 245.85 112.96 C 245.60 128.58 246.25 144.25 245.59 159.84 C 243.97 166.54 235.64 161.55 231.20 164.17 C 227.63 165.91 221.81 170.86 226.27 174.68 C 236.90 185.00 245.06 197.79 256.82 206.90 C 259.19 205.01 261.81 203.40 264.79 202.65 L 263.85 204.02 C 261.58 206.70 259.25 209.31 256.92 211.92 C 244.53 198.27 232.32 184.45 219.99 170.75 C 222.90 168.05 225.74 165.26 228.91 162.87 C 233.10 159.54 238.81 160.98 243.74 160.72 C 243.78 143.93 243.74 127.13 243.75 110.34 C 227.02 110.33 210.29 110.29 193.56 110.38 C 193.62 143.98 193.51 177.59 193.60 211.20 C 197.83 207.22 201.92 203.10 206.03 199.00 C 217.61 210.26 228.96 221.75 240.30 233.25 C 235.01 232.58 232.39 227.52 228.49 224.57 C 220.56 218.48 215.61 209.05 206.82 204.03 C 201.02 205.06 198.37 213.58 191.45 211.82 C 190.94 180.89 191.59 149.94 191.16 119.00 C 191.20 115.99 190.99 112.87 191.96 109.97 Z"/><path fill="#1f945b" opacity="1.00" d=" M 94.48 134.65 C 102.69 134.84 111.91 132.83 119.10 137.94 C 126.98 143.90 127.48 155.42 124.99 164.21 C 124.65 156.93 125.17 148.64 120.48 142.55 C 114.61 135.82 104.94 136.27 96.87 137.14 C 95.10 149.65 96.64 162.30 96.28 174.89 C 101.65 175.44 107.02 176.14 112.42 176.39 C 106.56 177.94 100.48 177.31 94.50 177.40 C 94.27 163.15 94.27 148.90 94.48 134.65 Z"/></g><g><path fill="#03a652" opacity="1.00" d=" M 150.19 31.28 C 164.09 30.45 177.19 25.14 191.08 24.37 C 191.23 31.70 191.10 39.03 191.45 46.35 C 192.16 46.40 192.87 46.45 193.58 46.50 C 231.29 46.89 269.02 46.77 306.72 46.55 C 305.15 46.77 303.60 47.19 302.01 47.26 C 265.97 47.42 229.92 47.05 193.88 47.44 C 231.59 47.57 269.31 47.46 307.01 47.49 C 313.26 48.69 318.47 54.31 319.50 60.53 C 319.15 65.02 318.66 69.50 318.68 74.00 C 318.70 141.67 318.61 209.34 318.75 277.00 C 318.64 283.03 318.05 289.96 313.15 294.17 C 309.13 298.03 303.25 298.29 298.00 298.29 C 265.32 298.14 232.63 298.45 199.96 298.13 C 196.69 297.98 192.58 298.91 191.84 302.66 C 190.58 309.37 191.55 316.27 190.92 323.06 C 168.48 319.53 146.14 315.34 123.78 311.25 C 95.89 305.45 67.54 302.08 39.71 295.91 C 32.81 294.41 24.78 294.74 19.16 289.84 C 16.82 285.69 17.87 280.57 17.65 276.00 C 17.84 205.65 17.66 135.30 17.76 64.95 C 17.39 59.65 20.04 54.10 25.90 53.69 C 67.25 45.78 108.89 39.47 150.19 31.28 M 193.79 59.38 L 193.49 59.37 C 193.54 67.92 193.55 76.48 193.48 85.04 L 193.81 85.02 C 195.52 85.70 197.22 86.64 199.13 86.51 C 217.42 86.16 235.72 86.32 254.02 86.16 C 258.37 86.05 263.29 87.40 265.78 91.23 C 268.79 97.34 268.25 104.39 268.32 111.01 C 268.08 126.85 268.73 142.72 267.95 158.55 C 267.56 158.90 268.27 161.83 268.90 160.28 C 268.80 138.45 268.07 116.48 269.28 94.65 C 270.05 116.65 269.35 138.72 269.62 160.75 C 274.12 160.77 278.62 160.47 283.12 160.41 C 278.70 160.80 274.26 160.91 269.85 161.43 C 273.14 161.38 276.42 161.08 279.71 161.18 C 283.11 164.49 287.76 166.39 290.66 170.20 C 289.44 175.89 283.34 178.93 281.93 184.64 L 282.78 183.75 C 276.39 190.44 270.33 197.43 263.85 204.02 L 264.79 202.65 C 261.81 203.40 259.19 205.01 256.82 206.90 C 245.06 197.79 236.90 185.00 226.27 174.68 C 221.81 170.86 227.63 165.91 231.20 164.17 C 235.64 161.55 243.97 166.54 245.59 159.84 C 246.25 144.25 245.60 128.58 245.85 112.96 C 246.53 109.42 242.90 108.07 240.03 108.23 C 227.36 108.02 214.67 108.45 202.00 108.08 C 198.63 108.19 194.79 107.78 191.96 109.97 C 190.99 112.87 191.20 115.99 191.16 119.00 C 191.59 149.94 190.94 180.89 191.45 211.82 C 198.37 213.58 201.02 205.06 206.82 204.03 C 215.61 209.05 220.56 218.48 228.49 224.57 C 232.39 227.52 235.01 232.58 240.30 233.25 C 241.54 234.51 242.78 235.76 244.02 237.03 C 231.40 249.74 218.84 262.52 206.01 275.02 C 202.06 271.30 198.39 267.28 194.41 263.58 C 195.15 263.51 196.62 263.37 197.36 263.30 C 195.59 262.78 193.81 262.30 192.04 261.82 C 190.78 269.48 190.97 277.29 191.30 285.01 C 191.29 287.51 193.40 289.87 196.00 289.65 C 231.68 289.87 267.38 289.63 303.06 289.83 C 306.81 290.10 309.67 286.52 309.72 282.99 C 310.04 275.66 310.61 268.34 310.65 261.00 C 310.38 198.52 310.99 136.01 310.32 73.55 C 310.52 68.81 311.15 63.61 308.68 59.31 C 305.58 57.20 301.60 57.31 298.01 57.15 C 265.19 57.40 232.37 57.19 199.56 57.26 C 197.38 57.11 195.42 57.98 193.79 59.38 M 68.29 112.43 C 68.30 157.35 68.22 202.28 68.33 247.20 C 77.04 247.37 85.69 248.37 94.39 248.49 C 94.42 232.76 94.35 217.03 94.43 201.30 C 109.87 202.06 126.97 201.94 139.48 191.45 C 152.99 180.87 158.20 162.58 156.09 146.01 C 155.04 135.61 151.33 124.69 142.81 118.07 C 132.73 110.37 119.27 108.85 107.00 110.11 C 94.10 110.90 81.18 111.39 68.29 112.43 M 66.71 134.00 C 66.81 166.00 66.74 198.00 66.76 230.00 C 66.67 235.51 66.38 241.07 67.44 246.52 C 68.46 237.05 67.65 227.50 67.90 218.00 C 67.51 182.85 68.62 147.66 67.39 112.55 C 66.17 119.65 66.86 126.85 66.71 134.00 Z"/><path fill="#03a652" opacity="1.00" d=" M 96.87 137.14 C 104.94 136.27 114.61 135.82 120.48 142.55 C 125.17 148.64 124.65 156.93 124.99 164.21 C 123.62 170.19 118.37 175.10 112.42 176.39 C 107.02 176.14 101.65 175.44 96.28 174.89 C 96.64 162.30 95.10 149.65 96.87 137.14 Z"/></g><g><path fill="#bef5d9" opacity="1.00" d=" M 197.65 84.82 C 210.41 83.83 223.22 84.36 236.00 84.13 C 244.34 84.38 252.84 83.16 261.04 85.20 C 239.92 84.78 218.78 85.44 197.65 84.82 Z"/></g><g><path fill="#2f9060" opacity="1.00" d=" M 193.81 85.02 C 195.09 84.94 196.37 84.87 197.65 84.82 C 218.78 85.44 239.92 84.78 261.04 85.20 C 265.50 86.14 269.02 90.07 269.28 94.65 C 268.07 116.48 268.80 138.45 268.90 160.28 C 268.27 161.83 267.56 158.90 267.95 158.55 C 268.73 142.72 268.08 126.85 268.32 111.01 C 268.25 104.39 268.79 97.34 265.78 91.23 C 263.29 87.40 258.37 86.05 254.02 86.16 C 235.72 86.32 217.42 86.16 199.13 86.51 C 197.22 86.64 195.52 85.70 193.81 85.02 Z"/><path fill="#2f9060" opacity="1.00" d=" M 279.71 161.18 C 286.01 161.83 290.23 167.19 295.05 170.73 C 290.90 175.02 286.89 179.43 282.78 183.75 L 281.93 184.64 C 283.34 178.93 289.44 175.89 290.66 170.20 C 287.76 166.39 283.11 164.49 279.71 161.18 Z"/></g><g><path fill="#379d69" opacity="1.00" d=" M 66.71 134.00 C 66.86 126.85 66.17 119.65 67.39 112.55 C 68.62 147.66 67.51 182.85 67.90 218.00 C 67.65 227.50 68.46 237.05 67.44 246.52 C 66.38 241.07 66.67 235.51 66.76 230.00 C 66.74 198.00 66.81 166.00 66.71 134.00 Z"/></g></svg>
