<svg viewBox="0 0 352 72" xmlns="http://www.w3.org/2000/svg"><path fill="#009900" opacity="1.00" d=" M 8.67 0.00 L 14.05 0.00 C 19.93 2.47 23.34 8.04 27.27 12.72 C 37.85 25.57 48.30 38.53 58.98 51.30 C 59.13 36.83 58.85 22.37 59.07 7.91 C 58.79 4.35 61.52 1.92 64.11 0.00 L 68.36 0.00 C 71.38 1.54 74.04 4.27 73.75 7.92 C 73.83 25.61 73.91 43.32 73.71 61.01 C 73.78 66.21 69.74 70.11 65.24 72.00 L 59.91 72.00 C 53.96 69.67 50.57 64.06 46.64 59.40 C 36.03 46.54 25.58 33.56 14.85 20.81 C 14.50 35.54 15.03 50.29 14.61 65.02 C 14.70 68.24 11.95 70.22 9.70 72.00 L 5.43 72.00 C 3.30 70.69 1.57 68.89 0.00 66.97 L 0.00 8.88 C 1.43 4.76 4.65 1.61 8.67 0.00 Z"/><path fill="#009900" opacity="1.00" d=" M 177.19 0.00 L 180.85 0.00 C 189.72 5.57 184.69 17.55 185.95 26.11 C 181.22 26.13 176.50 26.14 171.77 26.09 C 173.16 17.62 167.71 4.94 177.19 0.00 Z"/><path fill="#009900" opacity="1.00" d=" M 201.21 0.00 L 205.31 0.00 C 207.98 1.88 210.62 4.40 210.29 7.98 C 210.48 22.41 210.26 36.85 210.37 51.29 C 220.93 38.50 231.20 25.46 241.64 12.56 C 245.48 7.95 248.77 2.38 254.58 0.00 L 259.37 0.00 C 264.56 1.62 268.58 6.37 268.22 11.99 C 268.26 29.33 268.32 46.69 268.19 64.03 C 268.46 67.69 265.91 70.56 262.76 72.00 L 259.35 72.00 C 256.16 70.61 253.56 67.73 253.85 64.04 C 253.64 49.60 253.90 35.15 253.76 20.71 C 243.18 33.51 232.91 46.56 222.46 59.47 C 218.62 64.09 215.32 69.69 209.46 72.00 L 204.73 72.00 C 199.61 70.33 195.56 65.63 195.92 60.05 C 195.85 42.68 195.81 25.30 195.94 7.94 C 195.67 4.33 198.21 1.56 201.21 0.00 Z"/><path fill="#009900" opacity="1.00" d=" M 285.34 0.00 L 289.56 0.00 C 299.64 6.51 306.88 16.54 315.82 24.47 C 324.46 16.40 332.05 7.16 341.48 0.00 L 345.56 0.00 C 348.46 1.19 350.73 3.46 352.00 6.31 L 352.00 10.39 C 344.79 19.81 335.45 27.33 327.39 36.00 C 335.46 44.63 344.69 52.20 352.00 61.52 L 352.00 65.57 C 350.79 68.45 348.56 70.73 345.70 72.00 L 341.67 72.00 C 332.02 65.03 324.53 55.58 315.82 47.53 C 306.93 55.47 299.63 65.34 289.69 72.00 L 285.70 72.00 C 280.45 70.08 277.61 63.11 281.69 58.70 C 288.89 50.85 296.80 43.66 304.21 36.00 C 296.68 28.14 288.48 20.91 281.28 12.76 C 277.70 8.27 280.80 2.31 285.34 0.00 Z"/><path fill="#009900" opacity="1.00" d=" M 81.64 36.01 C 88.36 24.23 95.11 12.47 101.87 0.71 C 115.25 0.84 128.65 0.49 142.02 0.87 C 148.47 8.82 153.81 17.68 159.73 26.06 C 153.85 26.17 147.97 26.15 142.09 26.07 C 139.41 22.29 136.76 18.48 134.08 14.69 C 126.09 14.70 118.09 14.66 110.10 14.71 C 106.15 21.83 102.08 28.88 98.14 36.00 C 102.08 43.12 106.15 50.17 110.10 57.29 C 118.09 57.34 126.09 57.30 134.08 57.31 C 135.70 54.44 137.27 51.56 138.80 48.65 C 132.10 48.39 125.35 49.06 118.68 48.32 C 113.37 47.69 110.79 40.39 114.52 36.56 C 116.54 34.00 120.03 33.94 123.00 33.92 C 136.53 33.99 150.07 33.89 163.60 33.99 C 156.48 46.45 149.31 58.88 142.08 71.28 C 128.64 71.31 115.20 71.24 101.76 71.32 C 94.95 59.61 88.34 47.79 81.64 36.01 Z"/><path fill="#009900" opacity="1.00" d=" M 171.77 33.91 C 176.50 33.86 181.22 33.87 185.95 33.89 C 185.83 44.27 186.25 54.67 185.81 65.04 C 185.88 68.24 183.21 70.24 180.93 72.00 L 177.31 72.00 C 174.51 70.69 171.74 68.44 171.88 65.04 C 171.52 54.67 171.85 44.28 171.77 33.91 Z"/></svg>
