<svg xmlns="http://www.w3.org/2000/svg"viewBox="40 17 420 465"><path fill="#8cc84b" opacity="1.00" d=" M 230.96 21.93 C 242.49 15.33 257.51 15.30 269.03 21.93 C 326.99 54.68 384.97 87.38 442.92 120.15 C 453.82 126.29 461.11 138.42 461.00 150.98 C 461.00 216.66 461.00 282.34 461.00 348.02 C 461.08 361.10 453.07 373.52 441.57 379.52 C 383.80 412.09 326.06 444.70 268.30 477.27 C 256.53 484.00 241.21 483.48 229.81 476.20 C 212.49 466.16 195.14 456.17 177.82 446.14 C 174.28 444.03 170.29 442.35 167.79 438.92 C 170.00 435.94 173.95 435.57 177.16 434.27 C 184.39 431.97 191.03 428.28 197.67 424.70 C 199.35 423.55 201.40 423.99 203.01 425.02 C 217.82 433.51 232.50 442.25 247.36 450.66 C 250.53 452.49 253.74 450.06 256.45 448.55 C 313.14 416.51 369.90 384.59 426.58 352.54 C 428.68 351.53 429.84 349.30 429.67 347.00 C 429.71 282.00 429.68 216.99 429.69 151.99 C 429.93 149.38 428.42 146.98 426.06 145.91 C 368.49 113.49 310.95 81.02 253.39 48.59 C 251.33 47.19 248.67 47.18 246.61 48.58 C 189.05 81.02 131.52 113.52 73.96 145.94 C 71.61 147.01 70.03 149.37 70.31 151.99 C 70.32 216.99 70.31 282.00 70.31 347.01 C 70.11 349.31 71.35 351.49 73.44 352.48 C 88.80 361.19 104.18 369.84 119.55 378.52 C 128.21 383.18 138.84 385.95 148.38 382.38 C 156.80 379.36 162.70 370.77 162.54 361.83 C 162.62 297.21 162.50 232.58 162.60 167.97 C 162.39 165.10 165.11 162.73 167.90 163.00 C 175.28 162.95 182.67 162.90 190.05 163.02 C 193.13 162.95 195.25 166.04 194.87 168.93 C 194.84 233.96 194.95 298.99 194.82 364.02 C 194.84 381.35 187.72 400.21 171.69 408.69 C 151.94 418.92 127.53 416.75 108.02 406.94 C 91.13 398.51 75.01 388.56 58.42 379.53 C 46.89 373.56 38.92 361.09 39.00 348.02 C 39.00 282.34 39.00 216.66 39.00 150.98 C 38.88 138.16 46.46 125.81 57.70 119.76 C 115.46 87.16 173.21 54.54 230.96 21.93 Z" /><path fill="#8cc84b" opacity="1.00" d=" M 281.35 158.42 C 306.54 156.80 333.51 157.46 356.18 169.87 C 373.73 179.38 383.46 199.34 383.77 218.84 C 383.28 221.47 380.53 222.92 378.02 222.74 C 370.71 222.73 363.40 222.84 356.09 222.69 C 352.99 222.81 351.19 219.95 350.80 217.21 C 348.70 207.88 343.61 198.64 334.83 194.14 C 321.35 187.39 305.72 187.73 291.02 187.87 C 280.29 188.44 268.75 189.37 259.66 195.68 C 252.68 200.46 250.56 210.11 253.05 217.88 C 255.40 223.46 261.84 225.26 267.11 226.92 C 297.47 234.86 329.64 234.07 359.42 244.52 C 371.75 248.78 383.81 257.06 388.03 269.97 C 393.55 287.27 391.13 307.95 378.82 321.84 C 368.84 333.27 354.30 339.49 339.80 342.87 C 320.51 347.17 300.49 347.28 280.90 345.37 C 262.48 343.27 243.31 338.43 229.09 325.88 C 216.93 315.32 210.99 298.87 211.58 282.99 C 211.72 280.31 214.39 278.44 216.96 278.66 C 224.32 278.60 231.68 278.58 239.04 278.67 C 241.98 278.46 244.16 281.00 244.31 283.77 C 245.67 292.66 249.01 301.99 256.76 307.26 C 271.72 316.91 290.49 316.25 307.62 316.52 C 321.81 315.89 337.74 315.70 349.32 306.32 C 355.43 300.97 357.24 292.02 355.59 284.32 C 353.80 277.82 347.00 274.79 341.16 272.81 C 311.19 263.33 278.66 266.77 248.98 256.05 C 236.93 251.79 225.28 243.74 220.65 231.36 C 214.19 213.84 217.15 192.17 230.75 178.75 C 244.01 165.40 263.15 160.26 281.35 158.42 Z" /></svg>
