<svg xmlns="http://www.w3.org/2000/svg" viewBox="0 0 300 327"><path fill="#5e3c13" opacity="1.00" d="M148.57 0L151.4 0C158.68 2.1 165.44 5.59 172.27 8.79 207.67 26.48 242.12 45.99 276.55 65.5 288.42 72.13 298.62 83.61 300 97.6L300 229.22C298.06 241.71 288.96 252.13 278.16 258.14 245.25 277.44 212.3 296.7 178.56 314.55 169.66 318.93 160.98 323.96 151.49 327L148.55 327C141.14 324.75 134.32 320.99 127.41 317.58 95.4 301.13 64.35 282.92 33.25 264.84 27.63 261.44 21.79 258.36 16.35 254.66 8.25 248.42 1.52 239.59 0 229.26L0 97.57C1.34 84.11 10.89 72.91 22.19 66.23 46.01 52.62 69.96 39.22 94.12 26.21 107.72 18.99 121.29 11.68 135.28 5.22 139.61 3.24 143.97 1.28 148.57 0M116.77 32.71C87.64 48 58.93 64.09 30.37 80.4 22.77 84.91 15.91 92.58 16.07 101.91 15.9 142.29 16.06 182.67 15.99 223.05 15.41 233.99 24.92 241.75 33.78 246.2 62.06 262.8 90.42 279.26 119.26 294.87 129.38 300.25 139.47 305.74 150.01 310.26 156.98 307.34 163.65 303.79 170.39 300.39 204.34 282.43 237.49 263.03 270.62 243.63 275.62 240.81 279.83 236.56 282.43 231.44 284.37 227.6 283.95 223.17 284.02 219.01 283.99 182.01 283.99 145.02 284.01 108.03 283.96 103.45 284.32 98.67 282.5 94.35 279.95 88.11 274.71 83.36 268.99 80.02 240.41 63.74 211.72 47.64 182.59 32.37 171.87 26.84 161.19 21.18 150 16.65 138.59 21.28 127.7 27.06 116.77 32.71Z"/><path fill="#5e3c13" opacity="1.00" d="M100.27 73.29C107.95 71.38 116.97 72.44 122.85 78.17 132.05 86.47 131.99 102.48 123.08 110.98 114.87 118.65 100.86 118.99 92.25 111.8 84.17 105.06 82.44 92.46 87.42 83.39 90.08 78.45 94.89 74.81 100.27 73.29M104.27 84.4C97.73 86.15 96.3 94.7 98.86 100.12 101.31 105.65 109.47 106.71 113.68 102.66 117.29 99.05 117.48 93 115.28 88.6 113.26 84.71 108.33 83.21 104.27 84.4Z"/><path fill="#5e3c13" opacity="1.00" d="M139.41 73.57C143.57 72.93 147.81 73.38 152.01 73.26 157.44 73.32 163.35 72.84 168.18 75.8 172.58 78.42 173.85 84.82 171.15 89.06 169.8 91.16 167.33 91.95 165.18 92.91 168.14 93.96 171.32 95.32 172.78 98.32 175.21 103.21 174.34 110.32 169.33 113.27 164.39 116.09 158.47 115.98 152.96 116.02 148.66 115.9 144.33 116.26 140.05 115.81 136.79 115.53 134.81 112.18 135.04 109.12 134.94 99.72 135.01 90.32 135 80.92 134.78 77.89 136.15 74.31 139.41 73.57M148.01 82.75C148 85.34 148 87.93 148.01 90.52 150.94 90.44 154.03 90.96 156.86 89.96 159.64 88.94 159.78 84.12 156.92 83.16 154.02 82.36 150.97 82.8 148.01 82.75M148.01 98.28C148 101.02 147.99 103.76 148.01 106.51 151.3 106.46 154.67 106.9 157.91 106.15 161.5 105.25 161.42 99.04 157.67 98.52 154.48 98 151.23 98.3 148.01 98.28Z"/><path fill="#5e3c13" opacity="1.00" d="M193.96 77.95C194.05 71.87 203.6 71.19 206.41 75.49 207.92 79.81 207.06 84.52 207.27 89 207.05 96.15 208.2 103.93 204.54 110.43 200.58 116.82 192.08 117.59 185.32 116.6 181.24 116.07 176.28 113.74 175.99 109.07 175.48 106 177.58 103.52 179.79 101.72 182.17 103.62 184.72 105.89 187.99 105.73 190.42 105.95 193.3 104.58 193.57 101.92 194.14 93.95 193.29 85.92 193.96 77.95Z"/><path fill="#ad7745" opacity="1.00" d="M116.77 32.71C127.7 27.06 138.59 21.28 150 16.65 161.19 21.18 171.87 26.84 182.59 32.37 211.72 47.64 240.41 63.74 268.99 80.02 274.71 83.36 279.95 88.11 282.5 94.35 284.32 98.67 283.96 103.45 284.01 108.03 283.99 145.02 283.99 182.01 284.02 219.01 283.95 223.17 284.37 227.6 282.43 231.44 279.83 236.56 275.62 240.81 270.62 243.63 237.49 263.03 204.34 282.43 170.39 300.39 163.65 303.79 156.98 307.34 150.01 310.26 139.47 305.74 129.38 300.25 119.26 294.87 90.42 279.26 62.06 262.8 33.78 246.2 24.92 241.75 15.41 233.99 15.99 223.05 16.06 182.67 15.9 142.29 16.07 101.91 15.91 92.58 22.77 84.91 30.37 80.4 58.93 64.09 87.64 48 116.77 32.71M100.27 73.29C94.89 74.81 90.08 78.45 87.42 83.39 82.44 92.46 84.17 105.06 92.25 111.8 100.86 118.99 114.87 118.65 123.08 110.98 131.99 102.48 132.05 86.47 122.85 78.17 116.97 72.44 107.95 71.38 100.27 73.29M139.41 73.57C136.15 74.31 134.78 77.89 135 80.92 135.01 90.32 134.94 99.72 135.04 109.12 134.81 112.18 136.79 115.53 140.05 115.81 144.33 116.26 148.66 115.9 152.96 116.02 158.47 115.98 164.39 116.09 169.33 113.27 174.34 110.32 175.21 103.21 172.78 98.32 171.32 95.32 168.14 93.96 165.18 92.91 167.33 91.95 169.8 91.16 171.15 89.06 173.85 84.82 172.58 78.42 168.18 75.8 163.35 72.84 157.44 73.32 152.01 73.26 147.81 73.38 143.57 72.93 139.41 73.57M193.96 77.95C193.29 85.92 194.14 93.95 193.57 101.92 193.3 104.58 190.42 105.95 187.99 105.73 184.72 105.89 182.17 103.62 179.79 101.72 177.58 103.52 175.48 106 175.99 109.07 176.28 113.74 181.24 116.07 185.32 116.6 192.08 117.59 200.58 116.82 204.54 110.43 208.2 103.93 207.05 96.15 207.27 89 207.06 84.52 207.92 79.81 206.41 75.49 203.6 71.19 194.05 71.87 193.96 77.95M127.15 136.15C113.93 140.78 102.47 150.36 95.81 162.71 88.28 176.42 86.73 192.82 89.44 208.07 92.28 223.48 101.09 237.99 114.37 246.54 129.8 256.76 149.43 258.61 167.28 255.17 177.31 252.82 187.43 248.16 193.68 239.64 197.87 233.93 199.99 225.9 196.72 219.28 192.61 212.38 184.56 208.65 176.75 208.13 174.4 213.31 170.51 217.87 165.26 220.25 155.52 224.63 142.91 223.52 135.03 215.93 125.38 206.9 123.94 191.25 129.76 179.76 134.23 170.91 144.25 165.58 154.07 166.22 163.36 166.25 172.29 171.76 176.43 180.09 184.13 179.61 191.8 175.67 195.98 169.08 200.04 161.61 196.64 152.42 191.33 146.52 183.02 137.66 170.74 133.54 158.88 132.57 148.22 131.64 137.26 132.48 127.15 136.15Z"/><path fill="#ad7745" opacity="1.00" d="M148.01 82.75C150.97 82.8 154.02 82.36 156.92 83.16 159.78 84.12 159.64 88.94 156.86 89.96 154.03 90.96 150.94 90.44 148.01 90.52 148 87.93 148 85.34 148.01 82.75Z"/><path fill="#ad7745" opacity="1.00" d="M104.27 84.4C108.33 83.21 113.26 84.71 115.28 88.6 117.48 93 117.29 99.05 113.68 102.66 109.47 106.71 101.31 105.65 98.86 100.12 96.3 94.7 97.73 86.15 104.27 84.4Z"/><path fill="#ad7745" opacity="1.00" d="M148.01 98.28C151.23 98.3 154.48 98 157.67 98.52 161.42 99.04 161.5 105.25 157.91 106.15 154.67 106.9 151.3 106.46 148.01 106.51 147.99 103.76 148 101.02 148.01 98.28Z"/><path fill="#ffffff" opacity="1.00" d="M127.15 136.15C137.26 132.48 148.22 131.64 158.88 132.57 170.74 133.54 183.02 137.66 191.33 146.52 196.64 152.42 200.04 161.61 195.98 169.08 191.8 175.67 184.13 179.61 176.43 180.09 172.29 171.76 163.36 166.25 154.07 166.22 144.25 165.58 134.23 170.91 129.76 179.76 123.94 191.25 125.38 206.9 135.03 215.93 142.91 223.52 155.52 224.63 165.26 220.25 170.51 217.87 174.4 213.31 176.75 208.13 184.56 208.65 192.61 212.38 196.72 219.28 199.99 225.9 197.87 233.93 193.68 239.64 187.43 248.16 177.31 252.82 167.28 255.17 149.43 258.61 129.8 256.76 114.37 246.54 101.09 237.99 92.28 223.48 89.44 208.07 86.73 192.82 88.28 176.42 95.81 162.71 102.47 150.36 113.93 140.78 127.15 136.15Z"/></svg>