<svg xmlns="http://www.w3.org/2000/svg"viewBox="0 0 500 130"><g><path fill="#5a5a5c" opacity="1.00" d=" M 445.63 3.16 C 458.63 3.36 471.66 2.78 484.65 3.43 C 492.20 3.88 498.36 9.66 500.00 16.93 L 500.00 26.76 C 498.19 33.13 495.02 39.02 490.97 44.24 C 492.67 49.41 493.64 54.79 493.88 60.23 C 488.43 60.27 482.97 60.28 477.52 60.23 C 476.18 57.82 475.41 53.92 472.01 53.83 C 464.43 53.27 456.81 53.78 449.22 53.63 C 450.87 48.39 451.33 42.63 453.96 37.78 C 459.94 37.20 465.97 37.97 471.97 37.53 C 478.67 37.48 483.80 29.66 481.47 23.46 C 480.18 20.59 476.70 20.61 474.03 20.58 C 462.99 20.62 451.95 20.65 440.91 20.60 C 442.44 14.78 444.05 8.97 445.63 3.16 Z"/><path fill="#5a5a5c" opacity="1.00" d=" M 273.61 54.63 C 284.91 51.53 298.12 59.49 299.55 71.34 C 300.01 79.31 299.61 87.30 299.73 95.27 C 296.61 95.27 293.49 95.24 290.37 95.21 C 290.30 87.79 290.55 80.37 290.30 72.96 C 290.00 66.02 282.70 60.91 276.02 62.70 C 265.12 64.57 263.85 82.06 273.43 86.54 C 275.87 87.61 278.60 87.55 281.21 87.65 C 281.20 90.40 281.20 93.16 281.20 95.91 C 270.31 97.12 258.86 89.26 257.80 78.02 C 255.94 67.60 263.27 56.78 273.61 54.63 Z"/><path fill="#5a5a5c" opacity="1.00" d=" M 365.54 53.90 C 377.34 51.89 389.81 60.79 390.64 72.92 C 392.14 84.66 381.90 96.28 370.02 95.99 C 360.04 96.67 350.66 88.87 348.78 79.18 C 346.88 71.02 350.84 62.51 357.29 57.51 C 357.56 63.67 357.16 69.83 357.47 75.99 C 357.88 82.18 363.76 87.50 370.02 86.97 C 377.12 87.06 382.90 79.72 381.43 72.83 C 380.40 65.54 372.31 61.30 365.48 63.20 C 365.49 60.10 365.51 57.00 365.54 53.90 Z"/><path fill="#5a5a5c" opacity="1.00" d=" M 395.45 88.51 C 401.11 85.73 404.98 94.95 399.31 97.23 C 393.92 99.58 390.26 91.00 395.45 88.51 Z"/></g><g><path fill="#6db33f" opacity="1.00" d=" M 405.84 12.89 C 417.94 8.59 432.54 17.42 433.62 30.36 C 435.50 41.95 425.84 53.74 414.07 53.94 C 403.08 55.10 392.43 46.00 391.74 35.00 C 390.80 27.44 394.66 20.13 400.51 15.53 C 401.15 22.87 399.64 30.44 401.45 37.63 C 405.11 47.09 420.10 47.32 423.90 37.85 C 427.87 29.53 420.34 19.89 411.41 20.72 C 411.38 22.21 411.37 23.70 411.36 25.19 C 417.58 24.67 421.56 31.31 418.81 36.72 C 416.35 42.38 406.91 41.08 406.10 34.94 C 405.46 27.62 406.02 20.24 405.84 12.89 Z"/><path fill="#6db33f" opacity="1.00" d=" M 17.25 53.93 C 27.70 52.62 38.89 59.01 41.38 69.58 C 45.16 81.91 34.92 95.81 22.04 95.87 C 11.49 96.76 2.18 88.42 0.00 78.40 L 0.00 71.66 C 1.30 66.14 4.48 61.33 8.71 57.62 C 9.03 63.77 8.59 69.92 8.93 76.06 C 9.16 82.94 16.29 88.34 22.98 87.05 C 31.25 86.09 36.37 75.50 31.51 68.56 C 28.66 63.45 22.48 62.21 17.09 62.76 C 17.15 59.82 17.18 56.87 17.25 53.93 Z"/><path fill="#6db33f" opacity="1.00" d=" M 47.28 71.10 C 49.20 57.25 66.52 49.67 78.38 56.56 C 89.39 62.00 92.70 77.69 85.36 87.37 C 80.92 93.64 73.02 96.44 65.54 95.93 C 65.50 93.17 65.50 90.41 65.47 87.65 C 76.16 89.87 83.22 77.53 78.48 68.60 C 74.28 59.03 58.16 61.19 56.74 71.65 C 55.91 85.77 56.52 99.99 56.36 114.15 C 53.29 114.16 50.21 114.16 47.13 114.16 C 47.22 99.81 46.89 85.44 47.28 71.10 Z"/><path fill="#6db33f" opacity="1.00" d=" M 97.46 63.46 C 102.55 55.57 113.06 52.07 121.91 55.06 C 131.55 57.86 137.85 68.21 136.34 78.08 C 128.47 79.12 120.35 78.18 112.39 78.51 C 112.39 75.83 112.39 73.16 112.39 70.49 C 117.15 70.49 121.91 70.56 126.68 70.41 C 124.46 64.57 118.15 61.05 112.03 62.80 C 102.01 65.28 100.57 80.72 108.99 85.98 C 114.45 89.28 121.81 87.45 125.52 82.38 C 128.36 83.33 131.21 84.22 134.05 85.18 C 128.17 95.61 113.38 99.24 103.45 92.52 C 94.01 86.57 91.13 72.63 97.46 63.46 Z"/><path fill="#6db33f" opacity="1.00" d=" M 141.35 72.00 C 142.30 61.09 153.35 52.79 164.06 53.90 C 174.10 54.40 183.08 62.88 183.68 73.00 C 183.96 80.49 183.71 88.00 183.78 95.51 C 180.53 95.50 177.29 95.50 174.04 95.50 C 173.53 86.97 174.98 78.26 173.14 69.85 C 170.24 60.28 154.69 60.22 151.76 69.80 C 149.79 78.18 151.31 86.96 150.83 95.51 C 147.64 95.50 144.46 95.50 141.27 95.51 C 141.33 87.67 141.11 79.83 141.35 72.00 Z"/><path fill="#6db33f" opacity="1.00" d=" M 414.85 109.05 C 415.49 107.23 416.75 106.02 418.74 106.00 C 418.70 106.72 418.61 108.17 418.57 108.89 C 417.32 108.99 416.09 109.04 414.85 109.05 Z"/><path fill="#6db33f" opacity="1.00" d=" M 422.47 106.03 C 423.50 105.99 424.54 105.95 425.58 105.90 C 424.43 111.24 423.44 116.62 422.20 121.94 C 421.45 121.90 419.95 121.83 419.21 121.79 C 420.34 116.55 421.27 111.26 422.47 106.03 Z"/><path fill="#6db33f" opacity="1.00" d=" M 387.95 122.80 C 382.62 116.59 391.42 108.05 398.29 110.79 C 397.54 114.44 396.76 118.09 396.11 121.77 C 395.38 121.83 393.92 121.94 393.19 121.99 C 393.31 121.14 393.54 119.43 393.66 118.58 C 391.96 120.25 390.10 121.74 387.95 122.80 M 389.46 120.10 C 392.02 118.10 394.02 115.51 395.28 112.51 C 391.05 111.74 388.96 116.58 389.46 120.10 Z"/><path fill="#6db33f" opacity="1.00" d=" M 399.61 120.36 C 398.37 113.71 405.35 108.88 411.47 110.76 C 410.46 115.03 410.16 119.50 408.47 123.57 C 406.58 126.81 402.39 125.79 399.29 125.90 C 399.19 125.23 398.97 123.88 398.87 123.20 C 403.11 125.20 407.16 123.60 407.21 118.38 C 405.47 120.04 401.43 124.03 399.61 120.36 M 402.56 119.92 C 404.90 118.15 407.35 116.07 408.01 113.05 C 404.48 110.72 402.02 117.04 402.56 119.92 Z"/><path fill="#6db33f" opacity="1.00" d=" M 414.99 110.84 C 415.74 110.84 417.26 110.85 418.01 110.85 C 417.31 114.48 416.54 118.10 415.89 121.74 C 415.15 121.79 413.66 121.89 412.91 121.94 C 413.41 118.21 414.15 114.51 414.99 110.84 Z"/><path fill="#6db33f" opacity="1.00" d=" M 425.77 119.91 C 424.58 114.43 429.90 109.44 435.32 110.62 C 437.27 115.53 431.82 117.74 428.13 118.87 C 430.61 120.74 433.51 119.52 436.08 118.57 C 435.81 119.23 435.28 120.56 435.01 121.23 C 431.96 121.91 427.71 123.38 425.77 119.91 M 428.56 116.39 C 430.75 115.91 432.78 114.89 433.37 112.53 C 430.84 112.37 429.58 114.47 428.56 116.39 Z"/><path fill="#6db33f" opacity="1.00" d=" M 445.02 120.96 C 441.81 116.12 448.34 108.14 453.65 111.33 C 456.19 115.80 449.60 117.71 446.53 118.96 C 449.17 120.59 452.15 119.47 454.88 118.73 C 453.28 122.31 447.99 123.33 445.02 120.96 M 449.51 112.96 C 448.43 113.26 446.94 115.58 448.74 115.90 C 450.85 116.36 452.44 111.93 449.51 112.96 Z"/><path fill="#6db33f" opacity="1.00" d=" M 458.14 110.80 C 458.87 110.80 460.31 110.80 461.04 110.79 C 460.91 111.67 460.65 113.41 460.51 114.28 C 462.22 112.38 464.18 110.63 466.84 110.32 C 464.43 114.43 459.20 116.45 458.73 121.84 C 458.04 121.84 456.65 121.85 455.95 121.85 C 456.71 118.18 457.44 114.49 458.14 110.80 Z"/><path fill="#6db33f" opacity="1.00" d=" M 468.38 110.47 C 470.22 110.62 471.31 111.63 471.44 113.55 C 472.88 112.00 474.50 110.02 476.91 110.70 C 480.41 115.69 474.66 122.63 469.08 122.50 C 468.76 123.63 468.46 124.77 468.15 125.90 C 467.41 125.88 465.93 125.85 465.19 125.84 C 466.32 120.73 467.25 115.58 468.38 110.47 M 469.33 120.47 C 473.56 120.47 474.79 116.27 475.08 112.83 C 472.23 114.53 469.93 117.11 469.33 120.47 Z"/></g><g><path fill="#5f6062" opacity="1.00" d=" M 188.44 36.16 C 191.30 34.89 194.93 35.89 198.09 35.65 C 198.01 49.91 197.59 64.22 198.49 78.45 C 199.95 89.22 217.11 90.47 220.25 80.19 C 224.15 71.35 216.92 60.22 206.83 62.51 C 206.84 59.60 206.84 56.69 206.86 53.78 C 217.14 52.76 227.99 59.24 230.32 69.62 C 233.97 81.91 223.98 95.87 211.08 95.91 C 199.74 97.25 188.32 87.59 188.34 76.07 C 188.38 62.77 188.15 49.46 188.44 36.16 Z"/><path fill="#5f6062" opacity="1.00" d=" M 235.57 71.17 C 236.87 60.98 246.81 53.78 256.76 53.65 C 256.78 56.56 256.78 59.48 256.78 62.39 C 251.23 62.53 245.90 66.38 245.26 72.12 C 244.61 79.89 244.93 87.72 244.83 95.51 C 241.69 95.50 238.54 95.50 235.40 95.52 C 235.49 87.40 235.13 79.28 235.57 71.17 Z"/><path fill="#5f6062" opacity="1.00" d=" M 306.62 54.51 C 309.80 54.50 312.97 54.49 316.15 54.49 C 316.39 65.42 316.19 76.35 316.26 87.28 C 322.55 87.92 330.78 87.07 332.86 79.90 C 334.53 71.58 333.19 62.95 333.62 54.51 C 336.87 54.50 340.12 54.50 343.38 54.51 C 343.34 61.68 343.45 68.84 343.36 76.01 C 343.26 84.80 336.65 93.27 327.88 94.84 C 320.87 96.09 313.71 95.29 306.63 95.50 C 306.60 81.84 306.63 68.18 306.62 54.51 Z"/><path fill="#5f6062" opacity="1.00" d=" M 475.57 70.31 C 481.46 70.23 487.36 70.24 493.26 70.34 C 487.94 83.38 475.58 92.79 461.77 95.16 C 461.84 89.91 461.60 84.66 460.87 79.46 C 466.45 77.69 471.62 74.69 475.57 70.31 Z"/></g><g><path fill="#bebec0" opacity="1.00" d=" M 438.10 76.36 C 440.42 77.45 442.81 78.39 445.23 79.27 C 445.29 84.44 446.57 90.06 443.77 94.76 C 438.02 93.23 432.56 90.69 427.92 86.94 C 431.21 83.32 434.75 79.93 438.10 76.36 Z"/></g><g><path fill="#858586" opacity="1.00" d=" M 445.23 79.27 C 450.39 80.26 455.69 80.63 460.87 79.46 C 461.60 84.66 461.84 89.91 461.77 95.16 C 455.80 96.05 449.69 96.04 443.77 94.76 C 446.57 90.06 445.29 84.44 445.23 79.27 Z" /></g></svg>
