<svg xmlns="http://www.w3.org/2000/svg"viewBox="0 0 300 291"><g><path fill="#04a9ce" opacity="1.00" d=" M 0.00 0.00 L 192.51 0.00 C 192.65 2.66 192.79 5.33 192.93 7.99 C 225.71 8.87 258.54 7.63 291.32 8.60 C 197.13 8.91 102.93 8.40 8.73 8.72 C 8.42 99.90 8.95 191.08 8.59 282.26 C 7.82 248.84 8.49 215.37 8.28 181.95 C 7.49 176.21 2.11 172.50 0.00 167.24 L 0.00 0.00 Z"/></g><g>
<path fill="#00b5de" opacity="1.00" d=" M 192.51 0.00 L 300.00 0.00 L 300.00 291.00 L 0.00 291.00 L 0.00 167.24 C 2.11 172.50 7.49 176.21 8.28 181.95 C 8.49 215.37 7.82 248.84 8.59 282.26 C 102.83 282.36 197.08 282.29 291.32 282.29 C 291.28 191.06 291.33 99.83 291.32 8.60 C 258.54 7.63 225.71 8.87 192.93 7.99 C 192.79 5.33 192.65 2.66 192.51 0.00 Z"/><path fill="#00b5de" opacity="1.00" d=" M 66.48 73.90 C 83.46 71.30 100.82 69.92 117.97 71.35 C 131.36 72.30 145.54 77.03 153.85 88.17 C 169.64 109.47 164.76 145.51 140.37 158.38 C 127.12 165.94 111.38 166.54 96.53 165.54 C 96.54 182.68 96.60 199.82 96.49 216.97 C 86.98 217.49 77.43 217.16 67.90 217.22 C 66.06 217.56 66.63 215.09 66.43 214.05 C 66.54 167.33 66.27 120.61 66.48 73.90 M 96.44 97.38 C 96.71 111.46 96.61 125.54 96.49 139.62 C 106.04 141.66 116.98 141.03 125.00 134.91 C 134.37 126.86 135.52 110.27 126.40 101.60 C 118.33 94.44 106.26 95.42 96.44 97.38 Z"/><path fill="#00b5de" opacity="1.00" d=" M 184.94 115.86 C 200.48 106.64 220.81 108.04 236.69 115.68 C 234.97 123.11 233.06 130.50 231.49 137.97 C 222.78 134.35 212.90 130.01 203.46 133.52 C 198.38 135.12 196.99 142.60 201.04 145.99 C 206.52 150.54 213.68 152.03 219.97 155.08 C 227.34 158.44 234.34 163.60 237.84 171.11 C 244.59 185.63 239.91 205.47 225.20 213.18 C 207.41 222.43 185.08 220.80 167.32 212.27 C 168.67 204.38 170.81 196.66 172.46 188.83 C 183.09 193.59 195.23 199.01 206.94 194.97 C 213.54 192.35 212.64 182.17 206.36 179.68 C 195.85 174.57 183.57 171.63 175.95 162.03 C 163.92 148.15 169.56 124.86 184.94 115.86 Z"/></g><g><path fill="#022635" opacity="1.00" d=" M 8.73 8.72 C 102.93 8.40 197.13 8.91 291.32 8.60 C 291.33 99.83 291.28 191.06 291.32 282.29 C 197.08 282.29 102.83 282.36 8.59 282.26 C 8.95 191.08 8.42 99.90 8.73 8.72 M 66.48 73.90 C 66.27 120.61 66.54 167.33 66.43 214.05 C 66.63 215.09 66.06 217.56 67.90 217.22 C 77.43 217.16 86.98 217.49 96.49 216.97 C 96.60 199.82 96.54 182.68 96.53 165.54 C 111.38 166.54 127.12 165.94 140.37 158.38 C 164.76 145.51 169.64 109.47 153.85 88.17 C 145.54 77.03 131.36 72.30 117.97 71.35 C 100.82 69.92 83.46 71.30 66.48 73.90 M 184.94 115.86 C 169.56 124.86 163.92 148.15 175.95 162.03 C 183.57 171.63 195.85 174.57 206.36 179.68 C 212.64 182.17 213.54 192.35 206.94 194.97 C 195.23 199.01 183.09 193.59 172.46 188.83 C 170.81 196.66 168.67 204.38 167.32 212.27 C 185.08 220.80 207.41 222.43 225.20 213.18 C 239.91 205.47 244.59 185.63 237.84 171.11 C 234.34 163.60 227.34 158.44 219.97 155.08 C 213.68 152.03 206.52 150.54 201.04 145.99 C 196.99 142.60 198.38 135.12 203.46 133.52 C 212.90 130.01 222.78 134.35 231.49 137.97 C 233.06 130.50 234.97 123.11 236.69 115.68 C 220.81 108.04 200.48 106.64 184.94 115.86 Z"/><path fill="#022635" opacity="1.00" d=" M 96.44 97.38 C 106.26 95.42 118.33 94.44 126.40 101.60 C 135.52 110.27 134.37 126.86 125.00 134.91 C 116.98 141.03 106.04 141.66 96.49 139.62 C 96.61 125.54 96.71 111.46 96.44 97.38 Z"/></g></svg>
