<?xml version="1.0" encoding="UTF-8" ?><svg xmlns="http://www.w3.org/2000/svg"viewBox="0 0 261 142"><g><path fill="#2f2f2f" opacity="1.00" d=" M 61.95 0.00 L 73.94 0.00 L 74.41 0.47 C 73.58 7.83 72.40 15.14 71.54 22.49 C 71.90 22.26 72.61 21.81 72.97 21.58 C 83.09 14.58 99.09 15.43 104.97 27.48 C 105.17 24.42 105.41 21.36 105.74 18.30 C 109.97 18.31 114.30 17.79 118.42 18.98 C 117.86 20.32 117.85 21.65 118.39 22.98 L 118.87 22.75 C 123.34 20.42 127.74 17.43 132.92 17.09 C 144.45 15.88 156.12 23.85 159.33 34.95 C 160.17 46.22 158.80 58.88 149.58 66.65 C 142.12 73.93 130.99 74.01 121.38 72.19 C 118.68 70.66 116.40 68.51 114.16 66.39 C 113.56 65.81 112.96 65.23 112.36 64.65 C 111.96 69.18 111.41 73.68 110.66 78.16 C 106.74 78.30 102.82 78.46 98.91 78.79 C 98.80 77.19 98.83 75.59 98.85 73.99 C 98.86 73.54 98.88 72.65 98.89 72.21 C 95.00 72.16 91.08 72.15 87.26 72.94 C 88.62 60.92 90.25 48.92 91.62 36.91 C 92.20 33.81 90.85 30.87 88.45 28.95 C 81.57 24.30 72.13 29.92 70.35 37.38 C 67.59 48.78 67.33 60.63 65.21 72.16 C 61.24 72.19 57.25 72.23 53.32 72.87 C 53.40 70.86 53.60 68.85 53.85 66.86 C 53.94 66.24 54.13 65.01 54.22 64.40 C 45.84 72.49 33.81 75.15 22.64 72.01 C 20.04 70.50 17.80 68.48 15.63 66.42 C 15.08 65.89 14.53 65.36 13.98 64.83 C 13.49 69.31 12.92 73.77 12.21 78.21 C 8.18 78.21 4.14 78.38 0.16 79.03 L 0.00 79.01 L 0.00 76.94 C 2.93 57.46 4.74 37.83 7.35 18.30 C 11.59 18.26 15.84 18.27 20.08 18.34 C 19.66 20.18 19.25 22.02 18.85 23.87 C 19.75 23.31 20.64 22.76 21.53 22.20 C 33.14 12.91 50.98 16.94 58.58 29.36 C 59.56 19.56 60.43 9.74 61.95 0.00 M 117.20 55.07 C 120.50 62.82 131.07 65.25 138.02 61.07 C 149.77 54.69 150.87 33.83 137.37 28.81 L 138.50 28.63 C 123.60 22.21 108.50 42.16 117.20 55.07 M 17.53 53.35 L 17.95 52.16 C 19.93 60.27 28.72 65.36 36.70 62.63 C 51.11 58.73 54.21 34.23 39.11 29.21 L 39.35 28.07 C 24.99 24.24 12.88 40.06 17.53 53.35 Z"/><path fill="#2f2f2f" opacity="1.00" d=" M 76.15 80.20 C 83.07 77.14 91.00 78.79 97.31 82.52 C 100.95 78.89 106.51 80.78 111.09 80.49 C 110.71 82.33 110.34 84.18 109.99 86.03 C 110.61 85.66 111.85 84.91 112.47 84.54 C 124.27 74.79 142.55 79.02 150.35 91.73 C 156.06 83.98 165.07 78.06 175.00 78.54 C 183.90 78.17 191.84 83.44 197.23 90.13 C 193.08 96.42 191.20 104.39 192.65 111.83 C 181.08 111.97 169.51 112.00 157.95 111.92 C 158.20 112.26 158.71 112.93 158.96 113.26 L 159.54 114.05 C 157.81 114.44 158.82 116.49 160.00 116.88 C 164.86 127.92 180.33 128.03 187.40 119.17 C 190.67 120.85 193.92 122.57 197.08 124.44 L 197.32 124.78 C 193.06 127.26 190.34 131.81 185.62 133.60 C 179.62 136.67 172.73 135.78 166.25 136.25 C 159.10 134.67 152.88 129.87 149.24 123.56 C 149.10 123.15 148.82 122.32 148.67 121.90 C 141.93 132.61 128.73 137.85 116.42 135.18 C 112.74 133.82 109.74 131.18 107.04 128.41 C 106.42 127.77 105.81 127.10 105.20 126.45 C 104.68 131.01 104.12 135.57 103.59 140.14 C 99.62 140.31 95.65 140.46 91.69 140.75 C 91.66 138.70 91.77 136.65 91.96 134.61 C 92.06 134.18 92.24 133.31 92.34 132.87 C 86.75 135.85 80.42 136.09 74.24 136.37 C 68.14 135.00 63.61 130.37 59.77 125.73 C 62.42 123.67 65.16 121.72 67.96 119.87 C 71.58 122.80 75.56 126.55 80.64 125.60 C 84.91 125.60 88.11 119.35 84.57 116.43 C 78.95 111.69 71.04 109.48 67.32 102.67 C 62.52 94.52 67.53 83.30 76.15 80.20 M 78.34 97.31 L 78.72 96.44 C 82.70 102.04 89.59 104.37 94.79 108.63 C 95.86 103.40 96.26 98.07 97.03 92.80 C 97.92 90.07 93.90 91.93 94.21 93.70 C 91.88 92.45 89.61 91.10 87.27 89.90 L 88.42 89.66 C 83.23 87.02 76.41 91.27 78.34 97.31 M 158.74 102.52 C 159.27 102.09 160.35 101.23 160.89 100.79 L 160.44 101.66 C 169.40 101.78 178.36 101.73 187.32 101.64 C 186.13 98.27 184.84 94.74 182.10 92.29 C 173.93 84.18 159.33 91.56 158.74 102.52 M 108.33 116.00 L 109.41 115.73 C 111.89 124.34 122.95 127.84 130.36 123.29 C 141.14 117.49 143.39 99.73 133.14 92.40 C 130.09 88.58 124.36 89.25 120.08 90.06 C 109.74 93.39 104.70 106.07 108.33 116.00 Z"/></g><g><path fill="#d8d9d8" opacity="0.94" d=" M 74.41 0.47 C 74.67 0.74 75.18 1.26 75.43 1.53 C 74.91 8.24 73.70 14.88 72.97 21.58 C 72.61 21.81 71.90 22.26 71.54 22.49 C 72.40 15.14 73.58 7.83 74.41 0.47 Z"/><path fill="#d8d9d8" opacity="0.94" d=" M 118.42 18.98 C 119.98 19.41 119.29 21.67 118.87 22.75 L 118.39 22.98 C 117.85 21.65 117.86 20.32 118.42 18.98 Z"/><path fill="#d8d9d8" opacity="0.94" d=" M 117.20 55.07 C 108.50 42.16 123.60 22.21 138.50 28.63 L 137.37 28.81 C 123.00 25.89 111.93 42.22 117.20 55.07 Z"/><path fill="#d8d9d8" opacity="0.94" d=" M 17.53 53.35 C 12.88 40.06 24.99 24.24 39.35 28.07 L 39.11 29.21 C 26.03 26.28 15.60 39.97 17.95 52.16 L 17.53 53.35 Z"/><path fill="#d8d9d8" opacity="0.94" d=" M 78.34 97.31 C 76.41 91.27 83.23 87.02 88.42 89.66 L 87.27 89.90 C 83.00 89.71 79.58 92.22 78.72 96.44 L 78.34 97.31 Z"/><path fill="#d8d9d8" opacity="0.94" d=" M 94.21 93.70 C 93.90 91.93 97.92 90.07 97.03 92.80 C 96.31 93.46 95.21 94.48 94.21 93.70 Z"/><path fill="#d8d9d8" opacity="0.94" d=" M 259.45 99.24 C 261.90 109.05 260.21 119.73 254.60 128.16 C 253.74 128.39 252.88 128.63 252.03 128.89 C 256.59 122.61 259.63 115.02 259.22 107.15 C 259.20 104.51 259.31 101.87 259.45 99.24 Z"/><path fill="#d8d9d8" opacity="0.94" d=" M 157.95 111.92 C 169.51 112.00 181.08 111.97 192.65 111.83 C 192.73 112.13 192.91 112.72 193.00 113.02 C 181.65 113.11 170.30 112.73 158.96 113.26 C 158.71 112.93 158.20 112.26 157.95 111.92 Z"/><path fill="#d8d9d8" opacity="0.94" d=" M 116.42 135.18 C 128.73 137.85 141.93 132.61 148.67 121.90 C 148.82 122.32 149.10 123.15 149.24 123.56 C 142.60 134.13 128.28 140.12 116.42 135.18 Z"/><path fill="#d8d9d8" opacity="0.94" d=" M 185.62 133.60 C 190.34 131.81 193.06 127.26 197.32 124.78 C 191.79 135.89 177.50 139.21 166.25 136.25 C 172.73 135.78 179.62 136.67 185.62 133.60 Z"/><path fill="#d8d9d8" opacity="0.94" d=" M 74.24 136.37 C 80.42 136.09 86.75 135.85 92.34 132.87 C 92.24 133.31 92.06 134.18 91.96 134.61 C 86.50 137.29 80.12 137.83 74.24 136.37 Z"/></g><g><path fill="#8e8d8c" opacity="0.78" d=" M 20.08 18.34 C 20.57 19.62 21.05 20.91 21.53 22.20 C 20.64 22.76 19.75 23.31 18.85 23.87 C 19.25 22.02 19.66 20.18 20.08 18.34 Z"/><path fill="#8e8d8c" opacity="0.78" d=" M 70.35 37.38 C 72.13 29.92 81.57 24.30 88.45 28.95 C 81.90 27.97 74.36 30.40 72.37 37.36 C 68.95 49.20 68.68 61.70 66.78 73.84 C 62.32 73.78 57.50 74.94 53.32 72.87 C 57.25 72.23 61.24 72.19 65.21 72.16 C 67.33 60.63 67.59 48.78 70.35 37.38 Z"/><path fill="#8e8d8c" opacity="0.78" d=" M 159.33 34.95 C 164.54 48.98 157.57 66.69 143.68 72.68 C 136.70 75.76 128.10 76.12 121.38 72.19 C 130.99 74.01 142.12 73.93 149.58 66.65 C 158.80 58.88 160.17 46.22 159.33 34.95 Z"/><path fill="#8e8d8c" opacity="0.78" d=" M 13.98 64.83 C 14.53 65.36 15.08 65.89 15.63 66.42 C 15.11 70.94 14.40 75.43 13.72 79.92 C 9.19 80.02 4.53 80.56 0.16 79.03 C 4.14 78.38 8.18 78.21 12.21 78.21 C 12.92 73.77 13.49 69.31 13.98 64.83 Z"/><path fill="#8e8d8c" opacity="0.78" d=" M 22.64 72.01 C 33.81 75.15 45.84 72.49 54.22 64.40 C 54.13 65.01 53.94 66.24 53.85 66.86 C 45.83 74.54 32.56 78.12 22.64 72.01 Z"/><path fill="#8e8d8c" opacity="0.78" d=" M 112.36 64.65 C 112.96 65.23 113.56 65.81 114.16 66.39 C 113.29 70.89 112.74 75.45 112.09 79.99 C 107.95 80.05 103.81 80.17 99.67 79.86 L 98.91 78.79 C 102.82 78.46 106.74 78.30 110.66 78.16 C 111.41 73.68 111.96 69.18 112.36 64.65 Z"/><path fill="#8e8d8c" opacity="0.78" d=" M 87.26 72.94 C 91.08 72.15 95.00 72.16 98.89 72.21 C 98.88 72.65 98.86 73.54 98.85 73.99 C 94.97 74.01 90.96 74.38 87.26 72.94 Z"/><path fill="#8e8d8c" opacity="0.78" d=" M 227.54 86.52 C 227.82 82.28 227.69 77.79 229.94 74.01 L 230.47 75.73 C 230.05 77.98 229.71 80.24 229.74 82.53 C 229.74 82.77 229.72 83.25 229.72 83.49 C 229.47 84.97 229.22 86.44 228.96 87.91 C 221.98 88.05 214.91 91.00 210.87 96.88 C 206.81 102.19 207.22 109.30 208.16 115.55 C 200.12 102.59 213.09 85.45 227.54 86.52 Z"/><path fill="#8e8d8c" opacity="0.78" d=" M 111.09 80.49 C 111.61 81.82 112.04 83.18 112.47 84.54 C 111.85 84.91 110.61 85.66 109.99 86.03 C 110.34 84.18 110.71 82.33 111.09 80.49 Z"/><path fill="#8e8d8c" opacity="0.78" d=" M 158.74 102.52 C 159.33 91.56 173.93 84.18 182.10 92.29 C 174.08 88.14 163.27 91.68 160.89 100.79 C 160.35 101.23 159.27 102.09 158.74 102.52 Z"/><path fill="#8e8d8c" opacity="0.78" d=" M 108.33 116.00 C 104.70 106.07 109.74 93.39 120.08 90.06 C 124.36 89.25 130.09 88.58 133.14 92.40 C 127.43 90.13 120.47 90.51 115.71 94.68 C 109.60 99.69 107.57 108.22 109.41 115.73 L 108.33 116.00 Z"/><path fill="#8e8d8c" opacity="0.78" d=" M 160.00 116.88 C 158.82 116.49 157.81 114.44 159.54 114.05 C 159.65 114.76 159.88 116.18 160.00 116.88 Z"/><path fill="#8e8d8c" opacity="0.78" d=" M 239.27 114.23 C 240.10 116.29 240.78 118.42 241.43 120.55 C 240.96 121.06 240.04 122.07 239.58 122.58 C 239.33 119.80 239.23 117.02 239.27 114.23 Z"/><path fill="#8e8d8c" opacity="0.78" d=" M 105.20 126.45 C 105.81 127.10 106.42 127.77 107.04 128.41 C 106.10 132.90 105.87 137.51 104.89 142.00 L 91.70 142.00 L 91.69 140.75 C 95.65 140.46 99.62 140.31 103.59 140.14 C 104.12 135.57 104.68 131.01 105.20 126.45 Z"/><path fill="#8e8d8c" opacity="0.78" d=" M 222.73 127.64 L 223.88 128.17 C 223.84 132.82 223.00 137.41 222.34 142.00 L 221.57 142.00 C 219.91 141.57 218.27 141.07 216.66 140.49 C 218.10 140.18 219.55 139.87 221.00 139.58 C 221.62 135.61 222.12 131.62 222.73 127.64 Z"/><path fill="#8e8d8c" opacity="0.78" d=" M 258.04 128.58 L 259.10 129.05 C 259.27 132.05 259.22 135.06 259.19 138.07 C 250.60 137.97 241.68 141.30 233.35 139.16 C 241.25 137.40 249.38 137.24 257.42 136.55 C 257.61 133.89 257.81 131.23 258.04 128.58 Z"/><path fill="#8e8d8c" opacity="0.78" d=" M 209.35 137.08 C 211.84 137.73 214.21 138.77 216.27 140.34 C 213.83 139.55 211.48 138.51 209.35 137.08 Z"/></g><g><path fill="#83141a" opacity="1.00" d=" M 197.23 90.13 C 203.98 79.29 216.96 71.59 229.94 74.01 C 227.69 77.79 227.82 82.28 227.54 86.52 C 213.09 85.45 200.12 102.59 208.16 115.55 C 211.03 121.55 216.37 125.83 222.73 127.64 C 222.12 131.62 221.62 135.61 221.00 139.58 C 219.55 139.87 218.10 140.18 216.66 140.49 L 216.27 140.34 C 214.21 138.77 211.84 137.73 209.35 137.08 C 204.29 134.17 200.41 129.66 197.32 124.78 L 197.08 124.44 C 195.19 120.84 194.09 116.91 193.00 113.02 C 192.91 112.72 192.73 112.13 192.65 111.83 C 191.20 104.39 193.08 96.42 197.23 90.13 Z"/></g><g><path fill="#257360" opacity="1.00" d=" M 229.94 74.01 C 243.78 74.94 256.07 85.97 259.45 99.24 C 259.31 101.87 259.20 104.51 259.22 107.15 C 257.80 100.38 250.06 99.59 246.18 104.76 C 245.12 96.54 238.46 90.27 230.66 88.21 C 230.32 86.64 229.99 85.07 229.72 83.49 C 229.72 83.25 229.74 82.77 229.74 82.53 C 232.47 81.33 231.24 77.85 230.47 75.73 L 229.94 74.01 Z"/></g><g><path fill="#292929" opacity="0.32" d=" M 230.47 75.73 C 231.24 77.85 232.47 81.33 229.74 82.53 C 229.71 80.24 230.05 77.98 230.47 75.73 Z"/></g><g><path fill="#165d54" opacity="1.00" d=" M 246.18 104.76 C 250.06 99.59 257.80 100.38 259.22 107.15 C 259.63 115.02 256.59 122.61 252.03 128.89 C 252.88 128.63 253.74 128.39 254.60 128.16 C 255.75 128.25 256.90 128.39 258.04 128.58 C 257.81 131.23 257.61 133.89 257.42 136.55 C 249.38 137.24 241.25 137.40 233.35 139.16 C 232.38 131.37 231.42 123.57 230.33 115.79 C 233.30 115.21 236.27 114.68 239.27 114.23 C 239.23 117.02 239.33 119.80 239.58 122.58 C 240.04 122.07 240.96 121.06 241.43 120.55 C 245.10 116.19 246.61 110.39 246.18 104.76 Z"/></g></svg>
