<svg xmlns="http://www.w3.org/2000/svg"viewBox="06 04 155.5 125"><g><path fill="#f48f09" opacity="1.00" d=" M 120.08 4.03 C 132.97 3.98 145.86 3.93 158.75 4.06 C 151.88 12.76 143.38 20.21 137.87 29.94 C 134.01 37.30 134.01 47.64 140.26 53.71 C 145.32 59.00 151.26 63.60 155.03 69.99 C 163.33 82.87 162.93 100.22 155.52 113.41 C 152.76 118.63 149.84 123.78 146.46 128.63 C 133.14 128.88 119.81 128.71 106.48 128.72 C 113.37 119.57 122.41 112.04 127.78 101.78 C 131.57 93.64 130.44 82.75 122.96 77.04 C 113.01 68.37 104.02 56.86 104.03 43.02 C 103.06 28.27 110.90 14.91 120.08 4.03 Z"/></g><g><path fill="#5754b5" opacity="1.00" d=" M 6.02 40.77 C 19.09 40.74 32.16 40.69 45.22 40.80 C 45.32 63.10 45.18 85.41 45.29 107.71 C 48.84 107.77 52.40 107.78 55.95 107.73 C 56.19 98.19 55.72 88.63 56.14 79.10 C 56.23 75.77 62.03 75.68 62.09 79.07 C 62.52 88.60 62.09 98.17 62.28 107.71 C 65.84 107.77 69.40 107.78 72.96 107.74 C 73.06 98.15 72.97 88.56 73.02 78.98 C 73.01 75.58 72.73 71.47 69.57 69.43 C 65.32 66.49 59.61 68.13 55.98 71.32 C 56.03 61.14 55.93 50.96 56.02 40.78 C 70.16 40.79 84.31 40.57 98.44 40.89 C 97.81 56.59 107.05 70.57 118.61 80.38 C 125.83 85.44 125.92 96.24 120.81 102.83 C 114.26 112.09 106.21 120.19 98.82 128.77 C 94.97 128.76 91.13 128.79 87.29 128.71 C 87.17 120.53 87.36 112.34 87.18 104.15 C 90.14 107.66 95.21 110.50 99.58 107.56 C 106.15 103.79 104.65 95.33 104.75 89.00 C 104.46 82.49 106.28 74.19 100.48 69.51 C 95.67 65.85 89.35 68.91 86.23 73.30 C 86.22 71.88 86.21 70.46 86.20 69.04 C 82.96 68.96 79.72 68.97 76.49 69.08 C 76.44 88.97 76.65 108.87 76.39 128.77 C 59.19 128.73 42.00 128.78 24.80 128.74 C 24.70 120.64 24.75 112.54 24.77 104.44 C 27.89 107.90 33.13 110.48 37.42 107.38 C 43.95 103.19 41.97 94.55 42.25 88.01 C 42.07 81.70 43.60 73.55 37.65 69.31 C 32.86 66.01 26.86 68.95 23.84 73.20 C 23.79 71.81 23.74 70.42 23.68 69.03 C 20.46 68.98 17.24 68.97 14.02 69.03 C 13.96 88.93 14.07 108.84 13.97 128.74 C 11.33 128.77 8.68 128.77 6.04 128.74 C 5.96 99.42 5.99 70.10 6.02 40.77 Z"/><path fill="#5754b5" opacity="1.00" d=" M 26.20 77.03 C 28.46 75.68 31.56 77.30 31.41 80.03 C 31.54 85.97 31.78 91.97 31.24 97.89 C 30.69 101.61 24.44 100.80 24.89 97.00 C 25.26 90.46 23.22 83.01 26.20 77.03 Z"/><path fill="#5754b5" opacity="1.00" d=" M 88.38 77.34 C 90.52 75.46 94.03 77.10 93.90 79.95 C 94.03 85.92 94.24 91.94 93.78 97.89 C 93.13 101.78 86.82 100.57 87.34 96.73 C 87.66 90.34 86.00 83.39 88.38 77.34 Z"/></g></svg>
