<svg xmlns="http://www.w3.org/2000/svg"viewBox="3 0 452 108"><g></g><g><path fill="#000000" opacity="1.00" d=" M 219.33 8.22 C 234.59 2.23 251.56 5.59 266.98 9.23 C 267.05 15.16 266.99 21.09 267.00 27.03 C 255.58 22.42 242.57 18.90 230.39 22.43 C 224.37 24.00 222.85 33.50 228.89 36.06 C 241.22 41.08 256.34 39.76 266.74 49.22 C 274.82 57.47 274.33 71.02 270.00 81.00 C 266.53 88.31 258.83 92.50 251.13 93.88 C 236.00 96.62 220.32 94.09 205.99 88.86 C 206.00 82.57 205.99 76.29 206.01 70.00 C 217.27 75.97 230.21 80.57 243.10 78.41 C 248.14 77.81 252.97 73.47 251.91 68.04 C 251.43 62.62 245.55 60.76 241.10 59.66 C 230.29 56.91 217.70 55.99 209.87 47.05 C 200.61 35.01 204.54 14.01 219.33 8.22 Z"/><path fill="#000000" opacity="1.00" d=" M 321.83 5.94 C 336.78 3.46 354.08 5.56 365.15 16.85 C 376.41 28.09 378.49 45.46 376.10 60.52 C 374.06 73.85 365.25 85.86 352.87 91.35 C 358.62 97.59 364.53 103.68 370.21 110.00 C 363.14 110.02 356.08 110.00 349.02 110.00 C 344.22 105.08 339.63 99.96 334.84 95.03 C 320.27 95.51 304.27 90.86 295.77 78.21 C 286.47 64.28 286.02 45.67 291.41 30.19 C 296.11 17.29 308.34 7.91 321.83 5.94 M 327.37 21.55 C 318.27 23.38 312.90 32.43 311.72 41.06 C 310.35 50.84 310.52 61.60 315.69 70.32 C 322.66 82.02 342.27 81.92 349.20 70.20 C 355.12 59.98 355.07 47.12 352.06 35.97 C 349.45 25.33 337.93 18.63 327.37 21.55 Z"/><path fill="#000000" opacity="1.00" d=" M 4.01 7.00 C 16.01 6.99 28.01 7.01 40.00 7.00 C 47.83 7.00 55.99 7.96 62.86 11.99 C 79.48 21.29 79.14 49.59 62.20 58.38 C 51.14 64.47 38.11 62.74 26.01 63.00 C 25.98 73.00 26.02 82.99 26.00 92.99 C 18.67 92.99 11.34 93.02 4.00 92.99 C 4.00 64.33 3.99 35.67 4.01 7.00 M 26.01 23.00 C 26.00 31.00 25.99 38.99 26.00 46.99 C 32.52 46.63 39.40 48.05 45.63 45.60 C 54.44 42.06 54.08 27.04 44.96 24.09 C 38.86 22.14 32.31 23.31 26.01 23.00 Z"/><path fill="#000000" opacity="1.00" d=" M 90.01 7.00 C 97.34 6.99 104.66 6.99 111.99 7.00 C 112.02 30.00 111.99 52.99 112.00 75.99 C 125.00 76.02 138.00 75.97 150.99 76.00 C 151.00 81.67 151.02 87.33 150.99 93.00 C 130.66 93.00 110.34 93.00 90.01 93.00 C 89.99 64.33 89.99 35.67 90.01 7.00 Z"/><path fill="#000000" opacity="1.00" d=" M 184.25 7.01 C 188.50 6.99 192.75 6.99 196.99 7.00 C 186.93 39.34 176.75 71.64 166.74 104.00 C 162.50 103.99 158.25 104.00 154.01 103.99 C 164.08 71.66 174.13 39.32 184.25 7.01 Z"/><path fill="#000000" opacity="1.00" d=" M 393.01 7.01 C 400.33 7.00 407.66 6.99 414.99 7.00 C 415.02 30.00 414.98 53.00 415.01 75.99 C 428.00 76.02 441.00 75.98 453.99 76.00 C 454.00 81.67 454.01 87.33 454.00 92.99 C 433.67 93.00 413.34 93.00 393.01 92.99 C 392.99 64.33 393.00 35.67 393.01 7.01 Z"/></g></svg>
