<svg xmlns="http://www.w3.org/2000/svg"viewBox="0 0 512 384"><g><path fill="#cc6699" opacity="1.00" d=" M 221.79 0.00 L 241.20 0.00 C 260.59 1.38 280.41 5.37 297.02 15.96 C 308.32 23.12 317.63 34.15 320.71 47.37 C 325.65 67.43 320.22 88.65 310.21 106.28 C 294.36 134.04 267.97 155.59 237.66 165.72 C 213.37 174.09 187.28 178.55 161.62 175.47 C 145.75 173.62 129.61 165.97 120.79 152.22 C 119.00 148.82 115.91 142.85 120.88 140.75 C 133.13 155.07 152.70 160.34 170.98 159.11 C 204.03 156.86 236.71 144.65 262.09 123.15 C 275.62 111.53 287.48 97.05 292.85 79.80 C 296.04 69.32 296.30 56.75 289.31 47.70 C 279.52 36.39 263.85 32.98 249.63 31.41 C 214.03 28.53 178.69 38.81 146.68 53.68 C 120.54 66.33 94.94 80.80 72.96 99.95 C 60.85 110.72 49.64 123.19 43.33 138.32 C 38.51 150.29 36.88 164.13 41.47 176.42 C 45.28 186.94 52.61 195.74 60.57 203.42 C 79.11 221.09 101.57 234.22 119.16 252.96 C 136.03 243.55 153.20 234.61 169.88 224.91 C 178.94 213.26 190.11 202.71 203.86 196.87 C 211.32 193.60 221.71 192.54 227.48 199.45 C 233.40 207.30 232.42 217.92 230.97 227.07 C 236.43 220.96 250.17 224.76 248.07 233.92 C 243.81 250.78 238.78 267.47 235.52 284.57 C 234.61 289.73 234.28 295.06 235.35 300.22 C 238.59 296.56 240.46 291.98 242.71 287.69 C 256.72 258.63 269.47 228.98 282.39 199.42 C 285.59 192.95 286.00 185.47 289.02 179.00 C 293.63 175.90 299.53 175.72 304.92 175.29 C 310.23 175.10 316.91 174.92 320.15 180.01 C 317.81 187.96 314.56 195.72 313.71 204.02 C 312.52 216.56 315.38 229.31 321.86 240.11 C 332.04 223.22 341.94 206.08 350.19 188.15 C 353.99 180.48 354.07 171.54 357.94 163.91 C 364.63 159.63 373.31 159.89 380.99 160.20 C 384.57 160.41 390.54 162.85 388.43 167.37 C 384.46 178.44 380.95 190.19 383.09 202.05 C 383.69 212.76 389.57 221.98 394.22 231.32 C 423.66 217.17 461.62 215.43 489.13 234.86 C 501.28 243.45 509.74 256.88 512.00 271.62 L 512.00 279.52 C 510.30 292.82 500.44 304.70 487.57 308.51 C 485.28 309.39 483.37 308.46 482.70 306.11 C 488.38 301.76 494.99 298.01 498.28 291.31 C 503.77 282.00 500.97 270.25 495.26 261.74 C 486.99 249.26 472.52 242.55 458.25 239.69 C 438.94 235.96 418.33 236.47 399.96 244.00 C 403.85 254.42 406.67 266.68 401.06 277.04 C 393.62 290.62 379.71 299.55 365.29 304.29 C 359.78 306.55 352.70 307.45 347.99 303.04 C 342.81 297.99 343.93 289.94 345.62 283.60 C 350.17 267.65 361.74 254.82 374.06 244.23 C 367.02 231.51 362.63 217.62 360.01 203.35 C 350.86 221.29 340.97 238.90 329.38 255.38 C 336.20 270.31 338.66 289.74 327.06 303.02 C 314.65 316.57 295.40 323.70 277.18 322.49 C 270.28 322.32 266.44 314.14 270.51 308.62 C 281.54 292.62 295.80 279.09 306.61 262.90 C 299.13 249.03 293.61 234.22 290.96 218.64 C 280.29 245.29 268.47 271.49 254.66 296.67 C 249.23 306.05 244.99 316.41 237.05 324.06 C 233.59 327.41 229.13 330.73 224.01 329.96 C 218.84 329.49 215.19 324.99 213.66 320.34 C 210.33 310.51 211.51 299.93 212.36 289.80 C 206.11 303.44 201.05 317.91 192.14 330.11 C 185.33 339.70 168.89 339.43 162.84 329.16 C 146.90 305.85 148.89 275.33 157.46 249.65 C 147.74 254.90 138.19 260.47 128.70 266.15 C 138.71 288.33 136.79 314.88 126.71 336.70 C 110.99 369.88 71.05 391.83 34.84 381.09 C 22.81 376.16 17.24 362.21 16.80 349.97 C 16.27 332.85 24.63 316.50 37.12 305.13 C 55.59 287.49 78.09 274.91 100.60 263.22 C 73.50 241.05 41.29 224.74 18.51 197.53 C 6.94 183.47 -3.20 165.09 1.37 146.32 C 6.03 125.21 18.81 106.92 33.25 91.25 C 65.19 57.55 106.72 34.62 149.42 17.44 C 172.46 7.91 196.88 1.70 221.79 0.00 M 213.44 214.50 C 206.96 215.93 201.83 220.71 197.68 225.65 C 182.70 245.57 173.82 271.12 177.64 296.16 C 178.56 299.73 178.98 304.77 182.96 306.26 C 185.95 305.50 187.55 302.56 189.13 300.18 C 194.46 290.94 198.00 280.83 201.93 270.96 C 208.26 254.31 215.09 237.61 218.19 220.00 C 219.33 216.80 216.92 213.36 213.44 214.50 M 363.72 278.70 C 362.46 282.33 360.26 286.26 361.70 290.16 C 376.94 286.09 386.90 268.94 381.21 253.86 C 373.51 260.60 367.33 269.10 363.72 278.70 M 67.47 305.44 C 57.75 314.12 50.01 325.84 48.44 339.00 C 47.83 344.37 48.77 351.27 54.25 353.85 C 61.04 356.52 68.60 354.62 75.14 352.08 C 104.78 340.06 122.58 304.58 112.83 273.74 C 96.87 283.01 81.23 293.06 67.47 305.44 M 288.04 307.01 C 292.82 307.29 296.47 303.67 300.07 301.06 C 307.65 295.22 314.06 286.53 313.72 276.55 C 305.72 287.17 296.63 296.89 288.04 307.01 Z"/></g></svg>
