<svg xmlns="http://www.w3.org/2000/svg"viewBox="10 0 228 86"><g><path fill="#fefefd" opacity="1.00" d=" M 21.75 24.88 C 24.00 19.75 30.52 19.07 35.36 20.16 C 30.31 20.51 24.04 21.01 22.17 26.69 C 22.07 26.24 21.86 25.33 21.75 24.88 Z"/><path fill="#fefefd" opacity="1.00" d=" M 211.93 43.19 C 211.07 35.86 220.44 36.29 225.24 37.33 C 220.28 37.82 213.42 36.96 211.93 43.19 Z" />
<path fill="#fefefd" opacity="1.00" d=" M 71.18 37.96 L 72.33 37.59 C 72.03 46.34 72.62 55.78 71.16 64.58 C 70.91 55.73 70.86 46.81 71.18 37.96 Z"/><path fill="#fefefd" opacity="1.00" d=" M 185.14 37.96 L 186.16 37.64 C 186.35 37.80 186.73 38.13 186.92 38.29 C 185.01 46.94 187.16 55.98 185.16 64.58 C 184.88 55.73 184.91 46.82 185.14 37.96 Z"/><path fill="#fefefd" opacity="1.00" d=" M 232.82 58.11 C 237.97 68.75 224.48 81.15 214.14 75.68 C 224.65 78.72 235.46 68.86 232.82 58.11 Z"/></g><g><path fill="#023264" opacity="1.00" d=" M 17.55 14.53 C 26.41 8.57 38.54 10.18 47.31 15.52 C 46.20 18.29 44.99 21.03 43.63 23.69 C 40.86 22.54 38.30 20.87 35.36 20.16 C 30.52 19.07 24.00 19.75 21.75 24.88 C 19.14 29.44 23.82 33.59 27.82 34.97 C 31.91 36.84 36.02 38.72 39.87 41.03 C 49.60 47.79 51.41 64.21 41.56 71.61 C 32.50 78.19 20.11 76.24 11.16 70.51 C 10.96 70.34 10.57 70.00 10.37 69.84 C 11.21 67.15 12.31 64.55 13.35 61.94 C 19.82 64.78 27.54 67.62 34.39 64.38 C 36.87 62.44 37.37 58.94 37.21 55.99 C 34.13 46.16 21.02 46.22 14.30 39.54 C 8.22 32.40 9.97 20.00 17.55 14.53 Z"/><path fill="#023264" opacity="1.00" d=" M 59.81 16.97 C 63.38 16.35 66.95 15.61 70.57 15.35 C 71.26 19.88 70.62 24.53 71.06 29.10 L 72.02 29.23 C 75.51 29.66 79.06 29.55 82.51 30.24 C 82.30 31.23 81.88 33.19 81.67 34.17 C 81.41 35.04 81.11 35.90 80.78 36.75 C 77.97 37.07 75.12 37.06 72.33 37.59 L 71.18 37.96 C 70.86 46.81 70.91 55.73 71.16 64.58 L 71.27 65.18 C 72.71 65.32 74.20 65.53 75.65 65.29 C 77.60 64.87 79.46 64.14 81.33 63.43 C 81.69 64.92 81.85 66.44 82.20 67.93 C 82.53 69.53 83.07 71.08 83.35 72.69 C 77.11 75.72 69.30 76.21 63.17 72.63 C 60.55 70.80 60.21 67.11 59.85 64.16 C 60.01 55.44 59.95 46.72 59.95 38.01 L 59.92 37.01 C 57.29 36.93 54.66 37.07 52.03 36.97 C 51.94 34.52 51.96 32.07 52.04 29.62 C 54.59 29.49 57.15 29.64 59.70 29.57 C 59.86 25.37 59.59 21.17 59.81 16.97 Z"/><path fill="#023264" opacity="1.00" d=" M 173.81 16.97 C 177.38 16.35 180.96 15.61 184.59 15.35 C 185.24 19.89 184.63 24.53 185.06 29.10 L 186.02 29.23 C 189.51 29.67 193.06 29.54 196.51 30.24 C 196.30 31.22 195.88 33.18 195.67 34.16 C 195.41 35.04 195.11 35.90 194.78 36.75 C 191.91 37.06 189.01 37.10 186.16 37.64 L 185.14 37.96 C 184.91 46.82 184.88 55.73 185.16 64.58 L 185.26 65.18 C 186.71 65.32 188.20 65.53 189.65 65.29 C 191.60 64.87 193.46 64.14 195.32 63.43 C 195.70 64.95 195.83 66.53 196.21 68.05 C 196.55 69.61 197.06 71.12 197.35 72.69 C 191.11 75.71 183.30 76.22 177.18 72.64 C 174.55 70.80 174.21 67.11 173.85 64.16 C 174.01 55.44 173.95 46.72 173.95 38.01 L 173.92 37.01 C 171.28 36.93 168.63 37.08 165.99 36.95 C 165.88 34.51 165.93 32.07 166.03 29.63 C 168.58 29.48 171.14 29.64 173.70 29.57 C 173.86 25.38 173.59 21.17 173.81 16.97 Z"/><path fill="#023264" opacity="1.00" d=" M 90.16 31.18 C 92.66 30.10 95.10 28.82 97.70 27.99 C 99.31 30.01 99.90 32.55 100.52 34.99 C 104.46 30.51 110.61 25.65 116.76 29.12 C 115.98 32.45 114.79 35.68 113.75 38.94 C 113.38 38.79 112.64 38.49 112.27 38.35 C 108.42 37.11 103.82 39.54 102.05 43.08 C 101.77 53.23 102.38 63.45 101.51 73.56 C 97.99 73.70 94.47 74.03 90.94 73.87 C 91.04 59.64 91.38 45.31 90.16 31.18 Z"/><path fill="#023264" opacity="1.00" d=" M 122.55 30.67 C 126.13 29.76 129.70 28.42 133.42 28.33 C 134.77 39.39 133.61 51.14 134.00 62.47 C 134.01 62.87 134.02 63.68 134.03 64.09 C 135.34 65.28 137.04 65.98 138.78 66.26 C 141.53 65.89 144.31 65.27 146.72 63.84 C 147.54 52.77 146.51 41.52 147.40 30.47 C 150.84 29.30 154.44 28.72 157.99 27.97 C 158.03 40.49 157.96 53.01 158.02 65.53 C 158.07 67.71 158.78 69.80 159.31 71.89 C 156.42 73.42 153.29 74.44 150.08 75.01 C 149.64 73.32 149.25 71.62 148.76 69.94 C 148.51 70.03 147.99 70.21 147.73 70.30 C 141.15 74.50 131.98 76.94 125.13 71.94 C 123.28 69.37 122.37 66.23 122.46 63.07 C 122.52 52.27 122.34 41.46 122.55 30.67 Z"/><path fill="#023264" opacity="1.00" d=" M 209.40 30.38 C 216.34 26.84 224.94 27.86 231.71 31.32 C 232.28 32.72 231.14 34.18 230.94 35.57 C 230.54 36.57 230.17 37.57 229.72 38.54 C 228.20 38.20 226.74 37.68 225.24 37.33 C 220.44 36.29 211.07 35.86 211.93 43.19 C 213.15 45.08 215.45 45.52 217.46 46.07 C 222.14 47.56 227.55 49.04 230.57 53.17 C 231.31 54.82 232.06 56.47 232.82 58.11 C 235.46 68.86 224.65 78.72 214.14 75.68 C 209.69 74.01 204.48 73.18 201.09 69.60 C 202.10 67.33 202.64 64.78 204.08 62.74 C 209.68 65.12 216.75 69.11 222.51 65.06 C 223.83 63.30 224.38 60.07 222.08 58.88 C 217.16 55.74 210.98 55.22 206.28 51.60 C 199.82 45.87 202.02 34.34 209.40 30.38 Z"/></g><g><path fill="#a3a5a8" opacity="1.00" d=" M 47.31 15.52 C 53.21 17.54 50.32 26.80 45.01 27.51 C 39.74 26.07 34.08 22.81 28.72 25.86 C 25.30 27.71 27.00 32.04 27.82 34.97 C 23.82 33.59 19.14 29.44 21.75 24.88 C 21.86 25.33 22.07 26.24 22.17 26.69 C 24.04 21.01 30.31 20.51 35.36 20.16 C 38.30 20.87 40.86 22.54 43.63 23.69 C 44.99 21.03 46.20 18.29 47.31 15.52 Z"/><path fill="#a3a5a8" opacity="1.00" d=" M 72.28 17.85 C 76.09 20.10 75.27 24.98 75.47 28.72 C 78.04 29.59 81.56 27.97 83.43 30.39 L 82.51 30.24 C 79.06 29.55 75.51 29.66 72.02 29.23 C 71.94 25.43 71.84 21.62 72.28 17.85 Z"/><path fill="#a3a5a8" opacity="1.00" d=" M 186.28 17.84 C 190.09 20.10 189.27 24.98 189.47 28.72 C 192.04 29.61 195.56 27.97 197.43 30.39 L 196.51 30.24 C 193.06 29.54 189.51 29.67 186.02 29.23 C 185.94 25.43 185.84 21.62 186.28 17.84 Z"/><path fill="#a3a5a8" opacity="1.00" d=" M 114.75 39.34 C 116.11 36.75 115.78 32.16 118.88 31.18 C 122.30 34.05 119.77 39.69 116.75 41.90 C 113.19 42.92 108.39 42.57 106.66 46.64 C 106.04 56.06 107.04 65.56 106.20 74.96 C 103.84 79.28 96.13 79.74 93.71 75.24 C 96.55 74.77 99.44 74.68 102.29 74.25 C 103.88 64.01 102.48 53.51 103.09 43.18 C 105.24 40.23 108.80 38.93 112.27 38.35 C 112.64 38.49 113.38 38.79 113.75 38.94 C 114.00 39.04 114.50 39.24 114.75 39.34 Z"/><path fill="#a3a5a8" opacity="1.00" d=" M 135.38 30.90 C 136.38 31.42 137.66 31.94 137.47 33.33 C 138.27 44.30 136.55 55.42 138.78 66.26 C 137.04 65.98 135.34 65.28 134.03 64.09 C 134.02 63.68 134.01 62.87 134.00 62.47 C 136.35 52.14 134.02 41.36 135.38 30.90 Z"/><path fill="#a3a5a8" opacity="1.00" d=" M 83.48 32.02 C 85.52 32.15 85.88 34.46 86.42 36.01 C 85.85 41.98 80.16 41.93 75.55 42.59 C 75.26 50.15 75.22 57.73 75.65 65.29 C 74.20 65.53 72.71 65.32 71.27 65.18 L 71.16 64.58 C 72.62 55.78 72.03 46.34 72.33 37.59 C 75.12 37.06 77.97 37.07 80.78 36.75 C 81.11 35.90 81.41 35.04 81.67 34.17 C 81.91 34.60 82.40 35.46 82.64 35.89 C 82.90 34.60 83.17 33.31 83.48 32.02 Z"/><path fill="#a3a5a8" opacity="1.00" d=" M 197.47 32.02 C 199.50 32.15 199.91 34.44 200.42 36.00 C 199.86 41.98 194.16 41.95 189.55 42.60 C 189.26 50.15 189.21 57.74 189.65 65.29 C 188.20 65.53 186.71 65.32 185.26 65.18 L 185.16 64.58 C 187.16 55.98 185.01 46.94 186.92 38.29 C 186.73 38.13 186.35 37.80 186.16 37.64 C 189.01 37.10 191.91 37.06 194.78 36.75 C 195.11 35.90 195.41 35.04 195.67 34.16 C 195.91 34.60 196.40 35.48 196.64 35.92 C 196.89 34.61 197.17 33.31 197.47 32.02 Z"/><path fill="#a3a5a8" opacity="1.00" d=" M 159.52 32.09 C 163.62 40.35 160.28 50.12 161.35 59.03 C 161.20 64.26 162.76 69.56 161.74 74.74 C 160.16 78.51 155.14 78.41 152.02 76.75 C 154.94 75.39 157.99 74.32 160.79 72.69 C 160.42 72.49 159.68 72.09 159.31 71.89 C 158.78 69.80 158.07 67.71 158.02 65.53 C 160.47 54.60 157.81 43.12 159.52 32.09 Z"/><path fill="#a3a5a8" opacity="1.00" d=" M 230.94 35.57 C 232.07 34.80 233.23 34.09 234.43 33.44 C 235.13 36.41 235.07 39.84 232.08 41.50 C 227.69 42.06 223.22 40.88 218.85 41.69 C 218.33 43.13 217.94 44.62 217.46 46.07 C 215.45 45.52 213.15 45.08 211.93 43.19 C 213.42 36.96 220.28 37.82 225.24 37.33 C 226.74 37.68 228.20 38.20 229.72 38.54 C 230.17 37.57 230.54 36.57 230.94 35.57 Z"/><path fill="#a3a5a8" opacity="1.00" d=" M 53.94 38.39 C 55.93 38.12 57.94 37.94 59.95 38.01 C 59.95 46.72 60.01 55.44 59.85 64.16 C 58.85 57.14 59.97 50.03 59.25 43.00 C 57.47 41.46 54.70 40.87 53.94 38.39 Z"/><path fill="#a3a5a8" opacity="1.00" d=" M 167.94 38.39 C 169.93 38.12 171.94 37.94 173.95 38.01 C 173.95 46.72 174.01 55.44 173.85 64.16 C 172.85 57.14 173.97 50.03 173.25 43.00 C 171.47 41.46 168.71 40.86 167.94 38.39 Z" />
<path fill="#a3a5a8" opacity="1.00" d=" M 14.30 39.54 C 21.02 46.22 34.13 46.16 37.21 55.99 C 29.75 50.49 18.06 48.75 14.30 39.54 Z"/><path fill="#a3a5a8" opacity="1.00" d=" M 49.33 51.68 C 53.22 58.27 51.50 67.77 45.99 72.99 C 40.71 78.67 31.93 79.40 24.82 77.53 C 32.72 77.21 41.93 75.88 46.57 68.62 C 50.33 63.67 48.40 57.33 49.33 51.68 Z"/><path fill="#a3a5a8" opacity="1.00" d=" M 206.28 51.60 C 210.98 55.22 217.16 55.74 222.08 58.88 C 224.38 60.07 223.83 63.30 222.51 65.06 C 220.19 57.69 207.73 60.13 206.28 51.60 Z"/><path fill="#a3a5a8" opacity="1.00" d=" M 230.57 53.17 C 234.29 53.83 235.60 58.08 237.01 61.09 C 239.70 69.65 232.32 78.19 224.06 79.46 C 217.80 80.05 211.43 78.73 205.79 76.00 C 202.46 73.87 200.15 78.29 196.99 78.68 C 190.23 80.45 179.82 80.72 177.18 72.64 C 183.30 76.22 191.11 75.71 197.35 72.69 C 197.06 71.12 196.55 69.61 196.21 68.05 C 196.48 67.62 197.03 66.75 197.31 66.31 C 199.14 66.56 199.96 68.38 201.09 69.60 C 204.48 73.18 209.69 74.01 214.14 75.68 C 224.48 81.15 237.97 68.75 232.82 58.11 C 232.06 56.47 231.31 54.82 230.57 53.17 Z"/><path fill="#a3a5a8" opacity="1.00" d=" M 82.20 67.93 C 82.65 67.68 83.53 67.18 83.97 66.93 C 85.31 67.49 86.53 68.32 87.53 69.37 C 88.05 72.89 87.36 77.47 83.25 78.36 C 76.53 80.65 65.88 80.75 63.17 72.63 C 69.30 76.21 77.11 75.72 83.35 72.69 C 83.07 71.08 82.53 69.53 82.20 67.93 Z"/></g><g><path fill="#c4c6c8" opacity="1.00" d=" M 159.18 30.05 C 162.76 30.15 163.36 34.17 163.30 36.98 C 163.20 49.62 163.26 62.27 163.71 74.88 C 161.27 80.45 153.69 80.18 148.99 77.65 C 141.20 80.68 127.60 82.50 125.13 71.94 C 131.98 76.94 141.15 74.50 147.73 70.30 C 146.05 76.40 136.21 75.58 130.82 76.61 C 137.22 79.27 143.85 76.87 150.08 75.01 C 153.29 74.44 156.42 73.42 159.31 71.89 C 159.68 72.09 160.42 72.49 160.79 72.69 C 157.99 74.32 154.94 75.39 152.02 76.75 C 155.14 78.41 160.16 78.51 161.74 74.74 C 162.76 69.56 161.20 64.26 161.35 59.03 C 160.28 50.12 163.62 40.35 159.52 32.09 C 159.43 31.58 159.26 30.56 159.18 30.05 Z"/><path fill="#c4c6c8" opacity="1.00" d=" M 39.87 41.03 C 54.55 44.43 57.67 66.38 46.26 75.26 C 38.42 81.94 27.25 80.62 18.10 77.87 C 14.59 76.91 12.05 73.97 11.16 70.51 C 20.11 76.24 32.50 78.19 41.56 71.61 C 51.41 64.21 49.60 47.79 39.87 41.03 M 49.33 51.68 C 48.40 57.33 50.33 63.67 46.57 68.62 C 41.93 75.88 32.72 77.21 24.82 77.53 C 31.93 79.40 40.71 78.67 45.99 72.99 C 51.50 67.77 53.22 58.27 49.33 51.68 Z"/></g><g><path fill="#878d93" opacity="1.00" d=" M 147.73 70.30 C 147.99 70.21 148.51 70.03 148.76 69.94 C 149.25 71.62 149.64 73.32 150.08 75.01 C 143.85 76.87 137.22 79.27 130.82 76.61 C 136.21 75.58 146.05 76.40 147.73 70.30 Z"/></g></svg>
