<svg xmlns="http://www.w3.org/2000/svg"viewBox="40 21 213 202.5"><g></g><g><path fill="#b3d107" opacity="1.00" d=" M 197.13 27.16 C 202.01 23.50 208.62 19.58 214.81 22.14 C 219.93 25.38 217.65 32.21 215.83 36.73 C 214.11 34.20 212.72 30.45 209.03 30.62 C 197.35 30.07 188.66 39.58 181.76 47.78 C 165.79 68.53 155.95 93.71 151.52 119.41 C 150.68 125.47 149.71 131.80 151.75 137.74 C 156.48 136.54 159.47 132.60 162.94 129.52 C 160.74 136.74 153.61 143.01 145.98 143.29 C 139.99 143.00 140.84 135.52 141.37 131.35 C 144.85 109.47 154.19 88.99 164.58 69.59 C 173.37 54.08 183.18 38.57 197.13 27.16 Z"/><path fill="#b3d107" opacity="1.00" d=" M 114.10 114.75 C 116.68 107.49 123.87 100.66 131.92 101.06 C 137.24 102.13 136.06 108.87 135.78 112.85 C 132.55 133.51 123.96 152.93 114.38 171.37 C 105.67 187.28 95.95 203.13 82.27 215.29 C 76.95 219.77 69.84 224.71 62.59 222.34 C 57.25 219.23 59.33 212.06 61.47 207.55 C 63.63 215.70 73.34 214.50 79.07 211.19 C 90.80 204.40 98.76 192.87 105.53 181.45 C 116.40 161.87 124.22 140.29 126.43 117.92 C 126.49 114.34 127.65 109.91 124.78 107.10 C 120.07 107.51 117.66 112.26 114.10 114.75 Z"/></g><g><path fill="#606060" opacity="1.00" d=" M 91.55 103.34 C 96.04 94.89 99.01 82.40 110.71 82.10 C 106.86 89.12 102.90 96.09 99.79 103.48 C 104.47 103.33 109.44 102.49 113.84 104.60 C 109.01 105.89 103.97 105.25 99.10 106.15 C 95.07 113.68 92.95 122.22 91.42 130.60 C 91.01 133.71 90.68 139.15 95.04 139.35 C 100.15 139.00 102.74 133.70 106.70 131.12 C 104.62 137.22 99.51 142.36 93.38 144.35 C 88.75 145.91 82.14 143.61 82.13 137.99 C 82.14 127.18 86.45 116.96 90.08 106.95 C 87.07 107.36 84.06 107.78 81.03 108.07 C 83.70 104.98 87.59 103.67 91.55 103.34 Z" />
<path fill="#606060" opacity="1.00" d=" M 52.86 111.04 C 55.04 101.79 68.43 100.18 75.26 104.98 C 75.58 108.73 73.67 112.12 71.82 115.22 C 71.21 112.18 72.11 108.54 70.13 105.92 C 66.57 102.73 60.46 106.34 61.01 110.99 C 61.71 119.22 71.09 124.28 70.24 133.00 C 70.07 139.69 63.48 143.79 57.43 144.44 C 51.73 145.14 44.33 145.22 40.76 139.85 C 40.85 135.17 44.48 131.60 47.85 128.82 C 47.09 132.20 44.56 135.95 46.70 139.32 C 50.23 145.08 60.56 142.62 61.41 135.99 C 62.82 126.47 51.55 120.53 52.86 111.04 Z"/><path fill="#606060" opacity="1.00" d=" M 170.38 114.72 C 175.11 107.60 183.45 103.50 191.53 101.46 C 185.18 111.77 178.09 123.06 179.34 135.71 C 180.02 140.06 184.78 138.00 186.76 135.82 C 195.38 127.57 201.04 116.83 206.61 106.41 C 208.56 102.55 213.47 102.68 217.18 102.38 C 211.64 113.70 204.47 126.74 208.56 139.58 C 212.63 139.88 215.09 135.82 218.43 134.17 C 215.57 140.51 207.79 147.68 200.61 143.42 C 195.80 137.78 199.22 129.45 199.92 122.93 C 194.79 130.83 189.27 139.26 180.66 143.71 C 176.70 146.00 170.08 144.64 169.70 139.34 C 168.82 129.03 173.16 119.06 177.90 110.14 C 175.48 111.81 173.04 113.46 170.38 114.72 Z"/><path fill="#606060" opacity="1.00" d=" M 230.41 109.34 C 234.27 101.29 245.71 101.03 252.78 104.70 C 252.16 108.39 250.95 111.97 248.94 115.14 C 248.50 112.28 249.02 109.14 247.69 106.48 C 245.07 102.95 238.83 105.18 238.32 109.35 C 237.27 115.75 243.03 120.18 245.57 125.43 C 249.10 131.24 247.24 139.93 240.63 142.59 C 233.74 145.42 223.89 146.51 218.37 140.57 C 216.96 135.82 221.60 131.65 224.96 128.87 C 224.08 132.37 221.55 136.53 224.13 139.91 C 228.27 144.99 237.88 142.24 238.62 135.65 C 239.58 125.85 227.20 119.37 230.41 109.34 Z"/></g></svg>
