<svg xmlns="http://www.w3.org/2000/svg"viewBox="08 20 240 209.5"><g><path fill="#4d4c4c" opacity="1.00" d=" M 33.12 35.10 C 32.22 27.14 38.87 19.72 46.92 20.04 C 100.64 19.98 154.36 19.98 208.08 20.04 C 215.82 19.75 222.70 26.74 221.75 34.56 C 225.17 80.74 231.16 126.75 233.96 172.96 C 232.07 177.85 227.45 180.66 222.57 181.91 C 165.05 182.21 107.52 181.96 49.99 182.05 C 43.52 182.19 36.95 181.38 30.57 182.89 L 29.93 182.98 C 27.07 181.30 24.23 179.58 21.37 177.90 C 21.19 174.26 21.10 170.62 21.14 166.99 C 24.74 123.00 29.79 79.11 33.12 35.10 M 111.42 57.66 C 102.79 59.87 93.78 65.10 91.07 74.14 C 87.63 79.31 87.36 86.60 91.49 91.47 C 98.58 101.19 111.28 102.72 121.94 106.18 C 127.71 107.13 132.89 109.89 138.43 111.54 C 140.51 114.33 141.05 118.01 140.21 121.35 C 136.46 125.27 131.63 128.72 125.96 128.60 C 115.74 128.52 106.48 123.33 96.48 121.89 C 91.92 121.55 86.93 123.51 84.99 127.91 C 83.62 130.48 83.60 133.42 83.78 136.26 L 84.46 136.10 C 91.57 144.87 103.61 146.29 114.01 148.11 C 129.30 149.30 147.51 149.32 158.74 137.25 C 168.53 130.16 170.16 114.80 162.95 105.15 C 154.07 90.59 134.82 90.25 120.35 84.78 C 118.19 84.46 116.84 80.90 114.67 81.87 L 114.10 81.79 C 115.18 78.51 115.65 74.09 119.60 73.05 C 130.57 68.12 141.23 77.80 152.29 75.54 C 155.94 74.40 161.05 69.54 157.18 65.94 C 153.92 59.74 146.42 58.21 140.14 56.96 C 130.70 54.80 120.70 54.65 111.42 57.66 Z"/><path fill="#4d4c4c" opacity="1.00" d=" M 224.58 182.47 C 227.96 182.12 230.55 179.68 233.17 177.76 C 233.14 179.92 233.13 182.08 233.12 184.24 C 233.09 185.72 233.11 187.20 233.15 188.68 C 232.43 192.72 231.69 196.96 229.17 200.33 C 226.64 199.83 223.90 199.75 221.65 198.36 C 220.10 193.37 220.94 188.05 221.00 182.93 C 221.89 182.81 223.68 182.59 224.58 182.47 Z"/></g><g><path fill="#e5e5e5" opacity="1.00" d=" M 221.75 34.56 C 226.73 36.49 231.42 40.60 231.59 46.31 C 236.22 93.95 241.02 141.58 245.42 189.23 C 245.20 190.77 244.97 192.30 244.76 193.84 C 243.59 193.81 242.43 193.79 241.27 193.76 C 240.86 195.20 240.45 196.63 240.05 198.07 C 239.57 198.05 238.59 198.02 238.10 198.00 C 235.04 192.46 238.53 185.24 233.82 180.49 C 234.03 177.98 233.98 175.47 233.96 172.96 C 231.16 126.75 225.17 80.74 221.75 34.56 Z"/><path fill="#e5e5e5" opacity="1.00" d=" M 24.42 46.30 C 24.59 41.13 28.55 37.01 33.12 35.10 C 29.79 79.11 24.74 123.00 21.14 166.99 C 20.79 167.50 20.08 168.52 19.72 169.02 C 18.78 168.74 17.83 168.47 16.89 168.19 C 17.50 166.75 18.11 165.31 18.71 163.87 C 16.12 166.98 14.47 170.69 13.20 174.51 C 12.94 172.95 12.65 171.40 12.43 169.84 C 16.30 128.65 20.36 87.48 24.42 46.30 Z"/><path fill="#e5e5e5" opacity="1.00" d=" M 14.27 221.65 C 18.15 218.81 23.13 220.92 27.07 222.48 C 27.61 221.65 28.16 220.82 28.70 219.99 C 28.91 220.55 29.31 221.65 29.51 222.21 C 37.05 220.81 45.33 224.12 52.29 220.17 C 52.50 220.96 52.71 221.75 52.92 222.54 C 55.66 222.34 58.40 222.19 61.15 222.06 C 61.42 221.69 61.97 220.94 62.24 220.57 C 63.49 221.06 64.70 221.74 66.04 221.96 C 79.94 221.82 93.83 222.33 107.73 222.21 C 108.01 221.44 108.29 220.66 108.57 219.90 C 110.08 221.01 111.65 223.34 113.75 222.03 C 117.77 219.98 122.16 222.01 126.36 222.11 C 126.71 221.53 127.05 220.95 127.40 220.37 C 135.92 224.65 145.52 220.34 154.46 222.32 C 168.86 221.89 183.19 221.23 197.58 222.69 C 198.51 221.67 199.44 220.66 200.37 219.65 C 200.67 220.31 201.27 221.63 201.57 222.29 C 203.32 221.47 205.06 220.65 206.82 219.85 C 214.22 225.22 224.16 220.82 232.62 221.27 C 233.26 222.04 233.91 222.82 234.56 223.60 C 233.00 223.84 231.43 224.03 229.86 224.16 C 161.95 224.07 94.04 223.98 26.13 224.21 C 22.02 224.31 18.01 223.29 14.27 221.65 Z"/></g><g><path fill="#393939" opacity="1.00" d=" M 111.42 57.66 C 120.70 54.65 130.70 54.80 140.14 56.96 C 146.42 58.21 153.92 59.74 157.18 65.94 C 156.78 65.63 155.98 65.02 155.58 64.71 C 148.73 59.14 139.51 58.15 131.03 57.31 C 118.04 56.53 103.05 58.98 94.36 69.61 C 93.14 71.03 92.07 72.57 91.07 74.14 C 93.78 65.10 102.79 59.87 111.42 57.66 Z"/><path fill="#393939" opacity="1.00" d=" M 114.67 81.87 C 116.84 80.90 118.19 84.46 120.35 84.78 C 134.82 90.25 154.07 90.59 162.95 105.15 C 161.16 103.18 159.19 101.36 157.03 99.80 C 146.40 92.30 133.13 90.93 121.11 86.80 C 118.41 86.01 116.37 84.02 114.67 81.87 Z"/><path fill="#393939" opacity="1.00" d=" M 29.93 182.98 L 30.57 182.89 C 32.11 182.94 33.64 182.99 35.17 183.03 C 35.30 187.60 35.98 192.27 34.95 196.78 C 33.70 199.72 30.06 200.31 27.51 201.71 C 26.05 200.10 24.72 198.36 23.58 196.50 C 25.56 196.25 28.08 197.21 29.69 195.69 C 30.76 191.54 30.21 187.20 29.93 182.98 Z"/><path fill="#393939" opacity="1.00" d=" M 215.88 183.02 C 217.58 183.02 219.29 183.01 221.00 182.93 C 220.94 188.05 220.10 193.37 221.65 198.36 C 223.90 199.75 226.64 199.83 229.17 200.33 C 227.33 201.56 225.42 202.68 223.44 203.66 C 220.95 201.82 217.97 200.34 216.27 197.66 C 214.94 192.91 215.79 187.88 215.88 183.02 Z"/></g><g><path fill="#ff7f00" opacity="1.00" d=" M 94.36 69.61 C 103.05 58.98 118.04 56.53 131.03 57.31 C 139.51 58.15 148.73 59.14 155.58 64.71 C 135.95 56.95 111.54 55.46 94.36 69.61 Z"/><path fill="#ff7f00" opacity="1.00" d=" M 157.03 99.80 C 159.19 101.36 161.16 103.18 162.95 105.15 C 170.16 114.80 168.53 130.16 158.74 137.25 C 151.31 139.83 144.95 145.43 136.73 145.67 C 119.48 146.31 100.03 147.17 85.71 135.83 C 85.40 135.89 84.77 136.03 84.46 136.10 L 83.78 136.26 C 83.60 133.42 83.62 130.48 84.99 127.91 C 91.74 119.46 103.32 124.37 111.70 127.11 C 121.02 130.27 134.91 131.76 140.21 121.35 C 141.05 118.01 140.51 114.33 138.43 111.54 C 132.61 104.49 122.16 105.09 114.26 101.66 C 128.38 99.08 142.91 102.37 157.03 99.80 Z"/></g><g><path fill="#ffba5c" opacity="1.00" d=" M 94.36 69.61 C 111.54 55.46 135.95 56.95 155.58 64.71 C 155.98 65.02 156.78 65.63 157.18 65.94 C 161.05 69.54 155.94 74.40 152.29 75.54 C 141.23 77.80 130.57 68.12 119.60 73.05 C 115.65 74.09 115.18 78.51 114.10 81.79 C 106.55 82.85 98.92 81.92 91.34 82.64 C 91.17 94.65 104.92 98.73 114.26 101.66 C 122.16 105.09 132.61 104.49 138.43 111.54 C 132.89 109.89 127.71 107.13 121.94 106.18 C 111.28 102.72 98.58 101.19 91.49 91.47 C 87.36 86.60 87.63 79.31 91.07 74.14 C 92.07 72.57 93.14 71.03 94.36 69.61 Z"/><path fill="#ffba5c" opacity="1.00" d=" M 85.71 135.83 C 100.03 147.17 119.48 146.31 136.73 145.67 C 144.95 145.43 151.31 139.83 158.74 137.25 C 147.51 149.32 129.30 149.30 114.01 148.11 C 103.61 146.29 91.57 144.87 84.46 136.10 C 84.77 136.03 85.40 135.89 85.71 135.83 Z"/></g><g><path fill="#ffa83e" opacity="1.00" d=" M 91.34 82.64 C 98.92 81.92 106.55 82.85 114.10 81.79 L 114.67 81.87 C 116.37 84.02 118.41 86.01 121.11 86.80 C 133.13 90.93 146.40 92.30 157.03 99.80 C 142.91 102.37 128.38 99.08 114.26 101.66 C 104.92 98.73 91.17 94.65 91.34 82.64 Z"/></g><g><path fill="#000000" opacity="1.00" d=" M 84.99 127.91 C 86.93 123.51 91.92 121.55 96.48 121.89 C 106.48 123.33 115.74 128.52 125.96 128.60 C 131.63 128.72 136.46 125.27 140.21 121.35 C 134.91 131.76 121.02 130.27 111.70 127.11 C 103.32 124.37 91.74 119.46 84.99 127.91 Z"/><path fill="#000000" opacity="1.00" d=" M 229.17 200.33 C 231.69 196.96 232.43 192.72 233.15 188.68 C 233.43 192.75 234.52 197.29 232.12 200.96 C 229.19 205.69 223.28 207.27 218.02 207.01 C 156.66 206.92 95.30 207.13 33.95 206.90 C 24.86 207.13 19.13 197.85 21.59 189.49 L 22.20 189.59 C 22.61 191.90 23.02 194.22 23.58 196.50 C 24.72 198.36 26.05 200.10 27.51 201.71 C 32.63 205.33 39.15 204.10 45.00 204.25 C 98.67 204.20 152.33 204.25 206.00 204.23 C 211.81 204.18 217.68 204.69 223.44 203.66 C 225.42 202.68 227.33 201.56 229.17 200.33 Z"/></g><g><path fill="#dbdbdb" opacity="1.00" d=" M 13.20 174.51 C 14.47 170.69 16.12 166.98 18.71 163.87 C 18.11 165.31 17.50 166.75 16.89 168.19 C 17.83 168.47 18.78 168.74 19.72 169.02 C 20.08 168.52 20.79 167.50 21.14 166.99 C 21.10 170.62 21.19 174.26 21.37 177.90 C 21.68 181.79 21.88 185.70 22.20 189.59 L 21.59 189.49 C 20.92 189.41 19.59 189.25 18.92 189.18 C 18.77 194.62 17.97 200.88 21.27 205.58 C 25.10 207.28 28.56 210.35 32.78 210.84 C 58.56 210.15 84.47 211.10 110.28 209.88 C 129.11 211.51 148.00 209.43 166.79 211.39 C 174.54 208.92 182.64 211.66 190.44 209.81 C 203.02 209.36 215.95 212.80 228.17 208.47 C 232.89 207.01 234.50 201.91 236.56 197.95 C 236.94 197.96 237.72 197.99 238.10 198.00 C 238.59 198.02 239.57 198.05 240.05 198.07 C 240.45 196.63 240.86 195.20 241.27 193.76 C 242.43 193.79 243.59 193.81 244.76 193.84 C 244.97 192.30 245.20 190.77 245.42 189.23 C 245.89 200.25 250.37 212.47 244.73 222.77 C 241.31 222.44 237.90 222.93 234.56 223.60 C 233.91 222.82 233.26 222.04 232.62 221.27 C 224.16 220.82 214.22 225.22 206.82 219.85 C 205.06 220.65 203.32 221.47 201.57 222.29 C 201.27 221.63 200.67 220.31 200.37 219.65 C 199.44 220.66 198.51 221.67 197.58 222.69 C 183.19 221.23 168.86 221.89 154.46 222.32 C 145.52 220.34 135.92 224.65 127.40 220.37 C 127.05 220.95 126.71 221.53 126.36 222.11 C 122.16 222.01 117.77 219.98 113.75 222.03 C 111.65 223.34 110.08 221.01 108.57 219.90 C 108.29 220.66 108.01 221.44 107.73 222.21 C 93.83 222.33 79.94 221.82 66.04 221.96 C 64.70 221.74 63.49 221.06 62.24 220.57 C 61.97 220.94 61.42 221.69 61.15 222.06 C 58.40 222.19 55.66 222.34 52.92 222.54 C 52.71 221.75 52.50 220.96 52.29 220.17 C 45.33 224.12 37.05 220.81 29.51 222.21 C 29.31 221.65 28.91 220.55 28.70 219.99 C 28.16 220.82 27.61 221.65 27.07 222.48 C 23.13 220.92 18.15 218.81 14.27 221.65 C 13.38 222.22 12.50 222.81 11.62 223.41 C 8.77 219.16 8.15 214.04 8.60 209.04 C 9.67 195.66 11.29 182.33 12.29 168.95 L 12.43 169.84 C 12.65 171.40 12.94 172.95 13.20 174.51 Z"/></g><g><path fill="#8b8988" opacity="1.00" d=" M 222.57 181.91 C 227.45 180.66 232.07 177.85 233.96 172.96 C 233.98 175.47 234.03 177.98 233.82 180.49 C 233.58 181.74 233.35 182.99 233.12 184.24 C 233.13 182.08 233.14 179.92 233.17 177.76 C 230.55 179.68 227.96 182.12 224.58 182.47 C 224.08 182.33 223.07 182.05 222.57 181.91 Z"/></g><g><path fill="#5c5954" opacity="1.00" d=" M 21.37 177.90 C 24.23 179.58 27.07 181.30 29.93 182.98 C 30.21 187.20 30.76 191.54 29.69 195.69 C 28.08 197.21 25.56 196.25 23.58 196.50 C 23.02 194.22 22.61 191.90 22.20 189.59 C 21.88 185.70 21.68 181.79 21.37 177.90 Z"/></g><g><path fill="#efeeee" opacity="1.00" d=" M 233.82 180.49 C 238.53 185.24 235.04 192.46 238.10 198.00 C 237.72 197.99 236.94 197.96 236.56 197.95 C 234.50 201.91 232.89 207.01 228.17 208.47 C 215.95 212.80 203.02 209.36 190.44 209.81 C 182.64 211.66 174.54 208.92 166.79 211.39 C 148.00 209.43 129.11 211.51 110.28 209.88 C 84.47 211.10 58.56 210.15 32.78 210.84 C 28.56 210.35 25.10 207.28 21.27 205.58 C 17.97 200.88 18.77 194.62 18.92 189.18 C 19.59 189.25 20.92 189.41 21.59 189.49 C 19.13 197.85 24.86 207.13 33.95 206.90 C 95.30 207.13 156.66 206.92 218.02 207.01 C 223.28 207.27 229.19 205.69 232.12 200.96 C 234.52 197.29 233.43 192.75 233.15 188.68 C 233.11 187.20 233.09 185.72 233.12 184.24 C 233.35 182.99 233.58 181.74 233.82 180.49 Z"/></g><g><path fill="#b4b4b4" opacity="1.00" d=" M 30.57 182.89 C 36.95 181.38 43.52 182.19 49.99 182.05 C 107.52 181.96 165.05 182.21 222.57 181.91 C 223.07 182.05 224.08 182.33 224.58 182.47 C 223.68 182.59 221.89 182.81 221.00 182.93 C 219.29 183.01 217.58 183.02 215.88 183.02 C 155.64 182.99 95.41 182.97 35.17 183.03 C 33.64 182.99 32.11 182.94 30.57 182.89 Z"/><path fill="#b4b4b4" opacity="1.00" d=" M 11.62 223.41 C 12.50 222.81 13.38 222.22 14.27 221.65 C 18.01 223.29 22.02 224.31 26.13 224.21 C 26.16 225.91 26.19 227.61 26.21 229.31 C 20.76 229.54 15.25 227.57 11.62 223.41 Z"/><path fill="#b4b4b4" opacity="1.00" d=" M 234.56 223.60 C 237.90 222.93 241.31 222.44 244.73 222.77 C 241.36 227.49 235.42 229.51 229.80 229.31 C 229.81 227.59 229.83 225.88 229.86 224.16 C 231.43 224.03 233.00 223.84 234.56 223.60 Z"/></g><g><path fill="#262626" opacity="1.00" d=" M 35.17 183.03 C 95.41 182.97 155.64 182.99 215.88 183.02 C 215.79 187.88 214.94 192.91 216.27 197.66 C 217.97 200.34 220.95 201.82 223.44 203.66 C 217.68 204.69 211.81 204.18 206.00 204.23 C 152.33 204.25 98.67 204.20 45.00 204.25 C 39.15 204.10 32.63 205.33 27.51 201.71 C 30.06 200.31 33.70 199.72 34.95 196.78 C 35.98 192.27 35.30 187.60 35.17 183.03 Z"/></g><g><path fill="#989795" opacity="1.00" d=" M 26.13 224.21 C 94.04 223.98 161.95 224.07 229.86 224.16 C 229.83 225.88 229.81 227.59 229.80 229.31 C 161.94 229.26 94.07 229.26 26.21 229.31 C 26.19 227.61 26.16 225.91 26.13 224.21 Z"/></g></svg>