<svg xmlns="http://www.w3.org/2000/svg"viewBox="0 -0.5 425 458"><g><path fill="#e5e9e9" opacity="1.00" d=" M 207.16 0.00 L 226.88 0.00 C 229.29 0.67 231.76 1.13 234.14 1.91 C 295.40 26.26 356.65 50.70 417.92 75.02 C 426.92 79.98 433.11 89.14 435.00 99.18 L 435.00 357.02 C 432.98 366.96 426.89 376.05 417.93 380.98 C 356.91 405.26 295.84 429.48 234.85 453.85 C 232.23 454.78 229.48 455.28 226.79 456.00 L 206.96 456.00 C 203.93 455.03 200.86 454.18 197.87 453.11 C 138.25 429.42 78.65 405.66 19.03 382.00 C 9.35 378.41 2.94 369.55 0.00 359.95 L 0.00 95.99 C 3.22 84.01 12.88 74.97 24.73 71.70 C 80.82 49.56 136.83 27.19 192.84 4.85 C 197.48 2.85 202.31 1.38 207.16 0.00 M 197.42 14.58 C 141.79 36.64 86.12 58.60 30.51 80.71 C 28.39 81.82 24.20 83.28 25.60 86.35 C 28.58 89.11 32.62 90.21 36.29 91.74 C 89.76 112.91 143.25 134.05 196.69 155.31 C 208.25 160.55 221.93 161.19 233.87 156.82 C 287.82 135.46 341.75 114.05 395.71 92.72 C 400.12 90.90 404.81 89.57 408.70 86.70 C 408.68 85.57 408.67 84.44 408.66 83.30 C 405.39 81.07 401.67 79.71 397.99 78.33 C 343.12 56.57 288.22 34.87 233.35 13.11 C 221.78 9.08 208.63 9.62 197.42 14.58 M 17.34 103.37 C 12.68 103.79 9.75 108.55 9.84 112.93 C 9.75 191.29 9.87 269.65 9.78 348.00 C 9.07 359.41 16.90 370.69 27.69 374.30 C 84.09 396.56 140.42 419.01 196.84 441.21 C 203.11 444.11 210.25 438.82 209.82 432.08 C 210.00 353.72 209.81 275.36 209.91 196.99 C 210.34 186.29 203.52 175.56 193.59 171.52 C 136.94 149.09 80.29 126.66 23.66 104.21 C 21.65 103.44 19.48 103.09 17.34 103.37 M 412.34 103.31 C 355.61 125.35 299.14 148.11 242.49 170.39 C 231.50 174.10 223.73 185.39 224.04 196.97 C 224.15 274.98 223.90 352.99 224.16 430.99 C 223.43 438.52 231.03 444.83 238.17 441.34 C 294.33 419.16 350.45 396.83 406.64 374.69 C 417.20 370.94 425.26 360.38 425.13 349.03 C 425.13 273.35 425.09 197.67 425.15 122.00 C 425.01 116.75 426.01 110.86 422.85 106.26 C 420.60 102.89 416.00 102.14 412.34 103.31 Z"/></g><g><path fill="#e61e25" opacity="1.00" d=" M 197.42 14.58 C 208.63 9.62 221.78 9.08 233.35 13.11 C 288.22 34.87 343.12 56.57 397.99 78.33 C 401.67 79.71 405.39 81.07 408.66 83.30 C 408.67 84.44 408.68 85.57 408.70 86.70 C 404.81 89.57 400.12 90.90 395.71 92.72 C 341.75 114.05 287.82 135.46 233.87 156.82 C 221.93 161.19 208.25 160.55 196.69 155.31 C 143.25 134.05 89.76 112.91 36.29 91.74 C 32.62 90.21 28.58 89.11 25.60 86.35 C 24.20 83.28 28.39 81.82 30.51 80.71 C 86.12 58.60 141.79 36.64 197.42 14.58 Z"/></g><g><path fill="#343533" opacity="1.00" d=" M 17.34 103.37 C 19.48 103.09 21.65 103.44 23.66 104.21 C 80.29 126.66 136.94 149.09 193.59 171.52 C 203.52 175.56 210.34 186.29 209.91 196.99 C 209.81 275.36 210.00 353.72 209.82 432.08 C 210.25 438.82 203.11 444.11 196.84 441.21 C 140.42 419.01 84.09 396.56 27.69 374.30 C 16.90 370.69 9.07 359.41 9.78 348.00 C 9.87 269.65 9.75 191.29 9.84 112.93 C 9.75 108.55 12.68 103.79 17.34 103.37 Z"/></g><g><path fill="#cecccb" opacity="1.00" d=" M 412.34 103.31 C 416.00 102.14 420.60 102.89 422.85 106.26 C 426.01 110.86 425.01 116.75 425.15 122.00 C 425.09 197.67 425.13 273.35 425.13 349.03 C 425.26 360.38 417.20 370.94 406.64 374.69 C 350.45 396.83 294.33 419.16 238.17 441.34 C 231.03 444.83 223.43 438.52 224.16 430.99 C 223.90 352.99 224.15 274.98 224.04 196.97 C 223.73 185.39 231.50 174.10 242.49 170.39 C 299.14 148.11 355.61 125.35 412.34 103.31 Z"/></g></svg>
