<svg xmlns="http://www.w3.org/2000/svg"viewBox="0 0 88 64"><path d="M 0,5.6843419e-14 L 468,5.6843419e-14 L 468,63.97 L 0,63.97 L 0,5.6843419e-14 z" style="fill:#ffffff;fill-opacity:1;fill-rule:evenodd;stroke:none;stroke-width:1.7463963px;stroke-linecap:butt;stroke-linejoin:miter;marker:none;marker-start:none;marker-mid:none;marker-end:none;stroke-miterlimit:4;stroke-dashoffset:0;stroke-opacity:1;visibility:visible;display:inline;overflow:visible;enable-background:accumulate"/><path d="M 0,5.6843419e-14 L 0,23.15625 C 11.93181,18.18785 27.87453,13.19476 47.9375,8.15625 C 60.79319,4.93264 73.21785,2.22205 85.21875,5.6843419e-14 L 0,5.6843419e-14 z M 88.28125,4.9375 C 76.64713,6.66655 66.21357,8.70124 57.03125,11 C 46.51923,13.64035 38.05664,16.30966 31.65625,19.03125 C 25.24767,21.7041 22.27061,23.8658 22.6875,25.53125 C 23.06351,27.00173 25.74739,27.66936 30.75,27.53125 C 33.32488,27.48251 37.49393,27.19932 43.28125,26.6875 C 49.06859,26.17568 56.54057,25.43553 65.6875,24.46875 C 74.75401,23.53266 82.2635,22.89955 88.28125,22.53125 L 88.28125,4.9375 z M 62.4375,34.3125 C 59.86264,34.345 56.31793,34.54191 51.78125,34.875 C 47.22823,35.21622 41.59562,35.70758 34.84375,36.40625 C 24.36443,37.52738 15.6423,38.40006 8.71875,38.96875 C 5.39762,39.24901 2.5123,39.42325 0,39.5625 L 0,58.34375 C 13.75086,56.33371 26.19015,53.93716 37.28125,51.15625 C 48.17745,48.42654 56.55207,45.76286 62.4375,43.1875 C 68.3311,40.61215 71.08276,38.42732 70.625,36.65625 C 70.2408,35.12891 67.48098,34.35312 62.4375,34.3125 z M 88.28125,40.90625 C 76.19784,45.63979 61.20022,50.28222 43.28125,54.78125 C 26.59818,58.96426 12.18728,61.95721 0,63.8125 L 0,63.96875 L 88.28125,63.96875 L 88.28125,40.90625 z M 3.6875,44.84375 C 3.73252,44.83716 3.767,44.84336 3.8125,44.84375 C 4.04072,44.85142 4.28405,44.92294 4.4375,45.09375 C 4.67187,45.33502 4.73272,45.72182 4.59375,46.03125 C 4.44262,46.38736 4.04152,46.60212 3.65625,46.53125 C 3.23097,46.46951 2.90122,46.05147 2.9375,45.625 C 2.94982,45.2235 3.29063,44.89347 3.6875,44.84375 z M 6.8125,44.84375 C 7.01179,44.85177 7.19716,44.89215 7.34375,45.03125 C 7.62066,45.25878 7.72981,45.66796 7.59375,46 C 7.46636,46.34118 7.11731,46.59464 6.75,46.5625 C 6.43452,46.54956 6.12417,46.35299 6,46.0625 C 5.8283,45.68492 5.96817,45.17424 6.34375,44.96875 C 6.48378,44.88302 6.64791,44.84209 6.8125,44.84375 z M 3.8125,50.375 C 4.1848,50.36306 4.51743,50.62516 4.625,50.96875 C 4.73894,51.3509 4.55767,51.83174 4.1875,52 C 3.81568,52.18657 3.32732,52.06831 3.09375,51.71875 C 2.85601,51.37743 2.88887,50.86253 3.21875,50.59375 C 3.38042,50.44943 3.59534,50.37042 3.8125,50.375 z M 6.8125,50.375 C 7.1086,50.35881 7.37176,50.5462 7.53125,50.78125 C 7.76102,51.13968 7.66489,51.65661 7.3125,51.90625 C 6.95902,52.17508 6.40647,52.13001 6.125,51.78125 C 5.83403,51.43475 5.85323,50.84473 6.21875,50.5625 C 6.37736,50.43146 6.60544,50.36843 6.8125,50.375 z" style="font-style:normal;font-variant:normal;font-weight:normal;font-stretch:normal;letter-spacing:normal;word-spacing:normal;text-anchor:start;opacity:1;fill:#809cc8;fill-opacity:1;fill-rule:nonzero;stroke:none;stroke-width:0;stroke-linecap:butt;stroke-linejoin:miter;stroke-miterlimit:10.43299961;stroke-dasharray:none;stroke-dashoffset:0;stroke-opacity:1"/></svg>