<svg xmlns="http://www.w3.org/2000/svg"viewBox="44 28 112 113"><path d="M155.95 84.45c0 30.98-25.11 56.09-56.08 56.09 -30.97 0-56.08-25.11-56.08-56.09 0-30.97 25.11-56.08 56.08-56.08C130.84 28.37 155.95 53.48 155.95 84.45zM124.39 49.12c-5.7 0.2-10.67 3.34-14.37 7.68 -4.1 4.76-6.82 10.41-8.79 16.18 -3.51-2.88-6.22-6.61-11.86-8.23 -4.36-1.25-8.94-0.74-13.15 2.4 -1.99 1.49-3.37 3.74-4.02 5.86 -1.69 5.5 1.78 10.4 3.35 12.15l3.45 3.69c0.71 0.73 2.42 2.61 1.58 5.32 -0.9 2.95-4.45 4.85-8.09 3.73 -1.63-0.5-3.96-1.71-3.44-3.41 0.22-0.7 0.72-1.23 0.98-1.82 0.24-0.52 0.36-0.91 0.44-1.14 0.67-2.17-0.24-4.99-2.57-5.71 -2.17-0.67-4.39-0.14-5.25 2.66 -0.98 3.17 0.54 8.94 8.68 11.44 9.54 2.94 17.6-2.26 18.74-9.03 0.72-4.24-1.19-7.39-4.7-11.44l-2.86-3.16c-1.73-1.73-2.32-4.68-0.53-6.94 1.51-1.91 3.66-2.73 7.19-1.77 5.15 1.4 7.44 4.97 11.27 7.85 -1.58 5.19-2.61 10.39-3.55 15.06l-0.57 3.48c-2.74 14.35-4.83 22.24-10.26 26.76 -1.09 0.78-2.66 1.94-5.01 2.03 -1.24 0.04-1.64-0.81-1.65-1.19 -0.03-0.86 0.7-1.26 1.19-1.65 0.73-0.4 1.82-1.05 1.75-3.16 -0.08-2.48-2.14-4.64-5.11-4.54 -2.23 0.08-5.62 2.17-5.5 6.01 0.13 3.97 3.83 6.94 9.4 6.75 2.98-0.1 9.63-1.31 16.19-9.1 7.63-8.93 9.77-19.17 11.37-26.67l1.79-9.9c0.99 0.12 2.06 0.2 3.22 0.23 9.5 0.2 14.26-4.72 14.33-8.3 0.05-2.17-1.42-4.3-3.48-4.25 -1.47 0.04-3.32 1.02-3.76 3.06 -0.44 2 3.02 3.8 0.32 5.55 -1.92 1.24-5.36 2.12-10.21 1.41l0.88-4.87c1.8-9.24 4.02-20.6 12.44-20.88 0.62-0.03 2.86 0.03 2.91 1.51 0.01 0.49-0.11 0.62-0.69 1.76 -0.59 0.88-0.81 1.64-0.78 2.5 0.08 2.36 1.87 3.91 4.47 3.82 3.47-0.12 4.47-3.5 4.41-5.23C134.38 51.51 130.08 48.93 124.39 49.12z"/></svg>