<svg xmlns="http://www.w3.org/2000/svg"viewBox="8.5 8.5 260 183"><g><path fill="#000000" opacity="1.00" d=" M 145.87 8.70 C 156.31 13.74 167.23 20.63 171.36 32.07 C 187.18 29.46 203.38 29.31 219.27 31.45 C 224.27 20.78 234.47 13.61 244.93 8.87 C 252.11 35.97 250.93 65.88 239.09 91.55 C 242.13 91.51 245.18 91.56 248.22 91.57 C 248.25 92.36 248.30 93.93 248.32 94.72 C 244.65 94.69 240.98 94.73 237.31 94.86 C 236.62 96.37 235.89 97.85 235.14 99.33 C 239.53 99.34 243.93 99.32 248.32 99.35 C 248.30 100.41 248.26 101.47 248.19 102.54 C 243.19 102.52 238.19 102.52 233.19 102.58 C 225.71 114.62 215.84 125.11 204.31 133.34 C 217.01 146.81 229.80 160.22 242.19 173.98 C 253.42 173.92 269.58 179.16 268.82 192.90 C 256.64 192.12 242.99 196.24 232.26 188.78 C 190.68 167.49 146.74 148.21 99.69 144.06 C 100.15 151.30 102.45 158.48 107.09 164.16 C 114.31 161.75 125.53 164.15 124.55 173.77 C 115.50 172.66 104.51 177.01 97.32 169.69 C 86.63 162.14 76.94 153.31 67.01 144.87 C 47.97 148.66 33.08 168.72 37.36 188.16 C 27.73 188.22 18.10 188.23 8.48 188.16 C 8.85 182.74 12.01 178.19 14.61 173.62 C 24.99 156.61 37.38 140.91 50.81 126.23 C 42.37 114.75 35.09 101.52 34.60 86.96 C 33.96 72.50 42.28 57.64 55.73 51.80 C 64.55 47.85 74.51 48.45 83.80 50.07 C 85.73 48.04 87.77 45.28 90.98 45.83 C 101.92 46.93 112.02 53.31 118.72 61.91 C 108.63 65.62 96.95 66.23 86.88 62.19 C 83.40 61.07 82.88 57.31 82.61 54.17 C 74.64 53.14 66.21 52.47 58.58 55.52 C 46.79 60.03 39.23 72.55 39.09 84.95 C 38.89 98.97 45.89 111.84 53.93 122.88 C 78.93 98.29 110.60 80.49 144.43 71.38 C 139.88 50.94 137.73 28.51 145.87 8.70 M 147.51 15.97 C 144.48 30.75 144.69 45.97 147.16 60.81 C 151.27 63.06 155.43 65.22 159.54 67.46 C 155.95 67.74 152.35 67.96 148.76 68.22 C 149.11 73.53 152.24 77.19 157.57 78.08 C 155.78 78.60 154.00 79.11 152.21 79.62 C 153.67 83.69 155.34 87.68 157.27 91.54 C 160.90 91.52 164.53 91.53 168.16 91.54 C 168.17 92.34 168.18 93.93 168.19 94.73 C 165.07 94.71 161.95 94.75 158.84 94.76 C 160.01 99.29 164.06 99.94 168.18 99.40 C 168.19 100.43 168.18 101.46 168.15 102.50 C 166.60 102.52 165.05 102.54 163.51 102.57 C 171.87 115.01 183.28 125.42 196.73 132.12 C 209.25 124.79 220.11 114.66 228.13 102.55 C 226.09 102.53 224.06 102.52 222.03 102.51 C 222.01 101.45 222.01 100.39 222.04 99.34 C 224.73 99.38 227.42 99.30 230.12 99.34 C 231.01 97.81 231.88 96.27 232.76 94.73 C 229.18 94.74 225.60 94.73 222.02 94.72 C 222.02 93.93 222.03 92.34 222.03 91.55 C 226.17 91.52 230.31 91.55 234.45 91.48 C 235.64 88.82 236.78 86.13 237.86 83.42 C 235.92 82.74 233.97 82.07 232.04 81.38 C 237.94 81.03 241.34 77.21 241.51 71.36 C 239.01 70.94 236.50 70.61 234.01 70.18 C 236.72 68.57 240.73 68.18 242.65 65.70 C 245.35 49.29 244.41 32.44 242.77 15.96 C 240.60 24.58 236.82 33.16 229.59 38.72 C 220.69 36.43 211.53 35.24 202.36 34.91 C 200.72 40.58 199.11 46.25 197.42 51.91 C 194.79 46.25 192.25 40.56 189.63 34.90 C 180.70 35.71 171.85 37.09 163.11 39.02 C 153.35 35.80 149.67 25.04 147.51 15.97 M 123.73 83.19 C 126.02 90.16 128.45 97.08 130.74 104.05 C 123.42 99.42 116.41 94.34 109.10 89.71 C 106.95 90.83 104.80 91.94 102.66 93.07 C 104.99 97.21 107.44 101.27 109.73 105.43 C 104.47 103.16 99.69 99.74 94.22 98.03 C 90.74 99.64 87.70 102.01 84.48 104.07 C 85.57 108.06 86.69 112.04 87.75 116.04 C 84.30 113.70 80.87 111.35 77.43 108.99 C 70.23 114.35 63.42 120.23 57.06 126.57 C 60.62 131.16 64.58 135.39 68.69 139.47 C 77.39 138.25 86.16 138.56 94.90 139.06 C 95.22 131.20 96.70 123.44 98.65 115.83 C 100.17 116.29 101.68 116.73 103.20 117.16 C 101.62 124.48 99.84 131.82 99.83 139.36 C 149.87 143.80 196.35 164.87 240.42 187.68 C 248.03 189.39 256.08 188.04 263.87 188.37 C 260.66 183.28 255.26 179.59 249.26 178.80 C 246.56 178.17 243.78 178.22 241.04 178.53 C 234.04 171.20 227.32 163.61 220.27 156.32 C 215.45 157.58 210.64 158.87 205.78 159.98 C 209.20 157.19 212.73 154.55 216.23 151.87 C 214.06 149.50 211.85 147.16 209.63 144.84 C 205.97 146.46 202.33 148.12 198.67 149.74 C 200.75 146.39 202.92 143.10 205.07 139.79 C 203.78 138.43 202.49 137.07 201.21 135.71 C 199.52 136.64 197.89 137.68 196.20 138.62 C 180.91 129.68 167.41 117.50 157.77 102.58 C 152.51 102.51 147.25 102.53 142.00 102.53 C 141.96 101.47 141.96 100.41 141.98 99.35 C 146.59 99.32 151.21 99.33 155.82 99.34 C 154.93 97.79 154.02 96.26 153.13 94.72 C 149.41 94.73 145.70 94.73 141.98 94.72 C 141.98 93.93 141.97 92.34 141.97 91.55 C 145.18 91.54 148.39 91.52 151.60 91.56 C 149.28 86.48 147.22 81.28 145.60 75.93 C 138.17 77.91 130.82 80.21 123.73 83.19 M 14.42 183.46 C 20.25 183.51 26.08 183.49 31.91 183.48 C 31.05 164.20 44.96 146.30 63.21 140.85 C 59.92 137.42 56.77 133.87 53.72 130.24 C 38.88 146.57 24.84 163.93 14.42 183.46 Z"/><path fill="#000000" opacity="1.00" d=" M 165.99 57.56 C 168.57 50.93 176.42 44.63 183.59 48.39 C 189.64 53.50 187.41 62.59 186.39 69.40 C 194.13 69.39 201.87 69.43 209.60 69.37 C 212.25 60.52 221.18 55.50 230.11 55.90 C 230.11 56.63 230.12 58.09 230.13 58.82 C 222.77 58.51 215.15 62.01 212.65 69.34 C 216.94 69.43 221.23 69.39 225.52 69.43 C 225.50 70.15 225.47 71.60 225.45 72.32 C 220.75 72.33 216.05 72.34 211.35 72.33 C 210.28 77.45 211.87 82.51 214.65 86.80 C 209.20 90.34 203.75 93.88 198.29 97.41 C 201.78 99.59 205.28 101.75 208.77 103.94 C 208.38 104.54 207.59 105.75 207.20 106.35 C 203.44 103.89 199.66 101.45 195.89 99.00 C 192.39 101.33 188.86 103.64 185.32 105.92 C 184.84 105.09 184.37 104.27 183.90 103.44 C 186.98 101.39 190.08 99.36 193.16 97.30 C 187.67 93.77 182.12 90.34 176.61 86.85 C 179.12 82.22 181.11 77.33 182.69 72.31 C 178.46 72.34 174.23 72.35 170.00 72.31 C 170.01 71.59 170.03 70.14 170.05 69.41 C 174.49 69.39 178.93 69.40 183.37 69.40 C 184.21 63.41 186.57 55.89 182.08 50.87 C 176.35 48.24 170.98 53.74 168.56 58.48 C 167.91 58.25 166.63 57.79 165.99 57.56 M 185.63 72.31 C 184.42 76.62 182.82 80.81 180.98 84.89 C 190.79 84.87 200.60 84.84 210.41 84.90 C 208.48 80.98 207.75 76.60 208.47 72.28 C 200.85 72.39 193.24 72.32 185.63 72.31 M 183.76 87.84 C 187.76 90.46 191.81 92.98 195.86 95.52 C 199.73 92.99 203.61 90.47 207.42 87.85 C 199.53 87.77 191.65 87.78 183.76 87.84 Z"/></g><g><path fill="#ffdc76" opacity="1.00" d=" M 147.51 15.97 C 149.67 25.04 153.35 35.80 163.11 39.02 C 171.85 37.09 180.70 35.71 189.63 34.90 C 192.25 40.56 194.79 46.25 197.42 51.91 C 199.11 46.25 200.72 40.58 202.36 34.91 C 211.53 35.24 220.69 36.43 229.59 38.72 C 236.82 33.16 240.60 24.58 242.77 15.96 C 244.41 32.44 245.35 49.29 242.65 65.70 C 240.73 68.18 236.72 68.57 234.01 70.18 C 236.50 70.61 239.01 70.94 241.51 71.36 C 241.34 77.21 237.94 81.03 232.04 81.38 C 233.97 82.07 235.92 82.74 237.86 83.42 C 236.78 86.13 235.64 88.82 234.45 91.48 C 230.31 91.55 226.17 91.52 222.03 91.55 C 222.03 92.34 222.02 93.93 222.02 94.72 C 225.60 94.73 229.18 94.74 232.76 94.73 C 231.88 96.27 231.01 97.81 230.12 99.34 C 227.42 99.30 224.73 99.38 222.04 99.34 C 222.01 100.39 222.01 101.45 222.03 102.51 C 224.06 102.52 226.09 102.53 228.13 102.55 C 220.11 114.66 209.25 124.79 196.73 132.12 C 183.28 125.42 171.87 115.01 163.51 102.57 C 165.05 102.54 166.60 102.52 168.15 102.50 C 168.18 101.46 168.19 100.43 168.18 99.40 C 164.06 99.94 160.01 99.29 158.84 94.76 C 161.95 94.75 165.07 94.71 168.19 94.73 C 168.18 93.93 168.17 92.34 168.16 91.54 C 164.53 91.53 160.90 91.52 157.27 91.54 C 155.34 87.68 153.67 83.69 152.21 79.62 C 154.00 79.11 155.78 78.60 157.57 78.08 C 152.24 77.19 149.11 73.53 148.76 68.22 C 152.35 67.96 155.95 67.74 159.54 67.46 C 155.43 65.22 151.27 63.06 147.16 60.81 C 144.69 45.97 144.48 30.75 147.51 15.97 M 165.99 57.56 C 166.63 57.79 167.91 58.25 168.56 58.48 C 170.98 53.74 176.35 48.24 182.08 50.87 C 186.57 55.89 184.21 63.41 183.37 69.40 C 178.93 69.40 174.49 69.39 170.05 69.41 C 170.03 70.14 170.01 71.59 170.00 72.31 C 174.23 72.35 178.46 72.34 182.69 72.31 C 181.11 77.33 179.12 82.22 176.61 86.85 C 182.12 90.34 187.67 93.77 193.16 97.30 C 190.08 99.36 186.98 101.39 183.90 103.44 C 184.37 104.27 184.84 105.09 185.32 105.92 C 188.86 103.64 192.39 101.33 195.89 99.00 C 199.66 101.45 203.44 103.89 207.20 106.35 C 207.59 105.75 208.38 104.54 208.77 103.94 C 205.28 101.75 201.78 99.59 198.29 97.41 C 203.75 93.88 209.20 90.34 214.65 86.80 C 211.87 82.51 210.28 77.45 211.35 72.33 C 216.05 72.34 220.75 72.33 225.45 72.32 C 225.47 71.60 225.50 70.15 225.52 69.43 C 221.23 69.39 216.94 69.43 212.65 69.34 C 215.15 62.01 222.77 58.51 230.13 58.82 C 230.12 58.09 230.11 56.63 230.11 55.90 C 221.18 55.50 212.25 60.52 209.60 69.37 C 201.87 69.43 194.13 69.39 186.39 69.40 C 187.41 62.59 189.64 53.50 183.59 48.39 C 176.42 44.63 168.57 50.93 165.99 57.56 Z"/><path fill="#ffdc76" opacity="1.00" d=" M 185.63 72.31 C 193.24 72.32 200.85 72.39 208.47 72.28 C 207.75 76.60 208.48 80.98 210.41 84.90 C 200.60 84.84 190.79 84.87 180.98 84.89 C 182.82 80.81 184.42 76.62 185.63 72.31 Z"/><path fill="#ffdc76" opacity="1.00" d=" M 183.76 87.84 C 191.65 87.78 199.53 87.77 207.42 87.85 C 203.61 90.47 199.73 92.99 195.86 95.52 C 191.81 92.98 187.76 90.46 183.76 87.84 Z"/></g><g><path fill="#d1a41a" opacity="1.00" d=" M 123.73 83.19 C 130.82 80.21 138.17 77.91 145.60 75.93 C 147.22 81.28 149.28 86.48 151.60 91.56 C 148.39 91.52 145.18 91.54 141.97 91.55 C 141.97 92.34 141.98 93.93 141.98 94.72 C 145.70 94.73 149.41 94.73 153.13 94.72 C 154.02 96.26 154.93 97.79 155.82 99.34 C 151.21 99.33 146.59 99.32 141.98 99.35 C 141.96 100.41 141.96 101.47 142.00 102.53 C 147.25 102.53 152.51 102.51 157.77 102.58 C 167.41 117.50 180.91 129.68 196.20 138.62 C 197.89 137.68 199.52 136.64 201.21 135.71 C 202.49 137.07 203.78 138.43 205.07 139.79 C 202.92 143.10 200.75 146.39 198.67 149.74 C 202.33 148.12 205.97 146.46 209.63 144.84 C 211.85 147.16 214.06 149.50 216.23 151.87 C 212.73 154.55 209.20 157.19 205.78 159.98 C 210.64 158.87 215.45 157.58 220.27 156.32 C 227.32 163.61 234.04 171.20 241.04 178.53 C 243.78 178.64 246.52 178.65 249.26 178.80 C 255.26 179.59 260.66 183.28 263.87 188.37 C 256.08 188.04 248.03 189.39 240.42 187.68 C 196.35 164.87 149.87 143.80 99.83 139.36 C 99.84 131.82 101.62 124.48 103.20 117.16 C 101.68 116.73 100.17 116.29 98.65 115.83 C 96.70 123.44 95.22 131.20 94.90 139.06 C 86.16 138.56 77.39 138.25 68.69 139.47 C 64.58 135.39 60.62 131.16 57.06 126.57 C 63.42 120.23 70.23 114.35 77.43 108.99 C 80.87 111.35 84.30 113.70 87.75 116.04 C 86.69 112.04 85.57 108.06 84.48 104.07 C 87.70 102.01 90.74 99.64 94.22 98.03 C 99.69 99.74 104.47 103.16 109.73 105.43 C 107.44 101.27 104.99 97.21 102.66 93.07 C 104.80 91.94 106.95 90.83 109.10 89.71 C 116.41 94.34 123.42 99.42 130.74 104.05 C 128.45 97.08 126.02 90.16 123.73 83.19 Z"/><path fill="#d1a41a" opacity="1.00" d=" M 14.42 183.46 C 24.84 163.93 38.88 146.57 53.72 130.24 C 56.77 133.87 59.92 137.42 63.21 140.85 C 44.96 146.30 31.05 164.20 31.91 183.48 C 26.08 183.49 20.25 183.51 14.42 183.46 Z"/></g><g><path fill="#5d4d1d" opacity="0.93" d=" M 241.04 178.53 C 243.78 178.22 246.56 178.17 249.26 178.80 C 246.52 178.65 243.78 178.64 241.04 178.53 Z"/></g></svg>
