<svg xmlns="http://www.w3.org/2000/svg"viewBox="240 132 450 670"><g><path fill="#ffffff" opacity="1.00" d=" M 460.28 658.13 C 463.41 658.22 466.48 658.98 469.39 660.14 C 469.47 660.33 469.62 660.70 469.69 660.89 C 472.21 664.65 472.33 669.39 470.10 673.33 C 464.60 678.23 456.34 676.04 453.35 669.48 C 453.57 664.70 456.04 660.42 460.28 658.13 Z"/><path fill="#ffffff" opacity="1.00" d=" M 480.09 674.34 C 475.96 669.34 477.92 662.58 482.84 659.01 C 486.40 659.17 490.79 658.56 493.38 661.62 C 497.21 665.52 496.24 672.77 491.46 675.47 C 487.90 677.84 483.39 676.48 480.09 674.34 Z"/><path fill="#ffffff" opacity="1.00" d=" M 286.32 745.99 C 286.16 741.64 291.08 738.13 294.89 740.92 C 295.54 741.30 296.85 742.07 297.50 742.46 C 297.49 744.33 297.55 746.20 297.69 748.08 C 296.02 749.51 294.35 750.92 292.68 752.35 C 290.10 750.90 286.17 749.60 286.32 745.99 Z"/><path fill="#ffffff" opacity="1.00" d=" M 303.55 739.31 C 308.26 738.71 314.83 741.76 312.37 747.45 C 310.52 752.37 305.48 751.14 301.75 749.34 C 301.31 745.86 302.15 742.46 303.55 739.31 Z"/></g><g><path fill="#9bbd48" opacity="1.00" d=" M 598.47 142.53 C 611.64 134.41 627.92 129.91 643.23 133.82 C 639.92 133.72 636.61 133.84 633.32 134.06 C 611.91 134.40 594.83 150.18 581.64 165.51 C 552.82 200.16 534.93 242.08 518.89 283.76 C 517.73 285.85 516.40 287.84 515.10 289.85 C 510.92 286.37 508.14 281.65 506.56 276.49 C 504.68 280.67 502.92 284.90 501.18 289.14 C 500.85 288.63 500.19 287.61 499.86 287.09 C 510.19 257.60 523.61 229.08 541.26 203.22 C 556.90 180.20 574.46 157.35 598.47 142.53 Z"/></g><g><path fill="#b0c829" opacity="1.00" d=" M 581.64 165.51 C 594.83 150.18 611.91 134.40 633.32 134.06 C 616.44 138.44 602.85 150.05 591.77 163.04 C 588.30 163.43 584.79 163.95 581.64 165.51 Z"/><path fill="#b0c829" opacity="1.00" d=" M 540.30 482.36 C 552.40 463.38 566.63 443.45 588.12 434.58 C 561.92 463.10 545.89 499.39 536.29 536.57 C 526.84 572.05 522.58 608.70 520.49 645.30 C 512.71 647.96 507.29 654.39 505.05 662.19 C 500.07 654.93 491.35 652.98 484.38 648.42 C 488.18 628.73 492.25 609.08 497.27 589.66 C 508.37 552.77 520.08 515.48 540.30 482.36 Z"/><path fill="#b0c829" opacity="1.00" d=" M 280.31 485.52 C 285.08 506.11 289.44 526.97 292.33 547.85 C 288.06 560.58 294.99 575.33 287.20 586.97 C 282.67 578.64 284.79 569.01 284.17 560.00 C 283.48 549.25 283.22 538.46 282.22 527.73 C 281.50 513.67 280.97 499.59 280.31 485.52 Z"/><path fill="#b0c829" opacity="1.00" d=" M 336.08 522.85 C 364.59 518.47 394.59 528.21 414.78 548.89 L 414.64 549.12 C 413.89 550.37 413.15 551.64 412.42 552.91 C 413.59 556.05 414.91 559.15 415.97 562.34 C 418.39 568.72 415.36 575.93 418.83 582.08 C 424.44 593.11 429.24 604.81 429.85 617.33 C 423.96 600.50 417.57 583.60 407.10 568.99 C 390.81 545.09 365.22 526.49 336.08 522.85 Z"/><path fill="#b0c829" opacity="1.00" d=" M 243.68 647.78 C 264.73 660.98 278.14 683.31 286.69 706.11 C 289.12 713.59 291.52 721.10 293.27 728.78 C 289.23 734.63 284.07 739.54 278.57 744.00 C 274.26 710.20 268.11 673.41 243.68 647.78 Z"/><path fill="#b0c829" opacity="1.00" d=" M 314.95 717.02 C 325.85 705.44 343.31 700.29 358.63 704.79 C 350.30 705.12 341.42 707.17 335.61 713.62 C 326.97 722.58 324.08 735.00 321.62 746.78 C 320.71 738.28 311.66 735.95 306.69 730.39 C 309.97 723.85 316.34 718.03 314.25 709.96 C 314.47 712.31 314.69 714.66 314.95 717.02 Z"/><path fill="#b0c829" opacity="1.00" d=" M 432.65 720.98 C 434.78 728.16 436.59 735.44 439.03 742.53 C 441.61 750.65 441.20 760.75 447.78 766.93 C 447.23 766.82 446.14 766.59 445.60 766.47 C 445.85 767.67 446.16 768.91 446.46 770.13 C 446.79 771.61 447.20 773.12 447.58 774.61 C 447.74 775.22 448.06 776.44 448.21 777.05 C 443.29 776.50 438.38 775.88 433.48 775.13 C 433.47 774.56 433.44 773.43 433.42 772.87 C 433.40 772.26 433.37 771.03 433.35 770.42 C 433.23 765.74 433.20 761.07 433.16 756.39 C 433.16 755.77 433.16 754.51 433.16 753.89 C 433.52 742.91 432.58 731.96 432.65 720.98 Z"/><path fill="#b0c829" opacity="1.00" d=" M 532.94 759.08 C 537.04 751.98 540.63 744.58 545.03 737.66 C 541.32 750.38 536.97 762.92 532.68 775.47 C 529.68 775.58 526.68 775.73 523.69 775.87 C 524.31 774.73 524.94 773.59 525.57 772.47 C 528.06 768.02 530.47 763.53 532.94 759.08 Z"/><path fill="#b0c829" opacity="1.00" d=" M 401.72 747.32 C 405.56 751.07 408.94 755.24 412.43 759.31 C 414.01 761.15 415.57 763.00 417.14 764.86 C 415.09 764.95 413.05 765.06 411.02 765.17 C 409.84 762.99 408.69 760.80 407.50 758.63 C 405.47 754.91 403.43 751.19 401.72 747.32 Z"/><path fill="#b0c829" opacity="1.00" d=" M 550.23 766.94 C 554.79 762.00 559.51 757.21 564.38 752.58 C 562.40 757.48 560.08 762.22 557.88 767.02 C 555.32 767.02 552.77 766.98 550.23 766.94 Z"/><path fill="#b0c829" opacity="1.00" d=" M 270.98 760.60 C 274.58 769.53 277.33 778.78 280.82 787.76 C 281.51 790.14 282.25 792.52 283.07 794.87 C 283.60 796.39 284.17 797.91 284.75 799.44 C 284.95 799.97 285.35 801.02 285.55 801.55 C 282.11 801.23 278.68 800.93 275.24 800.66 L 275.14 800.08 C 275.08 799.75 274.96 799.09 274.90 798.76 C 274.28 793.79 273.97 788.79 273.35 783.82 C 272.49 776.08 271.27 768.38 270.98 760.60 Z"/><path fill="#b0c829" opacity="1.00" d=" M 336.68 789.33 C 339.54 782.06 341.90 774.58 345.06 767.43 C 343.72 777.52 341.52 787.49 339.82 797.53 C 337.72 797.66 335.62 797.79 333.54 797.94 C 334.57 795.06 335.62 792.19 336.68 789.33 Z"/><path fill="#b0c829" opacity="1.00" d=" M 251.81 779.48 C 254.97 782.53 257.91 785.81 260.76 789.16 C 261.95 790.56 263.14 791.99 264.32 793.42 C 262.93 793.60 261.54 793.78 260.15 793.98 C 259.29 792.52 258.41 791.07 257.55 789.62 C 255.57 786.27 253.56 782.95 251.81 779.48 Z"/><path fill="#b0c829" opacity="1.00" d=" M 350.10 790.21 C 352.78 786.29 355.48 782.37 358.60 778.78 C 357.61 782.67 356.51 786.54 355.24 790.36 C 353.52 790.28 351.81 790.22 350.10 790.21 Z"/></g><g><path fill="#769417" opacity="1.00" d=" M 633.32 134.06 C 636.61 133.84 639.92 133.72 643.23 133.82 C 663.01 138.64 678.62 154.37 688.05 171.86 C 677.93 158.53 665.10 146.21 648.81 141.11 C 636.82 137.19 623.46 141.10 614.01 149.03 C 600.10 160.51 592.00 177.04 583.46 192.54 C 544.43 269.42 524.10 354.19 509.82 438.74 C 509.59 436.45 509.24 434.19 508.88 431.94 C 504.10 433.45 498.02 434.48 495.93 439.72 C 491.30 451.06 490.87 463.56 486.92 475.11 C 483.28 475.87 479.03 476.37 476.98 479.94 C 477.72 471.91 478.42 463.88 479.27 455.87 C 479.78 452.30 480.35 448.75 480.91 445.19 C 481.87 442.66 483.03 440.22 484.17 437.77 C 486.61 437.68 489.09 437.75 491.48 437.20 C 494.54 433.75 495.09 428.86 496.23 424.55 C 503.28 390.76 510.92 357.05 521.00 324.01 C 524.98 309.02 531.13 294.71 534.72 279.62 C 548.99 238.73 564.68 197.40 591.77 163.04 C 602.85 150.05 616.44 138.44 633.32 134.06 Z"/><path fill="#769417" opacity="1.00" d=" M 304.24 671.11 C 306.69 658.68 298.79 645.35 305.64 633.80 C 308.05 645.91 309.03 658.29 310.42 670.56 C 307.90 673.27 305.92 676.40 304.23 679.68 C 301.69 680.11 299.14 680.48 296.60 680.86 C 296.34 682.31 296.08 683.76 295.88 685.24 C 295.85 684.78 295.80 683.87 295.77 683.41 C 295.35 678.99 295.19 674.56 295.09 670.13 C 298.13 670.50 301.18 670.83 304.24 671.11 Z"/><path fill="#769417" opacity="1.00" d=" M 463.80 689.08 C 463.84 680.57 451.72 678.24 453.35 669.48 C 456.34 676.04 464.60 678.23 470.10 673.33 C 470.57 675.95 471.09 678.57 471.41 681.23 C 472.19 691.08 471.55 701.13 474.68 710.66 C 476.08 722.27 477.74 733.86 477.69 745.59 C 478.24 752.54 478.94 759.48 479.51 766.44 C 478.96 767.95 478.14 769.34 477.11 770.59 C 476.78 770.88 476.12 771.46 475.78 771.75 C 475.37 771.87 474.53 772.11 474.12 772.23 C 473.69 772.18 472.84 772.10 472.42 772.06 C 470.49 771.56 468.60 770.95 466.68 770.48 C 466.95 743.33 466.60 716.09 463.80 689.08 Z"/><path fill="#769417" opacity="1.00" d=" M 296.25 781.91 C 297.11 782.92 297.96 783.94 298.81 784.97 C 298.89 786.67 298.94 788.37 298.98 790.09 C 299.03 792.53 299.07 794.97 299.18 797.43 C 298.02 797.13 296.86 796.87 295.70 796.64 C 295.90 791.73 296.05 786.82 296.25 781.91 Z"/><path fill="#769417" opacity="1.00" d=" M 320.90 782.68 L 320.74 781.48 C 321.09 783.23 321.46 785.00 321.57 786.80 C 321.62 787.37 321.71 788.52 321.76 789.10 C 322.08 791.76 322.45 794.42 322.72 797.10 C 319.75 797.64 316.76 798.10 313.79 798.70 C 313.01 793.61 313.07 788.40 315.32 783.68 C 317.07 784.20 318.87 784.65 320.62 785.20 C 320.85 784.36 320.94 783.52 320.90 782.68 Z"/></g><g><path fill="#98bc21" opacity="1.00" d=" M 581.64 165.51 C 584.79 163.95 588.30 163.43 591.77 163.04 C 564.68 197.40 548.99 238.73 534.72 279.62 C 531.97 285.09 530.87 291.43 527.00 296.29 C 523.13 295.32 521.52 291.38 519.54 288.36 C 518.06 290.97 516.49 293.55 515.17 296.25 C 516.53 292.12 517.48 287.87 518.89 283.76 C 534.93 242.08 552.82 200.16 581.64 165.51 Z"/><path fill="#98bc21" opacity="1.00" d=" M 282.22 527.73 C 283.22 538.46 283.48 549.25 284.17 560.00 C 284.79 569.01 282.67 578.64 287.20 586.97 C 294.99 575.33 288.06 560.58 292.33 547.85 C 294.22 555.80 295.99 563.94 296.48 572.09 C 293.44 581.99 297.82 593.00 292.40 602.27 C 291.28 603.55 290.10 604.79 288.93 606.03 C 287.34 605.80 285.76 605.56 284.19 605.32 C 283.90 579.45 282.82 553.59 282.22 527.73 Z"/><path fill="#98bc21" opacity="1.00" d=" M 412.42 552.91 C 413.15 551.64 413.89 550.37 414.64 549.12 C 428.96 563.25 439.44 580.92 447.06 599.44 C 446.24 600.10 445.43 600.77 444.62 601.45 C 447.29 611.79 451.12 622.01 451.53 632.79 C 451.77 638.91 448.46 644.31 445.45 649.37 C 441.73 655.51 441.00 662.79 439.53 669.67 C 437.02 652.10 434.38 634.51 429.85 617.33 C 429.24 604.81 424.44 593.11 418.83 582.08 C 415.36 575.93 418.39 568.72 415.97 562.34 C 414.91 559.15 413.59 556.05 412.42 552.91 Z"/><path fill="#98bc21" opacity="1.00" d=" M 505.05 662.19 C 507.29 654.39 512.71 647.96 520.49 645.30 C 519.61 668.71 519.26 692.13 520.35 715.55 C 514.36 715.74 506.20 716.91 504.88 724.02 C 502.39 738.17 502.69 752.66 502.87 766.99 C 501.05 767.01 499.24 767.06 497.43 767.14 C 493.95 767.19 490.48 766.98 487.02 766.79 C 487.17 758.42 480.64 752.76 477.69 745.59 C 477.74 733.86 476.08 722.27 474.68 710.66 C 476.48 700.97 477.53 691.16 479.08 681.43 C 479.43 679.06 479.76 676.70 480.09 674.34 C 483.39 676.48 487.90 677.84 491.46 675.47 C 496.24 672.77 497.21 665.52 493.38 661.62 C 490.79 658.56 486.40 659.17 482.84 659.01 C 483.04 657.47 483.25 655.94 483.47 654.42 C 483.75 652.41 484.03 650.40 484.38 648.42 C 491.35 652.98 500.07 654.93 505.05 662.19 Z"/><path fill="#98bc21" opacity="1.00" d=" M 293.27 728.78 C 294.14 732.77 294.56 736.84 294.89 740.92 C 291.08 738.13 286.16 741.64 286.32 745.99 C 286.17 749.60 290.10 750.90 292.68 752.35 C 294.00 758.39 293.96 764.61 293.68 770.76 C 289.36 771.41 284.98 771.67 280.61 771.73 C 280.20 762.47 279.59 753.21 278.57 744.00 C 284.07 739.54 289.23 734.63 293.27 728.78 Z"/><path fill="#98bc21" opacity="1.00" d=" M 306.69 730.39 C 311.66 735.95 320.71 738.28 321.62 746.78 C 321.56 752.96 320.25 759.06 320.29 765.27 C 318.14 766.04 315.43 766.10 313.76 767.76 C 311.08 773.55 313.20 780.28 311.18 786.24 C 307.84 789.00 303.06 789.05 298.98 790.09 C 298.94 788.37 298.89 786.67 298.81 784.97 C 298.03 775.54 298.42 766.08 299.08 756.65 C 299.94 754.19 300.93 751.80 301.75 749.34 C 305.48 751.14 310.52 752.37 312.37 747.45 C 314.83 741.76 308.26 738.71 303.55 739.31 C 304.69 736.36 305.56 733.33 306.69 730.39 Z"/></g><g><path fill="#92b744" opacity="1.00" d=" M 501.18 289.14 C 502.92 284.90 504.68 280.67 506.56 276.49 C 508.14 281.65 510.92 286.37 515.10 289.85 C 516.40 287.84 517.73 285.85 518.89 283.76 C 517.48 287.87 516.53 292.12 515.17 296.25 C 504.44 326.40 496.48 357.47 489.96 388.79 C 487.16 398.40 474.22 396.43 470.33 405.21 C 477.01 365.15 486.58 325.50 499.86 287.09 C 500.19 287.61 500.85 288.63 501.18 289.14 Z"/></g><g><path fill="#82aa1a" opacity="1.00" d=" M 527.00 296.29 C 530.87 291.43 531.97 285.09 534.72 279.62 C 531.13 294.71 524.98 309.02 521.00 324.01 C 510.92 357.05 503.28 390.76 496.23 424.55 C 495.09 428.86 494.54 433.75 491.48 437.20 C 489.09 437.75 486.61 437.68 484.17 437.77 C 483.03 440.22 481.87 442.66 480.91 445.19 C 482.99 426.25 486.47 407.51 489.96 388.79 C 496.48 357.47 504.44 326.40 515.17 296.25 C 516.49 293.55 518.06 290.97 519.54 288.36 C 521.52 291.38 523.13 295.32 527.00 296.29 Z"/><path fill="#82aa1a" opacity="1.00" d=" M 292.40 602.27 C 297.82 593.00 293.44 581.99 296.48 572.09 C 300.38 592.46 303.70 613.26 305.64 633.80 C 298.79 645.35 306.69 658.68 304.24 671.11 C 301.18 670.83 298.13 670.50 295.09 670.13 C 294.62 660.41 293.93 650.70 293.74 640.97 C 293.41 628.08 290.39 615.15 292.40 602.27 Z"/><path fill="#82aa1a" opacity="1.00" d=" M 444.62 601.45 C 445.43 600.77 446.24 600.10 447.06 599.44 C 448.05 601.20 449.10 602.95 450.03 604.76 C 455.07 618.01 459.30 631.59 462.48 645.41 C 463.69 649.75 463.54 654.69 460.28 658.13 C 456.04 660.42 453.57 664.70 453.35 669.48 C 451.72 678.24 463.84 680.57 463.80 689.08 C 466.60 716.09 466.95 743.33 466.68 770.48 C 460.48 768.78 454.11 767.92 447.78 766.93 C 441.20 760.75 441.61 750.65 439.03 742.53 C 441.59 718.32 440.46 693.90 439.53 669.67 C 441.00 662.79 441.73 655.51 445.45 649.37 C 448.46 644.31 451.77 638.91 451.53 632.79 C 451.12 622.01 447.29 611.79 444.62 601.45 Z"/><path fill="#82aa1a" opacity="1.00" d=" M 504.88 724.02 C 506.20 716.91 514.36 715.74 520.35 715.55 C 520.82 728.50 522.00 741.41 522.78 754.34 C 523.20 758.69 523.82 763.02 524.42 767.36 C 517.24 767.13 510.06 766.88 502.87 766.99 C 502.69 752.66 502.39 738.17 504.88 724.02 Z"/><path fill="#82aa1a" opacity="1.00" d=" M 477.69 745.59 C 480.64 752.76 487.17 758.42 487.02 766.79 C 484.51 766.73 482.01 766.57 479.51 766.44 C 478.94 759.48 478.24 752.54 477.69 745.59 Z"/><path fill="#82aa1a" opacity="1.00" d=" M 292.68 752.35 C 294.35 750.92 296.02 749.51 297.69 748.08 C 298.01 750.95 298.63 753.79 299.08 756.65 C 298.42 766.08 298.03 775.54 298.81 784.97 C 297.96 783.94 297.11 782.92 296.25 781.91 C 296.05 786.82 295.90 791.73 295.70 796.64 C 291.51 795.88 287.29 795.38 283.07 794.87 C 282.25 792.52 281.51 790.14 280.82 787.76 C 280.99 782.41 280.91 777.06 280.61 771.73 C 284.98 771.67 289.36 771.41 293.68 770.76 C 293.96 764.61 294.00 758.39 292.68 752.35 Z"/><path fill="#82aa1a" opacity="1.00" d=" M 313.76 767.76 C 315.43 766.10 318.14 766.04 320.29 765.27 C 320.32 771.07 320.46 776.89 320.90 782.68 C 320.94 783.52 320.85 784.36 320.62 785.20 C 318.87 784.65 317.07 784.20 315.32 783.68 C 313.07 788.40 313.01 793.61 313.79 798.70 C 310.07 799.38 306.35 800.10 302.61 800.73 C 301.54 800.90 300.46 801.07 299.39 801.23 C 299.37 800.81 299.32 799.96 299.30 799.53 C 299.27 799.01 299.21 797.95 299.18 797.43 C 299.07 794.97 299.03 792.53 298.98 790.09 C 303.06 789.05 307.84 789.00 311.18 786.24 C 313.20 780.28 311.08 773.55 313.76 767.76 Z"/></g><g><path fill="#80ab33" opacity="1.00" d=" M 470.33 405.21 C 474.22 396.43 487.16 398.40 489.96 388.79 C 486.47 407.51 482.99 426.25 480.91 445.19 C 480.35 448.75 479.78 452.30 479.27 455.87 C 478.34 457.77 477.30 459.61 476.28 461.46 C 472.90 460.16 469.51 458.87 466.13 457.57 C 464.68 458.70 463.22 459.84 461.78 460.98 C 464.21 442.34 466.80 423.67 470.33 405.21 Z"/><path fill="#80ab33" opacity="1.00" d=" M 288.93 606.03 C 290.10 604.79 291.28 603.55 292.40 602.27 C 290.39 615.15 293.41 628.08 293.74 640.97 C 293.93 650.70 294.62 660.41 295.09 670.13 C 295.19 674.56 295.35 678.99 295.77 683.41 C 293.73 684.06 291.65 684.64 289.50 684.75 C 287.59 682.45 286.59 679.58 285.79 676.75 C 285.13 652.94 285.03 629.12 284.19 605.32 C 285.76 605.56 287.34 605.80 288.93 606.03 Z"/></g><g><path fill="#5a8710" opacity="1.00" d=" M 495.93 439.72 C 498.02 434.48 504.10 433.45 508.88 431.94 C 509.24 434.19 509.59 436.45 509.82 438.74 C 507.76 457.86 504.78 476.92 502.82 496.08 C 502.96 491.12 503.52 485.94 501.86 481.17 C 498.24 479.45 494.14 479.47 490.24 479.03 C 488.42 484.59 486.91 490.27 486.24 496.10 C 482.59 525.90 480.65 556.04 483.33 586.01 C 484.91 598.00 480.47 609.47 478.05 621.01 C 476.49 627.51 476.09 634.80 471.17 639.89 C 469.89 586.51 472.23 533.10 476.98 479.94 C 479.03 476.37 483.28 475.87 486.92 475.11 C 490.87 463.56 491.30 451.06 495.93 439.72 Z"/><path fill="#5a8710" opacity="1.00" d=" M 304.23 679.68 C 305.92 676.40 307.90 673.27 310.42 670.56 C 310.85 674.19 311.22 677.84 311.65 681.48 C 310.62 682.25 309.60 683.03 308.59 683.82 C 307.78 688.63 307.28 693.50 306.38 698.31 C 301.68 700.35 295.84 702.92 296.54 709.15 C 296.17 701.18 296.19 693.20 295.88 685.24 C 296.08 683.76 296.34 682.31 296.60 680.86 C 299.14 680.48 301.69 680.11 304.23 679.68 Z"/></g><g><path fill="#61952b" opacity="1.00" d=" M 476.28 461.46 C 477.30 459.61 478.34 457.77 479.27 455.87 C 478.42 463.88 477.72 471.91 476.98 479.94 C 472.23 533.10 469.89 586.51 471.17 639.89 C 471.49 646.70 470.43 653.43 469.39 660.14 C 466.48 658.98 463.41 658.22 460.28 658.13 C 463.54 654.69 463.69 649.75 462.48 645.41 C 459.30 631.59 455.07 618.01 450.03 604.76 C 451.90 556.70 455.81 508.71 461.78 460.98 C 463.22 459.84 464.68 458.70 466.13 457.57 C 469.51 458.87 472.90 460.16 476.28 461.46 Z"/><path fill="#61952b" opacity="1.00" d=" M 285.79 676.75 C 286.59 679.58 287.59 682.45 289.50 684.75 C 291.65 684.64 293.73 684.06 295.77 683.41 C 295.80 683.87 295.85 684.78 295.88 685.24 C 296.19 693.20 296.17 701.18 296.54 709.15 C 296.93 718.12 297.24 727.10 297.78 736.07 C 297.74 738.20 297.57 740.32 297.50 742.46 C 296.85 742.07 295.54 741.30 294.89 740.92 C 294.56 736.84 294.14 732.77 293.27 728.78 C 291.52 721.10 289.12 713.59 286.69 706.11 C 285.63 696.38 286.31 686.52 285.79 676.75 Z"/></g><g><path fill="#4d780c" opacity="1.00" d=" M 490.24 479.03 C 494.14 479.47 498.24 479.45 501.86 481.17 C 503.52 485.94 502.96 491.12 502.82 496.08 C 500.03 527.20 497.51 558.39 497.27 589.66 C 492.25 609.08 488.18 628.73 484.38 648.42 C 484.03 650.40 483.75 652.41 483.47 654.42 C 477.58 651.98 472.08 655.37 469.69 660.89 C 469.62 660.70 469.47 660.33 469.39 660.14 C 470.43 653.43 471.49 646.70 471.17 639.89 C 476.09 634.80 476.49 627.51 478.05 621.01 C 480.47 609.47 484.91 598.00 483.33 586.01 C 480.65 556.04 482.59 525.90 486.24 496.10 C 486.91 490.27 488.42 484.59 490.24 479.03 Z"/><path fill="#4d780c" opacity="1.00" d=" M 471.41 681.23 C 473.97 681.30 476.52 681.37 479.08 681.43 C 477.53 691.16 476.48 700.97 474.68 710.66 C 471.55 701.13 472.19 691.08 471.41 681.23 Z"/><path fill="#4d780c" opacity="1.00" d=" M 308.59 683.82 C 309.60 683.03 310.62 682.25 311.65 681.48 C 311.98 686.09 312.65 690.68 312.78 695.32 C 312.08 693.95 311.31 692.63 310.55 691.32 C 308.17 699.55 308.29 708.29 305.53 716.43 C 303.21 723.06 303.35 731.02 297.78 736.07 C 297.24 727.10 296.93 718.12 296.54 709.15 C 295.84 702.92 301.68 700.35 306.38 698.31 C 307.28 693.50 307.78 688.63 308.59 683.82 Z"/></g><g><path fill="#416e08" opacity="1.00" d=" M 469.69 660.89 C 472.08 655.37 477.58 651.98 483.47 654.42 C 483.25 655.94 483.04 657.47 482.84 659.01 C 477.92 662.58 475.96 669.34 480.09 674.34 C 479.76 676.70 479.43 679.06 479.08 681.43 C 476.52 681.37 473.97 681.30 471.41 681.23 C 471.09 678.57 470.57 675.95 470.10 673.33 C 472.33 669.39 472.21 664.65 469.69 660.89 Z"/><path fill="#416e08" opacity="1.00" d=" M 305.53 716.43 C 308.29 708.29 308.17 699.55 310.55 691.32 C 311.31 692.63 312.08 693.95 312.78 695.32 C 313.61 700.15 313.75 705.08 314.25 709.96 C 316.34 718.03 309.97 723.85 306.69 730.39 C 305.56 733.33 304.69 736.36 303.55 739.31 C 302.15 742.46 301.31 745.86 301.75 749.34 C 300.93 751.80 299.94 754.19 299.08 756.65 C 298.63 753.79 298.01 750.95 297.69 748.08 C 297.55 746.20 297.49 744.33 297.50 742.46 C 297.57 740.32 297.74 738.20 297.78 736.07 C 303.35 731.02 303.21 723.06 305.53 716.43 Z"/></g><g><path fill="#f4f4f4" opacity="1.00" d=" M 412.43 759.31 C 419.03 756.47 426.10 755.08 433.16 753.89 C 433.16 754.51 433.16 755.77 433.16 756.39 C 429.86 757.98 424.54 758.72 423.83 763.00 C 424.65 767.44 429.91 768.57 433.35 770.42 C 433.37 771.03 433.40 772.26 433.42 772.87 C 423.91 771.55 414.48 769.04 406.32 763.83 C 406.72 762.09 407.10 760.35 407.50 758.63 C 408.69 760.80 409.84 762.99 411.02 765.17 C 413.05 765.06 415.09 764.95 417.14 764.86 C 415.57 763.00 414.01 761.15 412.43 759.31 Z"/></g><g><path fill="#e8e8e4" opacity="1.00" d=" M 522.78 754.34 C 525.62 756.92 529.25 758.22 532.94 759.08 C 530.47 763.53 528.06 768.02 525.57 772.47 C 519.00 771.44 512.48 772.95 505.96 773.55 C 486.56 775.78 467.03 774.45 447.58 774.61 C 447.20 773.12 446.79 771.61 446.46 770.13 C 455.13 769.84 463.70 772.13 472.42 772.06 C 472.84 772.10 473.69 772.18 474.12 772.23 C 491.21 774.50 507.42 766.88 524.42 767.36 C 523.82 763.02 523.20 758.69 522.78 754.34 Z"/><path fill="#e8e8e4" opacity="1.00" d=" M 423.83 763.00 C 424.54 758.72 429.86 757.98 433.16 756.39 C 433.20 761.07 433.23 765.74 433.35 770.42 C 429.91 768.57 424.65 767.44 423.83 763.00 Z"/><path fill="#e8e8e4" opacity="1.00" d=" M 260.76 789.16 C 264.83 787.83 269.08 787.21 273.36 787.06 C 271.18 788.85 268.88 790.48 266.57 792.07 C 267.98 795.83 271.24 797.44 274.90 798.76 C 274.96 799.09 275.08 799.75 275.14 800.08 C 267.92 799.69 260.03 798.76 254.68 793.35 C 255.63 792.10 256.59 790.86 257.55 789.62 C 258.41 791.07 259.29 792.52 260.15 793.98 C 261.54 793.78 262.93 793.60 264.32 793.42 C 263.14 791.99 261.95 790.56 260.76 789.16 Z"/><path fill="#e8e8e4" opacity="1.00" d=" M 321.57 786.80 C 326.68 787.11 331.74 787.96 336.68 789.33 C 335.62 792.19 334.57 795.06 333.54 797.94 L 333.27 798.67 C 323.15 800.18 312.86 801.97 302.61 800.73 C 306.35 800.10 310.07 799.38 313.79 798.70 C 316.76 798.10 319.75 797.64 322.72 797.10 C 324.79 796.44 327.75 795.82 327.55 793.03 C 326.63 790.65 323.65 790.42 321.76 789.10 C 321.71 788.52 321.62 787.37 321.57 786.80 Z"/></g><g><path fill="#8fa077" opacity="1.00" d=" M 445.60 766.47 C 446.14 766.59 447.23 766.82 447.78 766.93 C 454.11 767.92 460.48 768.78 466.68 770.48 C 468.60 770.95 470.49 771.56 472.42 772.06 C 463.70 772.13 455.13 769.84 446.46 770.13 C 446.16 768.91 445.85 767.67 445.60 766.47 Z"/><path fill="#8fa077" opacity="1.00" d=" M 283.07 794.87 C 287.29 795.38 291.51 795.88 295.70 796.64 C 296.86 796.87 298.02 797.13 299.18 797.43 C 299.21 797.95 299.27 799.01 299.30 799.53 C 294.45 799.64 289.59 799.55 284.75 799.44 C 284.17 797.91 283.60 796.39 283.07 794.87 Z"/></g><g><path fill="#7a9a4c" opacity="1.00" d=" M 477.11 770.59 C 478.14 769.34 478.96 767.95 479.51 766.44 C 482.01 766.57 484.51 766.73 487.02 766.79 C 490.48 766.98 493.95 767.19 497.43 767.14 C 490.88 769.42 483.97 770.00 477.11 770.59 Z"/></g><g><path fill="#aec37e" opacity="1.00" d=" M 497.43 767.14 C 499.24 767.06 501.05 767.01 502.87 766.99 C 510.06 766.88 517.24 767.13 524.42 767.36 C 507.42 766.88 491.21 774.50 474.12 772.23 C 474.53 772.11 475.37 771.87 475.78 771.75 C 476.12 771.46 476.78 770.88 477.11 770.59 C 483.97 770.00 490.88 769.42 497.43 767.14 Z"/></g><g><path fill="#dae2bf" opacity="1.00" d=" M 273.35 783.82 C 273.97 788.79 274.28 793.79 274.90 798.76 C 271.24 797.44 267.98 795.83 266.57 792.07 C 268.88 790.48 271.18 788.85 273.36 787.06 C 273.36 786.25 273.35 784.63 273.35 783.82 Z"/><path fill="#dae2bf" opacity="1.00" d=" M 321.76 789.10 C 323.65 790.42 326.63 790.65 327.55 793.03 C 327.75 795.82 324.79 796.44 322.72 797.10 C 322.45 794.42 322.08 791.76 321.76 789.10 Z"/></g></svg>