<svg xmlns="http://www.w3.org/2000/svg"viewBox="0 0 995 1007">
<g id="#2790cbff">
<path fill="#2790cb" opacity="1.00" d=" M 873.21 0.00 L 873.47 0.00 C 894.03 12.15 914.82 23.91 935.47 35.92 C 914.78 48.06 893.94 59.93 873.19 71.95 C 873.27 47.97 873.22 23.98 873.21 0.00 Z" />
<path fill="#2790cb" opacity="1.00" d=" M 0.00 71.64 L 0.30 71.85 C 20.62 84.43 41.65 95.87 62.27 107.94 C 62.47 131.95 62.09 155.96 62.45 179.96 C 83.19 192.00 103.99 203.94 124.73 215.97 C 124.78 192.00 124.70 168.03 124.76 144.06 C 166.45 167.92 207.97 192.10 249.65 215.97 C 249.50 239.74 248.66 263.66 250.05 287.37 C 250.14 287.73 250.32 288.45 250.41 288.81 C 252.57 296.52 255.91 303.81 258.77 311.27 C 318.13 459.26 376.89 607.53 436.56 755.39 C 438.02 756.97 439.81 758.23 441.71 759.26 C 461.01 770.07 479.90 781.63 499.34 792.18 C 518.99 804.17 539.21 815.24 559.05 826.91 C 560.02 827.63 561.30 828.42 561.30 829.82 C 561.62 877.02 560.79 924.27 561.71 971.46 C 561.47 971.60 560.98 971.89 560.73 972.03 C 540.57 959.59 520.01 947.65 499.14 936.48 C 498.87 960.10 498.86 983.74 499.18 1007.36 L 498.70 1007.59 C 437.03 972.16 375.45 936.56 313.79 901.12 C 310.61 899.33 310.18 895.31 308.69 892.31 C 247.66 744.34 186.61 596.38 125.57 448.42 C 124.89 446.70 124.67 444.85 124.67 443.03 C 124.77 415.42 124.65 387.82 124.73 360.22 C 109.33 350.93 93.28 342.57 78.16 332.91 C 51.73 270.16 26.18 206.97 0.00 144.08 L 0.00 71.64 M 187.16 468.16 C 186.88 492.25 187.21 516.35 187.01 540.44 L 187.43 540.15 C 208.02 552.18 228.79 563.91 249.35 576.00 C 270.31 564.15 291.07 551.94 311.97 539.99 C 291.09 527.92 270.25 515.77 249.26 503.88 L 248.65 504.26 C 228.78 491.30 207.59 480.28 187.16 468.16 M 312.01 756.68 C 311.82 780.49 311.85 804.30 312.00 828.11 C 332.82 816.54 353.30 804.33 373.98 792.51 C 353.63 780.09 332.85 768.28 312.01 756.68 M 437.13 899.55 C 437.21 899.76 437.38 900.17 437.46 900.37 C 457.91 912.29 478.47 924.06 498.96 935.91 C 499.16 911.91 499.09 887.90 499.00 863.91 C 478.33 875.70 457.77 887.70 437.13 899.55 Z" />
<path fill="#2790cb" opacity="1.00" d=" M 871.75 144.51 C 892.97 133.07 913.64 120.60 934.53 108.56 C 935.60 109.79 935.75 111.41 935.74 112.98 C 935.55 135.27 935.70 157.56 935.68 179.84 C 916.38 169.09 897.41 157.71 878.20 146.80 C 876.14 145.79 873.92 145.18 871.75 144.51 Z" />
<path fill="#2790cb" opacity="1.00" d=" M 623.76 214.07 C 623.92 190.66 623.48 167.23 623.96 143.83 C 644.35 156.40 665.43 167.85 686.06 180.03 C 686.11 204.03 685.99 228.02 686.11 252.01 C 706.93 239.92 728.03 228.22 748.59 215.70 C 748.36 191.90 749.44 168.02 748.00 144.27 C 769.38 155.35 789.64 168.64 810.98 179.83 C 810.72 227.85 811.18 275.88 810.75 323.89 C 790.05 311.91 769.31 300.03 748.63 288.02 C 727.68 299.83 706.92 311.99 686.08 324.01 C 706.83 336.09 727.69 348.01 748.46 360.05 C 748.46 383.99 748.82 407.95 748.30 431.87 C 732.67 423.06 717.41 413.57 701.57 405.19 C 696.87 416.67 692.44 428.26 687.66 439.70 C 685.86 443.89 685.77 448.52 685.87 453.00 C 686.41 506.15 685.11 559.28 685.21 612.42 C 667.13 602.09 649.15 591.58 631.08 581.23 C 620.21 608.11 609.52 635.05 598.68 661.93 C 586.07 692.95 574.02 724.21 561.14 755.10 C 540.32 743.11 518.95 732.03 498.51 719.45 C 499.43 659.60 498.79 599.70 498.99 539.83 C 504.73 525.21 510.29 510.53 515.97 495.89 C 516.48 494.24 517.86 493.18 519.32 492.38 C 533.40 484.33 547.45 476.22 561.48 468.07 C 561.46 439.03 561.52 409.99 561.44 380.95 C 561.43 379.05 561.71 377.15 562.38 375.37 C 581.92 324.89 601.30 274.36 620.81 223.87 C 622.00 220.68 623.67 217.55 623.76 214.07 Z" />
<path fill="#2790cb" opacity="1.00" d=" M 311.87 252.16 C 332.71 263.93 353.50 275.82 374.04 288.09 C 374.26 311.87 374.25 335.65 374.04 359.43 C 353.05 347.99 332.54 335.66 311.81 323.75 C 311.90 299.89 311.77 276.02 311.87 252.16 Z" />
<path fill="#2790cb" opacity="1.00" d=" M 749.91 503.10 C 770.24 491.54 790.40 479.66 810.76 468.17 C 810.92 492.05 810.91 515.95 810.77 539.84 C 790.58 528.59 770.75 516.69 750.60 505.36 C 749.62 505.11 748.51 503.62 749.91 503.10 Z" />
<path fill="#2790cb" opacity="1.00" d=" M 623.86 791.56 C 644.78 780.22 665.10 767.79 685.85 756.14 C 686.02 779.97 685.94 803.80 685.89 827.63 L 684.64 827.16 C 664.78 815.72 644.94 804.24 625.09 792.79 C 624.78 792.48 624.17 791.87 623.86 791.56 Z" />





</g>
<g id="#eaeaeaff">
<path fill="#eaeaea" opacity="1.00" d=" M 55.78 39.78 C 79.35 27.79 101.79 13.67 124.85 0.72 C 151.73 16.45 178.79 31.86 205.95 47.09 C 262.07 79.52 318.26 111.80 374.33 144.32 C 332.89 168.42 290.89 191.53 249.65 215.97 C 207.97 192.10 166.45 167.92 124.76 144.06 C 124.70 168.03 124.78 192.00 124.73 215.97 C 103.99 203.94 83.19 192.00 62.45 179.96 C 82.98 167.70 104.24 156.57 124.34 143.67 C 103.63 131.81 83.01 119.77 62.27 107.94 C 41.65 95.87 20.62 84.43 0.30 71.85 C 18.77 61.11 37.32 50.52 55.78 39.78 Z" />
<path fill="#eaeaea" opacity="1.00" d=" M 623.96 143.83 C 686.18 107.71 748.54 71.84 810.89 35.96 C 831.62 48.02 852.42 59.96 873.19 71.95 C 893.94 59.93 914.78 48.06 935.47 35.92 C 956.21 47.96 977.09 59.76 997.73 71.96 C 976.81 84.41 955.59 96.36 934.53 108.56 C 913.64 120.60 892.97 133.07 871.75 144.51 C 851.41 156.12 830.89 167.50 810.98 179.83 C 789.64 168.64 769.38 155.35 748.00 144.27 C 727.32 156.13 706.66 168.04 686.06 180.03 C 665.43 167.85 644.35 156.40 623.96 143.83 Z" />
<path fill="#eaeaea" opacity="1.00" d=" M 686.08 324.01 C 706.92 311.99 727.68 299.83 748.63 288.02 C 769.31 300.03 790.05 311.91 810.75 323.89 C 790.19 336.28 769.19 347.94 748.46 360.05 C 727.69 348.01 706.83 336.09 686.08 324.01 Z" />
<path fill="#eaeaea" opacity="1.00" d=" M 248.65 504.26 L 249.26 503.88 C 270.25 515.77 291.09 527.92 311.97 539.99 C 291.07 551.94 270.31 564.15 249.35 576.00 C 228.79 563.91 208.02 552.18 187.43 540.15 C 207.45 527.57 228.46 516.58 248.65 504.26 Z" />
<path fill="#eaeaea" opacity="1.00" d=" M 436.56 755.39 C 457.00 743.06 477.86 731.41 498.51 719.45 C 518.95 732.03 540.32 743.11 561.14 755.10 C 540.43 767.51 519.31 779.25 498.40 791.32 C 478.24 778.69 457.28 767.14 436.56 755.39 Z" />
<path fill="#eaeaea" opacity="1.00" d=" M 623.82 792.05 L 625.09 792.79 C 644.94 804.24 664.78 815.72 684.64 827.16 L 685.70 827.77 C 665.16 839.79 644.58 851.77 623.83 863.43 C 623.70 839.64 623.48 815.83 623.82 792.05 Z" />
</g>
<g id="#62b0e2ff">
<path fill="#62b0e2" opacity="1.00" d=" M 997.73 71.96 L 998.23 72.37 C 998.34 94.92 998.18 117.48 998.31 140.03 C 998.29 141.85 998.17 143.70 997.51 145.41 C 893.83 396.46 790.26 647.57 686.54 898.61 C 686.03 899.97 684.77 900.77 683.59 901.50 C 642.93 924.76 602.35 948.15 561.71 971.46 C 560.79 924.27 561.62 877.02 561.30 829.82 C 561.30 828.42 560.02 827.63 559.05 826.91 C 539.21 815.24 518.99 804.17 499.34 792.18 L 498.40 791.32 C 519.31 779.25 540.43 767.51 561.14 755.10 C 574.02 724.21 586.07 692.95 598.68 661.93 C 627.91 646.19 656.37 628.92 685.21 612.42 C 685.11 559.28 686.41 506.15 685.87 453.00 C 685.77 448.52 685.86 443.89 687.66 439.70 C 692.44 428.26 696.87 416.67 701.57 405.19 C 717.41 413.57 732.67 423.06 748.30 431.87 C 748.82 407.95 748.46 383.99 748.46 360.05 C 769.19 347.94 790.19 336.28 810.75 323.89 C 811.18 275.88 810.72 227.85 810.98 179.83 C 830.89 167.50 851.41 156.12 871.75 144.51 C 873.92 145.18 876.14 145.79 878.20 146.80 C 897.41 157.71 916.38 169.09 935.68 179.84 C 935.70 157.56 935.55 135.27 935.74 112.98 C 935.75 111.41 935.60 109.79 934.53 108.56 C 955.59 96.36 976.81 84.41 997.73 71.96 M 749.91 503.10 C 748.51 503.62 749.62 505.11 750.60 505.36 C 770.75 516.69 790.58 528.59 810.77 539.84 C 810.91 515.95 810.92 492.05 810.76 468.17 C 790.40 479.66 770.24 491.54 749.91 503.10 M 623.86 791.56 C 624.17 791.87 624.78 792.48 625.09 792.79 L 623.82 792.05 C 623.48 815.83 623.70 839.64 623.83 863.43 C 644.58 851.77 665.16 839.79 685.70 827.77 L 684.64 827.16 L 685.89 827.63 C 685.94 803.80 686.02 779.97 685.85 756.14 C 665.10 767.79 644.78 780.22 623.86 791.56 Z" />
<path fill="#62b0e2" opacity="1.00" d=" M 62.27 107.94 C 83.01 119.77 103.63 131.81 124.34 143.67 C 104.24 156.57 82.98 167.70 62.45 179.96 C 62.09 155.96 62.47 131.95 62.27 107.94 Z" />
<path fill="#62b0e2" opacity="1.00" d=" M 249.65 215.97 C 290.89 191.53 332.89 168.42 374.33 144.32 C 374.22 167.23 374.36 190.14 374.26 213.06 C 374.10 217.37 376.33 221.21 377.76 225.14 C 418.15 330.05 458.64 434.91 498.99 539.83 C 498.79 599.70 499.43 659.60 498.51 719.45 C 477.86 731.41 457.00 743.06 436.56 755.39 C 376.89 607.53 318.13 459.26 258.77 311.27 C 255.91 303.81 252.57 296.52 250.41 288.81 C 271.23 299.80 291.24 312.28 311.81 323.75 C 332.54 335.66 353.05 347.99 374.04 359.43 C 374.25 335.65 374.26 311.87 374.04 288.09 C 353.50 275.82 332.71 263.93 311.87 252.16 C 291.04 263.48 270.88 276.04 250.05 287.37 C 248.66 263.66 249.50 239.74 249.65 215.97 Z" />
<path fill="#62b0e2" opacity="1.00" d=" M 686.06 180.03 C 706.66 168.04 727.32 156.13 748.00 144.27 C 749.44 168.02 748.36 191.90 748.59 215.70 C 728.03 228.22 706.93 239.92 686.11 252.01 C 685.99 228.02 686.11 204.03 686.06 180.03 Z" />
<path fill="#62b0e2" opacity="1.00" d=" M 187.16 468.16 C 207.59 480.28 228.78 491.30 248.65 504.26 C 228.46 516.58 207.45 527.57 187.43 540.15 L 187.01 540.44 C 187.21 516.35 186.88 492.25 187.16 468.16 Z" />
<path fill="#62b0e2" opacity="1.00" d=" M 312.01 756.68 C 332.85 768.28 353.63 780.09 373.98 792.51 C 353.30 804.33 332.82 816.54 312.00 828.11 C 311.85 804.30 311.82 780.49 312.01 756.68 Z" />
<path fill="#62b0e2" opacity="1.00" d=" M 499.14 936.48 C 520.01 947.65 540.57 959.59 560.73 972.03 C 540.21 983.81 519.72 995.62 499.18 1007.36 C 498.86 983.74 498.87 960.10 499.14 936.48 Z" />
</g>
<g id="#ffffffff">
<path fill="#ffffff" opacity="1.00" d=" M 250.05 287.37 C 270.88 276.04 291.04 263.48 311.87 252.16 C 311.77 276.02 311.90 299.89 311.81 323.75 C 291.24 312.28 271.23 299.80 250.41 288.81 C 250.32 288.45 250.14 287.73 250.05 287.37 Z" />
<path fill="#ffffff" opacity="1.00" d=" M 631.08 581.23 C 649.15 591.58 667.13 602.09 685.21 612.42 C 656.37 628.92 627.91 646.19 598.68 661.93 C 609.52 635.05 620.21 608.11 631.08 581.23 Z" />
<path fill="#ffffff" opacity="1.00" d=" M 437.13 899.55 C 457.77 887.70 478.33 875.70 499.00 863.91 C 499.09 887.90 499.16 911.91 498.96 935.91 C 478.47 924.06 457.91 912.29 437.46 900.37 C 437.38 900.17 437.21 899.76 437.13 899.55 Z" />
</g>
</svg>
